<?xml version="1.0" encoding="UTF-8"?>
<svg id="Layer_1" data-name="Layer 1" xmlns="http://www.w3.org/2000/svg" viewBox="0 0 1117.92 660.64">
  <defs>
    <style>
      .cls-1 {
        fill: #ceff00;
      }

      .cls-2 {
        fill: #859b00;
      }
    </style>
  </defs>
  <path class="cls-1" d="M600.39,529.7h-303.65v-9.65h-43.3v-76.7h38.87v-101.22h91.04v-163.57h481.04c8,13.26,22.02,32.51,44.94,49.14,11.85,8.59,23.31,14.48,33.01,18.56l-114.48,180.39c-11.37,17.25-32.29,44.15-66.52,67.04-42.15,28.19-83.14,36.03-104.87,38.61h-55.04l-1.04-2.61Z"/>
  <path class="cls-2" d="M309.52,336.98V102.72h655.83c11.67-1.85,23.47,2.74,30.78,12,7.22,9.14,9.01,21.5,4.7,32.35l-58.48,93.39s-52.65-19.83-72.48-64.17h-490.43v160.7h-69.91Z"/>
</svg>