<?xml version="1.0" encoding="UTF-8"?>
<svg id="Layer_1" data-name="Layer 1" xmlns="http://www.w3.org/2000/svg" viewBox="0 0 1114.37 634.06">
  <defs>
    <style>
      .cls-1 {
        fill: #ceff00;
        opacity: .5;
      }
    </style>
  </defs>
  <path class="cls-1" d="M484.91,146.52h432c3.46.75,11.82,3.05,19.3,10.43,8,7.89,10.27,16.92,10.96,20.35v130.43h-34.43c-4.81.94-26.36,5.67-39.13,25.57-5.75,8.96-7.65,17.78-8.35,23.48v49.04h-334.96v-14.09h-45.39v-245.22Z"/>
  <path class="cls-1" d="M869.76,402.5v-44.22s6.26-42.26,46.96-46.17h28.17v60.07s-3.33,30.13-26.8,30.33-48.33,0-48.33,0Z"/>
  <polygon class="cls-1" points="317.17 407.72 357.48 407.72 357.48 340.22 479.17 340.22 479.17 264.7 317.17 264.7 317.17 407.72"/>
</svg>