<?xml version="1.0" encoding="UTF-8"?>
<svg id="Layer_1" data-name="Layer 1" xmlns="http://www.w3.org/2000/svg" viewBox="0 0 1071.67 651.57">
  <defs>
    <style>
      .cls-1 {
        fill: #edf900;
        opacity: .5;
      }
    </style>
  </defs>
  <path class="cls-1" d="M465.35,151.7h358.43c-2.74,18.32-1.53,33.19,0,43.04,1.96,12.63,3.39,21.82,10.17,30.91,10.22,13.7,25.63,17.85,32.09,19.17h36v122.87c-.41,2.87-1.98,11.15-9,18.39-7.65,7.89-16.81,9.43-19.57,9.78h-365.48v-10.57h-42.65v-233.61Z"/>
  <path class="cls-1" d="M826.78,156.13h49.3c3.1,1.05,8.99,3.52,14.35,9.13,6.46,6.77,8.46,14.25,9.13,17.48l-1.57,58.17h-29.74c-3.84-.64-19.89-3.75-31.3-18.52-8.78-11.36-9.96-23.34-10.17-27.91v-38.35Z"/>
  <polygon class="cls-1" points="306.09 262.43 458.96 262.43 458.96 334.7 344.96 334.7 345.48 398.61 306.09 398.61 306.09 262.43"/>
</svg>