<?xml version="1.0" encoding="UTF-8"?>
<svg id="Layer_1" data-name="Layer 1" xmlns="http://www.w3.org/2000/svg" viewBox="0 0 1114.8 670.2">
  <defs>
    <style>
      .cls-1 {
        fill: #f3ff00;
      }

      .cls-1, .cls-2 {
        opacity: .5;
      }

      .cls-2 {
        fill: #daff00;
      }
    </style>
  </defs>
  <path class="cls-1" d="M498.39,164.61h424.43c3.28.45,11.86,2.07,19.57,9.13,9.42,8.62,11.11,19.46,11.48,22.43v185.48c.27,3,.85,13.63-6.26,23.74-8.95,12.72-23.03,14.6-25.3,14.87h-53.22l-.26-12.78c-7.7-12.49-23.63-34.65-51.65-52.7-29.38-18.92-57.54-23.96-72.26-25.57h-164.09v-25.04h-82.43v-139.57Z"/>
  <path class="cls-1" d="M541.17,371.48h39.91v-36.38h154.17c13.61.37,42.49,2.99,73.04,20.99,31.02,18.27,47.4,42.75,54.26,54.52v9.65h-321.39v-48.78Z"/>
  <polygon class="cls-2" points="332.35 420.26 332.35 280.96 490.04 280.96 490.04 353.35 371.48 353.35 371.48 420.22 332.35 420.26"/>
</svg>