<?xml version="1.0" encoding="UTF-8"?>
<svg id="Layer_1" data-name="Layer 1" xmlns="http://www.w3.org/2000/svg" viewBox="0 0 1116.94 642.99">
  <defs>
    <style>
      .cls-1 {
        fill: #f3ff00;
        opacity: .51;
      }
    </style>
  </defs>
  <path class="cls-1" d="M490.48,164.35h410.87c2.29-.17,15.51-.96,26.61,9,10.33,9.27,11.54,21.31,11.74,23.87v189c-.38,3.39-1.64,10.33-6.65,17.22-6.65,9.13-15.64,12.34-18.78,13.3h-56.74v-11.74c-7.96-12.24-22.24-30.81-45.39-46.96-29.29-20.44-58.04-26.72-73.57-28.96l-84.13.39c-14.17.81-44.42,4.48-75.52,24.65-27.2,17.64-42.24,39.6-49.3,51.65h-38.35l-.78-241.43Z"/>
  <path class="cls-1" d="M533.91,406.83c10.7-15.07,21.85-27.98,37.04-41.22,23.15-16.89,47.22-29.8,81.65-32.09h84.52c14.2,1.79,41.49,7.17,69.39,26.35,23.55,16.2,37.4,35.27,44.61,46.96v9.91h-317.22v-9.91Z"/>
</svg>