<?xml version="1.0" encoding="UTF-8"?>
<svg xmlns="http://www.w3.org/2000/svg" viewBox="0 0 4615 2597">
  <defs>
    <style>
      .cls-1 {
        fill: #ceff00;
      }
    </style>
  </defs>
  <g id="terrace">
    <path class="cls-1" d="M1993.61,734.22l-9.39-160.83,787.7-351s30.52-7.04,39.91,12.91l9.39,19.96,37.57,297v231.26l75.13,160.47s27,16.79-11.74,26.19-63.39,17.61-63.39,17.61l16.43,32.87-10.13,35.22-13.35-28.17v-158.48l-68.09-390.91s-25.27-53.73-68.09-36.39-721.96,292.3-721.96,292.3"/>
  </g>
  <g id="floor_12">
    <path class="cls-1" d="M1999.09,863.35l-5.48-129.13,721.96-292.3s59.87-12.91,68.09,36.39,41.09,211.3,41.09,211.3l27,179.61v158.48l35.61,75.13v97.43l-35.3-86.14-25.5-220.6-58.16-262.61s-31.5-34.39-55.17-25.83-714.13,258.26-714.13,258.26"/>
  </g>
  <g id="floor_11">
    <path class="cls-1" d="M1999.09,983.09v-119.74l714.13-258.26s45.78-3.52,55.17,25.83,35.22,157.3,35.22,157.3l22.3,99.78,27,233.61,34.43,78.65v82.76l-36.78-63.98-46.96-316.96-42.26-156.13-49.3-11.74-712.96,248.87"/>
  </g>
  <g id="floor_10">
    <polyline class="cls-1" points="1999.09 1096.96 1999.09 983.09 2712.04 734.22 2761.35 745.96 2803.61 902.09 2823.57 1014.78 2850.57 1219.04 2887.35 1283.02 2887.35 1377.52 2855.26 1320 2761.35 895.04 2709.7 888 1999.09 1096.96"/>
  </g>
  <g id="floor_9">
    <polyline class="cls-1" points="1999.09 1221.39 1999.09 1096.96 2709.7 888 2761.35 895.04 2802.43 1033.57 2855.26 1320 2887.35 1377.52 2887.35 1463.22 2852.91 1404.54 2760.17 1024.17 2710.87 1014.78 1999.09 1221.39"/>
  </g>
  <g id="floor_8">
    <polyline class="cls-1" points="1999.09 1329.39 1999.09 1221.39 2710.87 1014.78 2760.17 1024.17 2800.09 1158 2852.91 1404.54 2887.35 1463.22 2887.35 1551.26 2851.74 1500.78 2762.52 1176.78 2729.65 1165.04 1999.09 1329.39"/>
  </g>
  <g id="floor_7">
    <polyline class="cls-1" points="2004.17 1455 1999.09 1329.39 2729.65 1165.04 2762.52 1176.78 2795.39 1270.7 2851.74 1500.78 2887.35 1551.26 2887.35 1644.04 2849.39 1599.39 2803.57 1409.23 2759 1309.43 2717.91 1298.5 2004.17 1455"/>
  </g>
  <g id="floor_6">
    <polyline class="cls-1" points="1985.39 1591.17 1965.43 1574.74 1965.43 1531.3 2004.17 1455 2717.91 1298.5 2759 1309.43 2802.43 1404.52 2849.39 1599.39 2887.35 1644.04 2887.35 1732.04 2847.04 1685.09 2795.39 1566.52 2724.96 1463.22 1985.39 1591.17"/>
  </g>
  <g id="floor_5">
    <polyline class="cls-1" points="1999.09 1685.09 1985.39 1591.17 2724.96 1463.22 2795.39 1566.52 2847.04 1685.09 2887.35 1732.04 2886.97 1824.86 2849.39 1788.39 2759 1582.96 2724.96 1574.74 1999.09 1685.09"/>
  </g>
  <g id="floor_4">
    <polyline class="cls-1" points="1999.09 1801.3 1999.09 1685.09 2724.96 1574.74 2759 1582.96 2793.04 1652.22 2849.39 1788.39 2887.35 1818.91 2881.87 1905.78 2849.39 1882.3 2798.91 1775.48 2749.61 1721.48 1999.09 1801.3"/>
  </g>
  <g id="floor_3">
    <polyline class="cls-1" points="2002.22 1918.3 1999.09 1801.3 2749.61 1721.48 2798.91 1775.48 2849.39 1882.3 2881.87 1905.78 2887.35 1993.43 2854.48 1975.43 2756.65 1860.39 2002.22 1918.3"/>
  </g>
  <g id="floor_2">
    <polyline class="cls-1" points="1999.09 2033.35 2002.22 1918.3 2756.65 1860.39 2854.48 1975.43 2887.35 1993.43 2881.87 2064.65 2754.3 1999.7 1999.09 2033.35"/>
  </g>
  <g id="floor_1">
    <polyline class="cls-1" points="2028.04 2167.17 2002.22 2149.96 1999.09 2033.35 2754.3 1999.7 2881.87 2064.65 2881.87 2157.78 2863.87 2167.96 2028.04 2167.17"/>
  </g>
  <g id="Ground_floor">
    <polygon class="cls-1" points="2028.04 2336.22 2028.04 2167.17 2775.43 2161.7 2863.87 2167.96 2866.42 2358.16 2028.04 2336.22"/>
  </g>
</svg>