<?xml version="1.0" encoding="UTF-8"?>
<svg id="Layer_1" xmlns="http://www.w3.org/2000/svg" version="1.1" viewBox="0 0 460.8 259.2">
  <!-- Generator: Adobe Illustrator 30.2.1, SVG Export Plug-In . SVG Version: 2.1.1 Build 1)  -->
  <defs>
    <style>
      .st0, .st1 {
        fill: #fac5c5;
        opacity: .5;
      }

      .st1 {
        stroke: #fff;
        stroke-miterlimit: 10;
        stroke-width: .2px;
      }
    </style>
  </defs>
  <path id="_x30_8" class="st1" d="M161.2,50.9l-8,13.7-8.9-3.8c-1.4-.6-2.3-1.9-2.4-3.4l-1.8-34.8c-.1-2.4,2.5-4,4.6-2.7l34.5,22.1-3.8,6.5-4.9-3-4.8,8.4-4.5-2.9Z"/>
  <path id="_x30_1" class="st0" d="M188.2,149.9h-34.8c-1.8,0-3.2-1.4-3.2-3.2v-60.9c0-2.7,2.8-4.4,5.2-3.3l70,32.7-11.6,25.7-23.6-10.2-4.7,11.3,2.9,1v6.8Z"/>
  <path id="_x30_6" class="st0" d="M204.3,166.7v32.2c-.1,0,6.3,19.4,24,8.3,4.7-4.6,28.7-30.7,28.7-30.7,0,0,1.6-2,4.3-1.8,0-3.8-.3-4.8-.3-4.8l-11-5.5-4.4,11.7c-.6,1.6-2.4,2.3-4,1.6l-13.6-6.1-2.3,5.1-21.5-10Z"/>
  <path id="_x30_4" class="st0" d="M278.6,161.3l-17.1,8.3.2,5s3.8,0,5.4.9,8.8,4.5,11.4,4.2,11.1-4.7,11.2-4.9,1.6-1.3.8-4.1c1.4-.8,2.9-1.6,2.9-1.6l-.9-2.2-14-5.8Z"/>
  <path id="_x30_3" class="st0" d="M296,106.5l-13.4,16.8,7.5,6,26.4,11.9-6.2,13.5,4,1.9,9.9-22.1c1.1-2.4.4-5.3-1.7-7l-26.4-21Z"/>
  <path id="_x30_2" class="st0" d="M264,108.1l18.8,15.1,13.3-16.8-17.3-13.7c-3.1-2.4-7.6-1.3-9.2,2.3l-5.6,13.1Z"/>
</svg>