<?xml version="1.0" encoding="UTF-8"?>
<svg id="Layer_1" xmlns="http://www.w3.org/2000/svg" version="1.1" viewBox="0 0 460.8 259.2">
  <!-- Generator: Adobe Illustrator 30.2.1, SVG Export Plug-In . SVG Version: 2.1.1 Build 1)  -->
  <defs>
    <style>
      .st0 {
        fill: #fac5c5;
        opacity: .5;
      }
    </style>
  </defs>
  <path id="_x30_7" class="st0" d="M164.9,52.6l-4.2-2.7-8.4,13.7-8.8-3.7c-1.4-.6-2.3-1.9-2.4-3.4l-1.9-35.4c-.1-2.5,2.6-4.1,4.7-2.7l35,22.9-3.9,6.6-5.1-3.1-5,7.8Z"/>
  <path id="_x30_1" class="st0" d="M210.4,139.7l-20.9-9.6-5,11.6,3.3,1.3v6.9h-35.1c-1.8,0-3.3-1.5-3.3-3.3v-30.2c0-1.4,1.1-2.5,2.5-2.5h4.1v-25.5c0-2.3,2.4-3.8,4.5-2.9l61.6,28.1-11.7,26.1Z"/>
  <path id="_x30_3" class="st0" d="M245.2,155.7l-8.8,19.6-9.2-4.1-2.2,5-21.4-9.6v30.6c0,0,1.4,13.6,14.5,13.7,7.8,0,11.6-5.3,11.6-5.3l26-27.9-11.1-5.1,6.5-14.7-6-2.2Z"/>
  <path id="_x30_4" class="st0" d="M274.4,142.7l-23.2,15.3-6.5,14.7,11.1,5.1s3.1-3.4,7-3.1,12.2,4.7,13.2,4.8,2.2,1.3,7-1.3,7.4-3.3,7.7-4.9-.3-2.8-.3-2.8l2.9-1.2-1.1-2-15.2-6.8,6-14-8.7-3.8Z"/>
  <path id="_x30_6" class="st0" d="M300.4,109.2l-9.1,20.3,29.4,13,4.2-9.7s.8-3.3-2-5.5-22.5-18.1-22.5-18.1Z"/>
  <path id="_x30_5" class="st0" d="M259.2,116s1.9-2.4,2.5-3.9,5-11,8.2-18,5.9-4.5,8.8-2.1l21.6,17.3-12.2,26.7-9.7-4.6-19.3-15.4Z"/>
  <path id="_x30_2" class="st0" d="M222.4,113.6l-11.8,26.2,40.5,18.1,23.2-15.3,8.7,3.8,4.8-10.5-9.7-4.8-18.9-15.3s-7.3,7-13.5,6.3-23.3-8.6-23.3-8.6Z"/>
</svg>