<?xml version="1.0" encoding="UTF-8"?>
<svg id="Layer_1" xmlns="http://www.w3.org/2000/svg" version="1.1" viewBox="0 0 460.8 259.2">
  <!-- Generator: Adobe Illustrator 30.2.1, SVG Export Plug-In . SVG Version: 2.1.1 Build 1)  -->
  <defs>
    <style>
      .st0, .st1 {
        fill: #fac5c5;
        opacity: .5;
      }

      .st1 {
        stroke: #fff;
        stroke-miterlimit: 10;
        stroke-width: .2px;
      }
    </style>
  </defs>
  <path id="_x30_9" class="st1" d="M168.8,35.1l-16.8,28.5-9.5-4.3-2.6-37.4c-.2-2.4,2.5-4,4.5-2.7l24.4,15.9Z"/>
  <path id="_x30_1" class="st0" d="M153.4,93.9v53.2h31.9s1.8-.5,2.6-3.2c-2.5-1.4-2.8-1.6-2.8-1.6l5.2-11.2,13.1,5.9s1.8-2,3.8-.8,4.3,2,4.3,2l1.7-3.7-3.5-2.7c-1.4-1.1-2.5-2.7-3-4.4l-4.2-14.5c-.5-1.7-1.7-3.1-3.3-3.9l-40.2-18.6c-2.6-1.2-5.7.7-5.7,3.6Z"/>
  <path id="_x30_6" class="st0" d="M257.6,167.9l2.3,6.2s-2.8.9-5.3,3.7-26.9,29.2-27.1,29.2-6.3,5.5-14,1.6-7.5-10.2-7.5-10.2v-16.7s8.4,4.4,10.6,4.9,8.5,2.2,14.8-2.7c0,0,4.7-4.2,5.6-8,1.2.4,3.1,1.2,4.8,1.9s3.6,0,4.4-1.7l5-10.9,6.4,2.7Z"/>
  <path id="_x30_4" class="st0" d="M275.1,159.6l-17.1,8.3,2.3,6.1s3.5-1,6.3,0,6.3,3.8,9.3,2.7,17.4-8.5,17.4-8.5l-18.1-8.6Z"/>
  <path id="_x30_2" class="st0" d="M269.2,112.2l5-10.6c.8-1.8,3.2-2.3,4.7-1.1l13.5,10.9-9.3,11.7-13.8-10.9Z"/>
  <path id="_x30_3" class="st0" d="M316.3,140.7l-25.4-11.4-7.8-6.1,9.6-11.7,24.2,19.2s2.2,2.9,1.2,5.7-1.8,4.3-1.8,4.3Z"/>
</svg>