<?xml version="1.0" encoding="UTF-8"?>
<svg id="Layer_1" data-name="Layer 1" xmlns="http://www.w3.org/2000/svg" viewBox="0 0 1920 1080">
  <defs>
    <style>
      .cls-1 {
        fill: #edf900;
        opacity: .5;
      }
    </style>
  </defs>
  <path class="cls-1" d="M914.08,407.65h252.33v7.95h106.99v-5.85l61.7,1.87,16.64,173.35,8.32,243.19v1.7h-43.44l.06,6.08s-1.62,7.37-6.59,7.42-72.33,0-72.33,0c0,0-5.66-2.4-5.66-5.03s.06-9.12.06-9.12l-65.34.12v6.72s-.52,7.48-6.82,7.33-71.63-.26-71.63-.26c0,0-6.3-1.46-6.35-6.2s-.06-7.83-.06-7.83l-64.93.35-.17,6.96s.69,6.72-5.95,6.72-72.61,0-72.61,0c0,0-5.2-2.16-5.55-5.73s-.17-8.07-.17-8.07h-64.76v7.19s.23,6.55-5.83,6.49c-6.07-.06-72.44-.18-72.44-.18,0,0-5.83-.88-5.95-5.61l-.12-4.74v-2.86l-70.25-.23v-47.18l201.65.47-.79-375.04Z"/>
</svg>