<?xml version="1.0" encoding="UTF-8"?>
<svg id="Layer_1" data-name="Layer 1" xmlns="http://www.w3.org/2000/svg" viewBox="0 0 4615 2597">
  <defs>
    <style>
      .cls-1, .cls-2 {
        fill: #f9ff00;
        opacity: .5;
      }

      .cls-2 {
        stroke: #000;
        stroke-miterlimit: 10;
      }
    </style>
  </defs>
  <polygon id="Ground_floor" class="cls-2" points="2537.61 2295.7 2357.61 2295.7 1913.87 2295.7 1913.87 2402.7 2349.78 2413.65 2537.61 2400.35 2537.61 2295.7"/>
  <polygon id="floor_1" class="cls-1" points="2537.61 2296.7 2537.61 2209.96 2346.52 2201.74 1913.87 2226.74 1913.87 2296.7 2357.61 2296.7 2537.61 2296.7"/>
  <polygon id="floor_2" class="cls-1" points="2537.61 2209.96 2537.61 2138.35 2348.87 2118.78 1913.87 2163.87 1913.87 2226.96 2343 2202.96 2537.61 2209.96"/>
  <polygon id="floor_3" class="cls-1" points="2537.61 2138.35 2537.61 2048.96 2352.91 2024.96 1913.87 2086.48 1913.87 2163.87 2348.87 2118.78 2537.61 2138.35"/>
  <polygon id="floor_4" class="cls-1" points="2539.61 2047.83 2539.61 1956.43 2352.91 1916.43 1913.87 2005.96 1913.87 2086.35 2348.87 2026.26 2539.61 2047.83"/>
  <polygon id="floor_5" class="cls-1" points="2539.61 1955.7 2539.61 1881.3 2352.91 1841.3 1913.87 1961.83 1913.87 2005.22 2348.87 1917.13 2539.61 1955.7"/>
  <polygon id="floor_6" class="cls-1" points="2538.61 1879.09 2538.61 1790.7 2351.91 1752.7 1915.87 1915.22 1915.87 1961.61 2347.87 1840.52 2538.61 1879.09"/>
  <polygon id="floor_7" class="cls-1" points="2541.22 1790 2541.22 1706.61 2354.52 1667.61 1915.48 1858.13 1915.48 1914.52 2350.48 1752.43 2541.22 1790"/>
  <polygon id="floor_8" class="cls-1" points="2541.22 1705.74 2541.22 1631.35 2349.52 1575.35 1914.48 1801.87 1914.48 1859.26 2350.48 1667.17 2541.22 1705.74"/>
  <polygon id="floor_9" class="cls-1" points="2538.61 1629.48 2538.61 1548.09 2351.91 1476.09 1912.87 1732.61 1912.87 1803 2347.87 1575.91 2538.61 1629.48"/>
  <polygon id="floor_10" class="cls-1" points="2540.22 1548.65 2540.22 1467.26 2354.52 1386.26 1914.48 1661.78 1914.48 1732.17 2350.48 1476.09 2540.22 1548.65"/>
  <polygon id="floor_11" class="cls-1" points="2543.09 1467.7 2543.09 1373.3 2351.39 1293.3 1915.35 1587.83 1915.35 1660.22 2356.35 1387.13 2543.09 1467.7"/>
  <polygon id="floor_12" class="cls-1" points="2544.09 1373.65 2539.09 1295.26 2355.39 1194.26 1915.35 1515.74 1915.35 1586.13 2351.35 1294.09 2544.09 1373.65"/>
  <polygon id="floor_13" class="cls-1" points="2541.11 1297.35 2540.11 1214.96 2358.41 1104.96 1915.37 1443.43 1915.37 1513.83 2354.37 1194.78 2541.11 1297.35"/>
  <polygon id="floor_14" class="cls-1" points="2541.93 1216.04 2538.93 1137.65 2359.24 1023.65 1915.2 1371.13 1915.2 1441.52 2355.2 1106.48 2541.93 1216.04"/>
  <polygon id="floor_15" class="cls-1" points="2541.11 1139.04 2541.11 1063.63 2352.84 951.59 1915.63 1325.29 1915.2 1371.13 2359.24 1023.65 2541.11 1139.04"/>
  <polygon id="floor_16" class="cls-1" points="2541.11 1063.63 2541.11 980.17 2356.88 851.77 1916.84 1251.78 1916.84 1322.17 2352.84 951.59 2541.11 1063.63"/>
  <polygon id="floor_17" class="cls-1" points="2542.11 980.57 2541.11 894.15 2352.84 782.12 1915.63 1168.81 1916.2 1250.65 2357.24 852.17 2542.11 980.57"/>
  <polygon id="floor_18" class="cls-1" points="2541.11 894.15 2541.11 823.7 2356.88 682.29 1915.84 1098.3 1915.84 1168.7 2352.84 782.12 2541.11 894.15"/>
  <polygon id="floor_19" class="cls-1" points="2541.11 823.7 2541.37 737.96 2360.61 596.96 1915.84 1052.91 1915.84 1098.3 2356.1 682.38 2541.11 823.7"/>
  <polygon id="floor_20" class="cls-1" points="2540.5 737.76 2540.5 667.3 2366.27 495.9 1915.84 999.19 1915.84 1051.58 2362.23 595.72 2540.5 737.76"/>
  <polygon id="floor_21" class="cls-1" points="2540.5 666.3 2540.77 571.57 2349 406.57 1915.84 974.8 1915.84 999.19 2365.5 495.99 2540.5 666.3"/>
  <path id="terrace" class="cls-1" d="M2540.77,571.57l-7.85-36.3-138.52-230.09s-25.83-27.39-44.61-41.48c0,0-25.04,18.78-46.17,61.83l-208.17,396.78-20.35-9.39-159.89,242.61.64,19.28,214.56-281.46,218.61-286.77,191.77,165Z"/>
</svg>