<?xml version="1.0" encoding="UTF-8"?>
<svg id="Layer_1" data-name="Layer 1" xmlns="http://www.w3.org/2000/svg" viewBox="0 0 1920 1080">
  <defs>
    <style>
      .cls-1 {
        fill: #f3ff00;
        opacity: .5;
      }
    </style>
  </defs>
  <path class="cls-1" d="M915.25,407.53l252.97.22v8.27l107.87-1.34v-4.69l62.57.45,14.35,159.94,10.99,255.1h-43.96l-.67,6.03s1.12,5.81-6.95,6.25-71.54,0-71.54,0c0,0-7.62-1.56-6.95-6.25l.67-4.69-65.71-1.12s0,11.79-6.73,12.26-4.26.92-6.73.47-65.04.18-65.04.18c0,0-7.18,3.84-7.18-12.69l-59.88-.67.22-268.95-108.32.67v-149.44Z"/>
</svg>