<?xml version="1.0" encoding="UTF-8"?>
<svg xmlns="http://www.w3.org/2000/svg" version="1.1" xmlns:xlink="http://www.w3.org/1999/xlink" viewBox="0 0 1672 941">
  <!-- Generator: Adobe Illustrator 29.8.3, SVG Export Plug-In . SVG Version: 2.1.1 Build 3)  -->
  <defs>
    <style>
      .st0 {
        fill: #ceff00;
        opacity: .5;
      }
    </style>
  </defs>
  <g id="Layer_1">
    <image width="1672" height="941" xlink:href="../../Notan_crown_.png"/>
  </g>
  <g id="terrace">
    <path class="st0" d="M799.7,394v-18.8l102.4-137.2s4.2-3.7,19.3,0,113.3,41.2,113.3,41.2c0,0,32.1,2.1,57-21.4s106.2-98.6,106.2-98.6c0,0,45.9-30.8,77.2-21.4,0,0,37,8.9,34.7,28.7l-1.8,27.5s-16.4-26.7-60.7-18.8,0,0,0,0c0,0-45,10-73.6,39.5s0,0,0,0l-58.6,56.9s-36.9,38.6-61.3,34.8c0,0-5.7,9.8-41.7-1.7s-88.4-34-88.4-34c0,0-18.7-10.5-31.4,5.7l-92.7,117.6"/>
  </g>
  <g id="floor_x5F_20">
    <path class="st0" d="M799.7,415v-21l94.7-120.1s11.7-11.7,37.6,0,95.9,32.5,95.9,32.5c0,0,25.4,7,56.7-11.3s89.2-80.2,89.2-80.2c0,0,32.5-34,73.6-39.5,0,0,49.3-6.7,60.7,18.8l1.8,29.7s-.7-17.6-41.7-19.5c0,0-54.5-3.5-105.5,45.6l.9,20.5-45.8,33.7-26,5.5s-22.1,26.8-62.5,19.3l-106.3-35.2s-16.2-5.6-27.4-.1,0,0,0,0l-95.7,121.5"/>
  </g>
  <g id="floor_x5F_19">
    <path class="st0" d="M799.7,435.7v-20.7l95.7-121.5s13.3-5.5,36,2.7,94.3,32.1,94.3,32.1c0,0,36.8,7.4,65.9-18.8,2.2.4,19-8.2,26-5.5l45.8-33.7s-3.1-20.3,0-21.9,34-33.7,65-40.7,76.7-4.3,81.4,16l-1.8,32.5s-2.2-25.4-70.4-16.4,0,0,0,0l-73.2,39.5s-2.2,17.9-6.3,19.3,0,0,0,0l-18.8-2.5-53,44.7s-19.7,15.6-55.4,18.1,0,0,0,0l-113.4-39-21.2-.5-96.7,116.2"/>
  </g>
  <g id="floor_x5F_18">
    <path class="st0" d="M799.7,459.4v-23.7l96.7-116.2s14.5-3.3,33.7,4.1,72,23.9,72,23.9c0,0,25.8,12.5,29,11.5s37.2-2.5,59.1-20.9,49.3-41.9,49.3-41.9c0,0,16.8-2.1,18.8,2.5s6.3-19.3,6.3-19.3c0,0,48.9-36,73.2-39.5s63.4-3.9,70.4,16.4v25.1s-13.5-21.8-58-17.9c0,0-46.4,8-86.1,44.7s0,0,0,0l-5.2,21.1-18.3-1-42.3,33.2s-33.1,33.9-67.3,22.2l-24.6-5.3-6.9-5.5-82.2-27.1s-9.4-5.7-18.8,1.6,0,0,0,0l-57.8,67.8-40.8,44.4Z"/>
  </g>
  <g id="floor_x5F_17">
    <path class="st0" d="M840.5,435.7v-22.8l57.8-65.7s8.1-4.7,18.8-1.6,82.2,27.1,82.2,27.1c0,0,2.3,4.7,8.6,6s39.1,11,60.8,3.7,31-23.4,31-23.4c0,0,38.3-30.3,40.7-30.8s15.9,1,18.3,1,5.2-21.1,5.2-21.1c0,0,39.4-33.7,62.9-40.2s50.6-7.6,66,0,16.7,14.9,15.9,20.3,26.6,2.1,26.6,2.1c0,0,11.2,10.4,15.9,11.2s9.7,17.9,9.7,17.9v22.8s-7.2-27.1-53.4-22.8,0,0,0,0v-8s-7.7-18.7-50.7-12.5c0,0-36-.2-67.7,21.9l-19.6,14.6-27.9,16.2-50.1,38.6-2.1,20.3s-17.7,10.5-62.1,9.9,0,0,0,0l-24-9.9v-12.5l-103.3-26.1-59.5,63.7"/>
  </g>
  <g id="floor_x5F_16">
    <path class="st0" d="M840.5,435.7l59.5-63.7,103.3,26.1v12.5s22.4,8.9,24,9.9,60.5-3.1,62.1-9.9,2.1-20.3,2.1-20.3l50.1-38.6,29.7-17.2s32.3-29.2,64.2-33.4,64.2-4.2,72,10.4v8s27.7-5.9,38.1,5.1,15.3,17.7,15.3,17.7v24.5s-8.9-2.5-9.5-4.9-.8-6.6-2.2-7.3-12.8-12.8-18.6-13.9-10.2-.2-16.6,1.5-6.5-10.7-8.3-10.6-8.4-9.6-15-10.6-59.3,1.6-68.8,7.8-58,35.6-58,35.6l-2,12.5h-13.3l-52,36-13.7,19.2-32.5,7.4s-17,4.2-48.9-6.2,0,0,0,0l-2.7-11.3-80.4-19.8s-14.8-3.4-22.2.7,0,0,0,0c0,0-74.2,74.6-73.6,74s17.8-21.4,17.8-21.4v-19.7Z"/>
  </g>
  <g id="floor_x5F_15">
    <path class="st0" d="M708.6,586.6v-21l40.4-34.8,15.7-2.7,34.8-32.1h17.6l5.5-19.2,73.6-74s7.8-3.9,25.4,0,77.1,19.2,77.1,19.2l2.7,11.3s29.3,8.6,43,7,38.3-8.2,38.3-8.2l13.7-19.2,52-36h13.3l2-12.5,59.9-36.8s52-12.5,66.9-6.7,17.6,14.1,18.8,20,12.5-5.5,22.3.4,20,12.9,18.8,17.6,10.4,7.8,10.4,7.8v17.6l-15.9-6.8s-20.4,4.3-47.6-13.5c0,0-26.8-11.3-57.3-3.8s0,0,0,0l-75.1,33.4-6.8,16.7-15.1-4.2-45.4,31.9s-23,16.4-42.6,15.6l-22.3-1.2-36.8-4.3-95.5-21.1-83,78.3h-17.2l-91.6,81.1"/>
  </g>
  <g id="floor_x5F_14">
    <path class="st0" d="M710.8,599.5l-2.2-12.9,91.6-81.1h17.2l83-78.3,99.7,21.1s39.1,5.6,45.4,5.6-.5,0,6.3,0,26.1,0,51.7-19.8,39.7-27.7,39.7-27.7l15.1,4.2,6.8-16.7s69.9-33.4,75.1-33.4,47.5-5.7,60,5.7,44.9,11.5,44.9,11.5l15.9,6.8v31.9l-9.5-6.7s-1.1-19.7-18.1-18.6l-26.1-1.4v9.4s-7-13.2-28.8-13.6c0,0-50.4,2.3-71,11.3s0,0,0,0l-115.8,71.2-.8,14.5-48.9,11.7s-32.8-5-46.2-11.7,0,0,0,0v10.2l-87.8-17.6-33.5-.7-55.2,53.2-15.8-1.9-92.5,73.9"/>
  </g>
  <g id="floor_x5F_13">
    <path class="st0" d="M710.5,618.6l.4-19,89.6-73.9,18.8,1.9,55.2-53.2h29.7l91.6,18.4v-10.2s35.6,14.9,46.2,11.7,48.9-11.7,48.9-11.7l.8-2.7v-11.7l115.8-71.2s51.7-18,73.6-10.6c0,0,25,3.5,26.2,12.9v-9.4s48.1-4.3,44.2,20l9.5,6.7v44.9l-8.5-5.2s.7-18.9-41.2-17,0,0,0,0c0,0-3.8-20.6-22.8-20.7l-21.4-3.4-48.7,9.5-123.4,68.3-2.6,5.6-43.6,7.8-50.3-2.6-87.1-21-17,3-76.2,63.7-16.7-1.2-90.8,70.6"/>
  </g>
  <g id="floor_x5F_12">
    <path class="st0" d="M710.5,636.2v-17.6l90.8-70.6,16.7,1.2,76.2-63.7s15.7-2.9,17-3,87.1,21,87.1,21c0,0,47.5,2.3,50.3,2.6s43.6-7.8,43.6-7.8c0,0-.8-5,8.3-9.7s100.7-60.5,117.7-64.2,37.6-12.3,57.1-8.6,36.8,6.3,35.7,23.2l22.7,1s19.6,5.5,18.5,15.9l8.5,5.2v21.3l-15.4-15.1s-14.8-9-37.3-6,0,0,0,0c0,0-24-23.4-87.4-5.9l-127.6,64-7.3,28.5-37.6,3.1v-13.6l-149.2-26.1-103.8,78.8-9.4,19.3-39.7,4.7-35.8,21.9"/>
  </g>
  <g id="floor_x5F_11">
    <path class="st0" d="M710.5,654.1v-17.9l35.8-21.9,39.7-4.7,9.4-19.3,103.8-78.8,149.2,26.1v13.6l37.6-3.1,7.3-28.5,125.2-63.4s70.4-20.9,89.7,5.2c0,0,36.5,0,40.2,9.1l12.5,12v27.2l-10.4-11.3-38.3-8.2-3.5,7.4s.3-8-4.3-9.5-16.4-14.4-86.1-.2l-126.7,60.1v9.8l-21.1,7h-25.8l-142-25.4-105.7,70.1-11.3,18.1-35.2,1.9-39.7,24.7"/>
  </g>
  <g id="floor_x5F_10">
    <path class="st0" d="M709.5,673.6l1-19.4,39.7-24.7,35.2-1.9,11.3-18.1,105.7-70.1,142,25.4h25.8l21.1-7v-9.8l125.2-59.8s96.2-17.7,92,9.4l3.5-7.4s31.3,1.2,38.3,8.2,10.4,11.3,10.4,11.3v42.9l-19-12.7-31.5,1-.2-10s-7.3-9.1-15.8-10.2-53.5-.3-53.5-.3l-13.4,2.3-133.8,54.6-.8,5.3-44.6,8.8s-.7-5.6-2.2-5.9-134.4-22.3-134.4-22.3c0,0-15,.7-22.9,7s-90.6,62.2-90.6,62.2l.8,10.4-5.1,7.8-42.8-2.3-41.5,25.2"/>
  </g>
  <g id="floor_x5F_9">
    <path class="st0" d="M710.5,691l40.3-22.3h44.6l2-16.4,105.7-57.9,143.2,15.2v11l23.5-.8,32.5-7.8-7.8-13.7,125-46.5s97.3-13.1,91.8,11.7,0,0,0,0l28.6,2s20.9,4.7,2.7,18.4,0,0,0,0h0v4.7l11,9.4,12.5.8-5.1-46-19-12.7-31.5,1-.2-10s-4.3-11.9-29.5-11.3-41.1,0-50.3,2.2-136.8,55.6-136.8,55.6l-.8,5.3-44.6,8.8s1.4-5.3-2.2-5.9-134.4-22.3-134.4-22.3c0,0-10.6-1.2-22.9,7s-90.6,62.2-90.6,62.2l.8,10.4-5.1,7.8-42.8-2.3-41.5,25.2,1,17.4"/>
  </g>
  <g id="floor_x5F_8">
    <path class="st0" d="M710.8,707.2l-.4-16.2,40.3-22.3h44.6l2-16.4,105.7-57.9,143.2,15.2v11l23.5-.8s33.7-8.2,32.5-7.8-7.8-13.7-7.8-13.7l122.5-46.2s101-14.5,94.3,11.3l28.6,2s16,4.7,7.8,13.3l-5.1,5.1v4.7l11,9.4,12.5.8-7.4,10.9,2.3,9.2-43-6-13.8-10.4s-3.3-9.5-2.9-11.5,0,0,0,0c0,0-17.7-6.4-79.6-1.3-67.1,5.5,0,0,0,0l-118.2,38.3-55.4,11.5-45.2-9.4-104.7-11-128.9,69.3-16.4-2.3-41.9,21.3"/>
  </g>
  <g id="floor_x5F_7">
    <path class="st0" d="M710.8,730.3v-23.1l41.9-21.3,16.4,2.3,128.9-69.3,104.7,11,45.2,9.4,55.4-11.5,118.2-38.3s78.3-7.3,79.6,1.3,2.9,11.5,2.9,11.5l13.8,10.4,43,6v29.5l-7.6-.3s-2.4-6.7-7.8-7.8-39.5-1.1-39.5-1.1l.9-11.7s3.9-11.9-6.4-13.5-25.5-9.8-76.6-.9l-131.2,41.3s-52.7,13.5-112.6.5c-57.7-12.5,0,0,0,0l-106.8,6.9-162.4,68.6"/>
  </g>
  <g id="floor_x5F_6">
    <path class="st0" d="M710.8,744.1v-13.8l162.4-68.6,106.8-6.9s68.1,16,126.4-4.7,119-37.6,119-37.6c0,0,93.7-12.8,81.4,14.9l-1,13,39.7-.3s7.6,3.1,7.8,7.8l7.6.3v18.7l-22.4-7.2-32.2,1.4.7-10s-2.2-4.1-7-5.3-62.4-5.9-77.4.2l-74.2,19.1-65,17.4s-45.1,6.6-68.2,2l-119.6-10.1-49.2,21.2-17.4,1.8-118.2,46.6"/>
  </g>
  <g id="floor_x5F_5">
    <path class="st0" d="M1360.8,694.8h-5.8c0,.1-1.8.2-3-1.8s-1.4-2.1-1.4-2.1l-6.8-1.9-36-1.1s2.7-7.5-3.6-9.1-19-2.9-19-2.9l-66.8,2.4-126.5,29.6s-53.6,10.6-74.9,2.8,0,0,0,0h0l-120.3-8.2-55.6,19.4v16.2l-29.2,10.8h-66.1l-35.4,12.5.4-17.5,118.2-46.6,17.4-1.8,49.2-21.2,135.5,11.5s34.8,2,63-5.9,111.1-30.5,111.1-30.5c0,0,34.2-8.2,54.5-6.4,0,0,49.8-3.3,47.2,10.3,0,0-1.7,7.7-.8,7.7s32.2-1.4,32.2-1.4c0,0,8.5,2.1,11.9,3.9s10.5,3.3,10.5,3.3v27.9"/>
  </g>
  <g id="floor_x5F_4">
    <path class="st0" d="M709.5,777.9l1-16.3,35.4-12.5h66.1l29.2-10.8v-16.2l55.6-19.4,120.3,8.2s26.2,7.8,83-4.5l56.7-12.3,61.6-15.7s92.7-8.8,90.2,5.3l-.8,4.3,35.2,1s9.8,1.2,9,4.1,8.8,1.8,8.8,1.8v24.1l-3.8-.7-7.3-3.3-41.7-3-2.2-2.2h-93.5l-120,23.9-79,3.9-115.4-7.4-78.8,22.4,14.3,7.4-21.5,4.3-63.7,3.8-38.6,9.7"/>
  </g>
  <g id="floor_x5F_3">
    <path class="st0" d="M1356.4,767.3l-18.1-3.7h-31.6l.5-19.6h-78.5l-134.9,20.3-.5,10.2-33.4.3-.3-11-154.2-6-71.2,10.6-113.7,27-12,3.7.9-21.3,38.6-9.7,63.7-3.8,21.5-4.3-14.3-7.4,78.8-22.4,115.4,7.4,79-3.9,120-23.9s74.9-5.9,93.5,0l2.2,2.2,41.7,3,7.3,3.3-.6,49"/>
  </g>
  <g id="floor_x5F_2">
    <path class="st0" d="M719.1,813.8l128.5-19.8.2,4.3,57.9-8.4,144.6,2.9,39.5.3,147.5-15,37.4-1.5,32.9,1.4-1.4,13.5,50.2,1.4s0-25.6,0-25.6-18.1-3.7-18.1-3.7h-31.6l.5-19.6h-78l-135.4,20.3-.5,10.2-33.4.3-.3-11-154.2-6-69.5,10.2-115.4,27.4-1.5,18.3Z"/>
  </g>
  <g id="floor_x5F_1">
    <path class="st0" d="M719.1,813.8v21l178.3-14.1,156.1,1.3,155.3-8.6s49.1-3.7,60.3-2.1,87.3,2.6,87.3,2.6v-21.1l-50.2-1.4,1.4-13.5-32.9-1.4-49.5,2-135.4,14.5-114.8-.8-69.3-2.3-57.9,8.4-.2-4.3-128.5,19.8Z"/>
  </g>
  <g id="Ground_x5F_floor">
    <polygon class="st0" points="711.8 835.4 903.5 820.3 1061.1 822.1 1111.7 820.3 1245.5 810.9 1305.3 812.2 1356.4 814 1356.4 869.8 906.1 866.2 713.1 863 711.8 835.4"/>
  </g>
</svg>