<!DOCTYPE svg PUBLIC "-//W3C//DTD SVG 1.1//EN" "http://www.w3.org/Graphics/SVG/1.1/DTD/svg11.dtd">
<!-- Uploaded to: SVG Repo, www.svgrepo.com, Transformed by: SVG Repo Mixer Tools -->
<svg fill="#000000" height="800px" width="800px" version="1.1" id="Layer_1" xmlns="http://www.w3.org/2000/svg" xmlns:xlink="http://www.w3.org/1999/xlink" viewBox="0 0 479.999 479.999" xml:space="preserve" stroke="#000000" stroke-width="0.0047999900000000005">
<g id="SVGRepo_bgCarrier" stroke-width="0"/>
<g id="SVGRepo_tracerCarrier" stroke-linecap="round" stroke-linejoin="round" stroke="#CCCCCC" stroke-width="6.719986000000001"> <g> <g> <g> <path d="M478.251,411.585c-27.303-39.907-60.752-61.943-99.418-65.496c-62.273-5.719-118.855,38.379-138.493,55.736 c-40.145-37.662-81.996-55.505-124.494-53.061C47.885,352.675,3.998,407.08,2.163,409.394 c-3.428,4.323-2.703,10.598,1.614,14.033c4.317,3.435,10.606,2.717,14.046-1.594c0.397-0.497,40.409-49.813,99.349-53.111 c38.952-2.173,77.969,15.975,115.95,53.956c1.876,1.876,4.419,2.929,7.071,2.929c0.004,0,0.007,0,0.011,0 c2.655-0.003,5.201-1.062,7.075-2.944c0.626-0.628,63.323-62.753,129.724-56.658c32.451,2.982,60.963,22.117,84.742,56.873 c1.937,2.832,5.072,4.355,8.262,4.355c1.945,0,3.911-0.566,5.638-1.747C480.203,422.367,481.37,416.144,478.251,411.585z"/> <path d="M46.586,153.23c0.329,0.043,33.425,4.459,73.734,20.003c36.694,14.149,87.139,40.717,119.072,86.931 c1.901,2.753,5.003,4.316,8.228,4.316c0.976,0,1.963-0.143,2.931-0.44c4.167-1.278,7.026-5.107,7.068-9.465 c0.004-0.419,0.579-42.322,16.156-85.946c20.312-56.88,55.352-89.165,104.148-95.957c5.47-0.761,9.287-5.813,8.525-11.283 c-0.762-5.471-5.814-9.29-11.283-8.526c-55.961,7.789-97.534,45.495-120.226,109.04c-8.896,24.913-13.225,49.008-15.33,66.363 c-27.558-30.705-65.981-55.987-112.591-73.886c-42.467-16.308-76.451-20.804-77.877-20.987 c-5.465-0.703-10.482,3.162-11.189,8.637C37.245,147.507,41.112,152.519,46.586,153.23z"/> </g> </g> </g> </g>
<g id="SVGRepo_iconCarrier"> <g> <g> <g> <path d="M478.251,411.585c-27.303-39.907-60.752-61.943-99.418-65.496c-62.273-5.719-118.855,38.379-138.493,55.736 c-40.145-37.662-81.996-55.505-124.494-53.061C47.885,352.675,3.998,407.08,2.163,409.394 c-3.428,4.323-2.703,10.598,1.614,14.033c4.317,3.435,10.606,2.717,14.046-1.594c0.397-0.497,40.409-49.813,99.349-53.111 c38.952-2.173,77.969,15.975,115.95,53.956c1.876,1.876,4.419,2.929,7.071,2.929c0.004,0,0.007,0,0.011,0 c2.655-0.003,5.201-1.062,7.075-2.944c0.626-0.628,63.323-62.753,129.724-56.658c32.451,2.982,60.963,22.117,84.742,56.873 c1.937,2.832,5.072,4.355,8.262,4.355c1.945,0,3.911-0.566,5.638-1.747C480.203,422.367,481.37,416.144,478.251,411.585z"/> <path d="M46.586,153.23c0.329,0.043,33.425,4.459,73.734,20.003c36.694,14.149,87.139,40.717,119.072,86.931 c1.901,2.753,5.003,4.316,8.228,4.316c0.976,0,1.963-0.143,2.931-0.44c4.167-1.278,7.026-5.107,7.068-9.465 c0.004-0.419,0.579-42.322,16.156-85.946c20.312-56.88,55.352-89.165,104.148-95.957c5.47-0.761,9.287-5.813,8.525-11.283 c-0.762-5.471-5.814-9.29-11.283-8.526c-55.961,7.789-97.534,45.495-120.226,109.04c-8.896,24.913-13.225,49.008-15.33,66.363 c-27.558-30.705-65.981-55.987-112.591-73.886c-42.467-16.308-76.451-20.804-77.877-20.987 c-5.465-0.703-10.482,3.162-11.189,8.637C37.245,147.507,41.112,152.519,46.586,153.23z"/> </g> </g> </g> </g>
</svg>