<!DOCTYPE svg PUBLIC "-//W3C//DTD SVG 1.1//EN" "http://www.w3.org/Graphics/SVG/1.1/DTD/svg11.dtd">
<!-- Uploaded to: SVG Repo, www.svgrepo.com, Transformed by: SVG Repo Mixer Tools -->
<svg width="800px" height="800px" viewBox="0 0 400 400" fill="none" xmlns="http://www.w3.org/2000/svg" transform="matrix(1, 0, 0, 1, 0, 0)">
<g id="SVGRepo_bgCarrier" stroke-width="0"/>
<g id="SVGRepo_tracerCarrier" stroke-linecap="round" stroke-linejoin="round" stroke="#CCCCCC" stroke-width="0.8"/>
<g id="SVGRepo_iconCarrier"> <path d="M220.834 34C192.114 112.977 165.587 197.056 118.632 267.644C115.859 271.81 93.6893 300.065 95.4753 303.649C96.2613 305.225 123.514 294.565 126.614 294.049C154.085 289.458 186.625 295.479 212.847 302.048" stroke="#000000" stroke-opacity="0.9" stroke-width="6.8" stroke-linecap="round" stroke-linejoin="round"/> <path d="M222.183 39.3965C239.934 129.776 222.953 221.733 222.953 311.903" stroke="#000000" stroke-opacity="0.9" stroke-width="6.8" stroke-linecap="round" stroke-linejoin="round"/> <path d="M242.742 110.896C255.726 179.101 247.963 245.97 228.928 311.902" stroke="#000000" stroke-opacity="0.9" stroke-width="6.8" stroke-linecap="round" stroke-linejoin="round"/> <path d="M242.418 118.99C271.634 175.716 300.427 242.775 300.427 307.856" stroke="#000000" stroke-opacity="0.9" stroke-width="6.8" stroke-linecap="round" stroke-linejoin="round"/> <path d="M232.975 304.762C255.403 299.129 272.032 304.198 290.983 315.949" stroke="#000000" stroke-opacity="0.9" stroke-width="6.8" stroke-linecap="round" stroke-linejoin="round"/> <path d="M94.0234 334.836C165.065 328.376 237.876 339.889 305.823 317.299" stroke="#000000" stroke-opacity="0.9" stroke-width="6.8" stroke-linecap="round" stroke-linejoin="round"/> <path d="M308.521 324.043C306.065 331.934 302.677 338.96 297.729 345.628" stroke="#000000" stroke-opacity="0.9" stroke-width="6.8" stroke-linecap="round" stroke-linejoin="round"/> <path d="M92 340.232C92 346.078 92 351.924 92 357.77" stroke="#000000" stroke-opacity="0.9" stroke-width="6.8" stroke-linecap="round" stroke-linejoin="round"/> <path opacity="0.503384" d="M98.0703 362.076C100.77 360.199 105.672 356.48 109.115 356.48C116.875 356.48 123.729 367.371 132.055 363.943C136.409 362.147 138.728 355.572 143.95 354.613C152.751 353.006 185.23 367.346 188.98 364.877C194.745 361.077 228.782 356.48 248.173 363.943C255.862 366.902 291.77 349.948 297.728 351.817" stroke="#000000" stroke-opacity="0.9" stroke-width="6.8" stroke-linecap="round" stroke-linejoin="round"/> <path d="M137.193 319.762C142.107 295.621 208.692 296.057 208.692 325.393" stroke="#000000" stroke-opacity="0.9" stroke-width="6.8" stroke-linecap="round" stroke-linejoin="round"/> </g>
</svg>