<?xml version="1.0" encoding="UTF-8"?>
<svg id="Layer_1" data-name="Layer 1" xmlns="http://www.w3.org/2000/svg" viewBox="0 0 1024 1024">
  <defs>
    <style>
      .cls-1 {
        fill: #4f5479;
      }
    </style>
  </defs>
  <path class="cls-1" d="M708.42,540.06c5.93-2.63,11.22-6.84,17.31-9.18,6.39-2.45,16.49-5.88,21.13,1.22,6.73,10.28-12.24,24.55-20.43,28.49-4.18,2.01-11.79,2.41-12.12,6.96,1.79,16.34,4.38,32.56,7.41,48.7,1.11,5.92,6.6,37.16,9.72,39.27,7.41,4,23.02-6.96,23.92,6.16s-10.23,15.04-16.01,21.82c-2.89,3.39-2.26,9.53-1.93,14.04,2.79,37.86,37.36,90.18,2.51,120.54-7.27,6.33-26.73,20.83-34.99,10.94l-143.1-262.02c-2.26-.16-14.92,10.34-17.46,12.55-22.88,19.91-42.7,44.25-64.97,65.03-18.1,16.88-38.07,31.85-55.5,49.5-3.19,33.51,11.25,65.8,15.34,98.62,2.2,17.67,3.76,40.23-19.44,43.27-21.49,2.82-27.6-6.44-36.59-23.24-9.76-18.24-16.58-38.72-25.97-57.03-2.49-4.85-4.01-9.57-10.4-9.69-5.42-.1-7.93,1.84-14.45-.46-16.34-5.76-8.88-27.3-17.5-34.5-3.09-2.58-11.74-6.2-15.84-8.16-18.84-9.03-71.89-27.46-81.67-44.33-7.93-13.67,13.32-37.44,26.56-39.43,25.18-3.78,60.9,11.31,86.95,13.92,4.91.49,14.67,1.28,18.89-1.09l129.59-149.4-299.97-173.99c13.62-17.31,29.28-39.4,54.39-36.41,82.5,19.37,166.32,33.94,247.14,59.67,1.99-.29,8.2-16.51,10.51-18.23,3.08-2.29,13.43-3.1,17.23-2.32,13,2.68,9.76,21.2,19.34,25.66,10.16,4.73,30.98,8.84,42.57,11.43,7.66,1.71,15.33,3.5,23.12,4.51,7.87-6.37,15.81-12.91,23.23-19.8,48.1-44.69,88.12-101.96,146.8-134.2,18.68-10.26,34.64-16.2,55.65-6.31,33.12,15.59,28.52,56.33,14.88,83.84-30.86,62.23-95.66,106.9-139.26,159.6l13.41,104.04ZM676.4,449.07l-58.65,48.83c-2.31,3.29-13.56,2.06-13.17-2.14,1.71-4.07,4.9-7.86,7.81-11.21,29.26-33.77,69.15-65.93,101.55-97.45,32-31.13,106.7-102.47,111.35-146.65,2.93-27.8-16.32-35.7-40.66-29.66-37.61,9.33-99.61,76.18-127.73,105.27-68.16,70.51-140.9,147.29-203.46,222.54-24.67,29.67-59.07,83.95-88.54,105.46-31.85,23.25-75.84-10.8-113.97-6.97-7.89.79-17.03,7.18-12.99,15.98,1.36,2.96,17.28,10.95,21.12,12.87,21.17,10.55,44.26,18.7,66.06,27.95l41.75-38.86,4.63-.52c2.65,4.05-.36,8.36-2.27,11.88-9.12,16.8-35.9,36.54-28.26,58.66.43,1.25,1.05,4.32,2.78,3.89,5.76-1.43,17.66-9.46,22.99-13.04,64.85-43.6,114.98-106.93,172.67-158.33,4.89-4.36,26.34-23.87,31.55-23.34,3.03,4.48,3.01,10.48,4.98,15.84,3.49,9.49,11.08,22.69,15.97,32.03,21.06,40.3,46.27,78.5,67.04,118.96,14.17,27.6,25.57,56.9,41.31,83.69,3.28,5.58,12.64,22.4,18.75,23.29,6.39.93,14.01-4.87,16.22-10.67,6.4-16.85-7.86-62.76-11.47-82.11-.9-4.82-.86-17.94-4.48-20.03-2.85-1.65-16.48,11.58-20.51,13.67-4.08,2.12-9.11,4.36-13.28,1.62-6.11-4.03-1.98-7.55,2.04-10.86,6.59-5.43,28.87-15.32,28.94-24.05l-22.73-103.32-17.3-123.21ZM349.41,318.07c-32.08-6.24-63.41-18.84-95.79-23.72-13.49-2.03-46.99-6.78-44.7,14.71l284.18,155.85,87.21-89.55-3.84-5.83-210.48-48.29-21.58,27.82,91.93,45.58c4.9,2.95,3.98,8.97-1.65,10.22-6.27,1.39-12.78-4.32-18.61-6.96-21.65-9.81-44.89-18.41-66.04-28.96-4.6-2.3-17.34-7.74-17.52-13.32-.24-7.62,18.36-36.1,16.88-37.54ZM398.11,712.17l-28.27,22.82-1.44,3.49c10.38,22,21.01,46.34,34.6,66.51,3.38,5.01,11.65,16.31,17.89,8.06,4.95-6.55,1.45-19.5.21-27.16-2.05-12.68-12.05-63.46-18.68-71.32-1.12-1.33-2.33-2.92-4.31-2.4Z"/>
  <path class="cls-1" d="M774.15,241.31c31.76-6.05,2.89,38.36-14.28,38.81-8.63.23-11.79-7.89-10.23-15.33,1.79-8.53,15.98-21.85,24.51-23.48Z"/>
</svg>