<?xml version="1.0" standalone="no"?> <!DOCTYPE svg PUBLIC "-//W3C//DTD SVG 20010904//EN" "http://www.w3.org/TR/2001/REC-SVG-20010904/DTD/svg10.dtd"> <svg version="1.0" xmlns="http://www.w3.org/2000/svg" width="600.000000pt" height="600.000000pt" viewBox="0 0 600.000000 600.000000" preserveAspectRatio="xMidYMid meet"> <g transform="translate(0.000000,600.000000) scale(0.100000,-0.100000)" fill="#080316" stroke="none"> <path d="M4521 4845 c-183 -97 -270 -170 -636 -540 -187 -189 -351 -350 -365 -359 -24 -14 -34 -14 -135 9 -156 36 -257 64 -282 80 -12 8 -24 27 -27 43 -11 49 -42 90 -75 97 -56 12 -90 -3 -121 -52 -16 -25 -31 -50 -33 -56 -2 -6 -60 6 -148 31 -181 52 -405 108 -669 166 -744 164 -690 156 -770 116 -33 -17 -108 -88 -164 -156 l-25 -31 867 -502 c477 -275 872 -505 879 -509 8 -5 -77 -111 -268 -332 -155 -179 -327 -378 -383 -444 l-101 -118 -80 5 c-44 3 -143 19 -220 37 -144 33 -282 48 -330 36 -67 -17 -164 -147 -151 -201 15 -59 127 -125 451 -268 l140 -62 22 -85 c26 -105 42 -120 124 -120 71 0 62 12 162 -210 100 -221 136 -281 181 -303 69 -33 156 -17 206 38 23 25 25 33 24 128 -1 80 -10 143 -44 292 -23 105 -44 225 -47 268 -7 92 -16 80 167 240 63 56 223 208 355 338 226 222 276 263 295 242 4 -4 193 -348 419 -763 227 -415 419 -761 429 -768 34 -26 125 15 206 94 90 87 93 163 16 474 -27 112 -50 221 -50 242 0 31 8 45 51 87 45 45 50 53 47 88 l-3 38 -63 0 c-43 0 -65 4 -71 14 -18 28 -91 422 -91 487 0 31 4 35 60 60 78 35 130 91 130 139 0 29 -5 37 -27 46 -34 13 -87 -1 -151 -38 -24 -14 -45 -23 -47 -21 -2 2 -20 125 -39 273 -20 149 -38 285 -41 302 -6 32 4 43 282 325 355 360 444 469 533 647 64 128 77 236 41 331 -44 114 -124 171 -251 177 -75 4 -76 4 -179 -52z m269 -90 c48 -25 65 -60 65 -135 -2 -197 -195 -450 -740 -969 -397 -377 -545 -527 -545 -551 0 -26 44 -38 68 -18 117 100 335 278 341 278 4 0 31 -165 59 -367 39 -279 68 -440 118 -663 43 -193 62 -300 57 -310 -5 -8 -50 -42 -99 -76 -90 -61 -107 -86 -73 -107 25 -15 61 -2 125 48 46 36 60 43 70 33 6 -7 21 -62 32 -123 12 -60 33 -164 47 -230 29 -139 31 -194 9 -240 -17 -37 -65 -65 -96 -57 -34 8 -114 144 -252 427 -73 149 -207 401 -298 560 -183 321 -285 517 -296 572 -4 20 -12 38 -18 40 -24 8 -154 -107 -449 -397 -407 -400 -676 -633 -828 -715 -48 -27 -51 -27 -64 -10 -33 46 6 152 97 265 28 36 58 77 66 92 16 31 19 68 5 68 -6 0 -67 -53 -137 -119 l-127 -118 -131 54 c-72 29 -187 81 -256 116 -110 54 -125 65 -128 89 -10 89 130 99 384 27 125 -36 243 -47 298 -29 73 24 192 152 450 484 77 97 195 241 265 319 337 380 842 926 1197 1294 197 204 410 385 515 439 106 53 202 64 269 29z m-3185 -500 c58 -13 179 -45 269 -70 90 -25 171 -45 180 -45 9 0 16 -2 16 -4 0 -2 -22 -47 -50 -100 -28 -53 -50 -105 -50 -115 0 -32 39 -54 282 -161 128 -56 243 -108 255 -116 29 -18 67 -18 83 2 11 12 11 17 -1 28 -8 8 -130 73 -272 145 -142 72 -262 133 -267 136 -5 3 18 41 52 83 46 57 67 76 82 74 45 -6 1202 -273 1215 -280 8 -5 17 -14 19 -20 2 -7 -63 -81 -145 -165 -82 -84 -195 -200 -253 -259 -57 -60 -107 -108 -111 -108 -7 0 -172 90 -1269 691 -256 140 -396 222 -398 233 -5 23 34 64 72 76 44 13 168 3 291 -25z m779 -2447 c28 -44 116 -433 116 -514 0 -42 -19 -74 -43 -74 -26 0 -56 32 -98 102 -58 98 -179 336 -179 353 0 12 167 154 182 155 4 0 14 -10 22 -22z"/> <path d="M4520 4567 c-88 -46 -135 -142 -91 -186 29 -29 61 -26 110 9 81 59 127 166 82 190 -30 15 -53 12 -101 -13z"/> </g> </svg>