<!DOCTYPE svg PUBLIC "-//W3C//DTD SVG 1.1//EN" "http://www.w3.org/Graphics/SVG/1.1/DTD/svg11.dtd">
<!-- Uploaded to: SVG Repo, www.svgrepo.com, Transformed by: SVG Repo Mixer Tools -->
<svg fill="#000000" width="800px" height="800px" viewBox="0 0 32.00 32.00" id="template" xmlns="http://www.w3.org/2000/svg" stroke="#000000" stroke-width="0.00032" transform="matrix(1, 0, 0, 1, 0, 0)">
<g id="SVGRepo_bgCarrier" stroke-width="0"/>
<g id="SVGRepo_tracerCarrier" stroke-linecap="round" stroke-linejoin="round" stroke="#CCCCCC" stroke-width="0.064"/>
<g id="SVGRepo_iconCarrier">
<title/>
<path d="M30.115,21.505c-1.6-.574-3.551-2.592-4.466-3.613a6.15,6.15,0,0,0,3.179-1.433.353.353,0,0,0-.16-.61c-1.646-.357-3.369-2.506-4.095-3.505a7,7,0,0,0,3.013-1.326.354.354,0,0,0-.135-.622c-3.779-.932-5.277-6.182-5.292-6.235a.354.354,0,0,0-.019-.039.318.318,0,0,0-.031-.061.4.4,0,0,0-.046-.054.363.363,0,0,0-.047-.041.339.339,0,0,0-.066-.033c-.014,0-.024-.015-.038-.019s-.016,0-.024,0a.355.355,0,0,0-.066,0,.29.29,0,0,0-.078,0,.148.148,0,0,0-.021,0c-.013,0-.022.013-.035.017a.378.378,0,0,0-.069.036.293.293,0,0,0-.046.04.3.3,0,0,0-.047.053.368.368,0,0,0-.031.063.269.269,0,0,0-.019.038c-.013.045-1.225,4.292-4.222,5.824A6.177,6.177,0,0,0,17.4,8.74a5.906,5.906,0,0,0-5.666-6.107A5.711,5.711,0,0,0,6.269,7.156,5.677,5.677,0,0,0,1.65,12.977a5.91,5.91,0,0,0,3.307,5.451,5.015,5.015,0,0,0,4.89,4.4,4.3,4.3,0,0,0,.623-.054v4.084a46.7,46.7,0,0,0-7.232,1.813.355.355,0,0,0,.113.691.338.338,0,0,0,.112-.019c15.585-5.231,25.708-.075,25.808-.022A.355.355,0,0,0,29.6,28.7a23.964,23.964,0,0,0-6.378-1.891V23.84a21.922,21.922,0,0,0,6.918-1.679.354.354,0,0,0-.027-.656ZM12.92,18.6v7.924c-.568.06-1.15.137-1.741.225V11.915c1.149-.395,2.85-1.53,2.443-3.562a.354.354,0,1,0-.7.139,2.357,2.357,0,0,1-1.593,2.59,4.508,4.508,0,0,0-1.306-4.2.354.354,0,1,0-.459.539,3.892,3.892,0,0,1,.918,4.125.377.377,0,0,0-.01.088c0,.008-.007.014-.007.022V15.27A4.6,4.6,0,0,1,6.5,12.591a.354.354,0,0,0-.649.284,5.392,5.392,0,0,0,4.612,3.111h.006V22.06a3.681,3.681,0,0,1-.623.064,4.321,4.321,0,0,1-4.211-3.98.354.354,0,0,0-.223-.293,5.164,5.164,0,0,1-3.054-4.874A4.927,4.927,0,0,1,6.584,7.836a.354.354,0,0,0,.32-.282,5.036,5.036,0,0,1,4.828-4.212,5.2,5.2,0,0,1,4.957,5.4,5.737,5.737,0,0,1-.319,1.852.355.355,0,0,0,.228.45A5.306,5.306,0,0,1,20.161,16.2a5.2,5.2,0,0,1-4.957,5.4,4.393,4.393,0,0,1-1.575-.314V18.926a4.3,4.3,0,0,0,3.862-3.245.354.354,0,0,0-.7-.126,3.589,3.589,0,0,1-3.545,2.7A.355.355,0,0,0,12.92,18.6Zm7.241,7.821a38.46,38.46,0,0,0-6.532.036V22.018A5.066,5.066,0,0,0,15.2,22.3c.155,0,.306-.012.458-.025a11.791,11.791,0,0,0,4.5,1.484Zm2.354.27c-.522-.078-1.072-.147-1.645-.206V23.832c.4.031.8.051,1.2.051.15,0,.3-.007.445-.011ZM16.767,22.06a6.065,6.065,0,0,0,4.1-5.865,6.06,6.06,0,0,0-3.375-5.54c2.414-1.186,3.75-3.855,4.322-5.315.6,1.546,2.057,4.456,4.744,5.514a5.165,5.165,0,0,1-2.629.816.316.316,0,0,0-.32.179.356.356,0,0,0,.01.367c.09.14,2.041,3.148,4.218,4.1a4.418,4.418,0,0,1-2.933.849.345.345,0,0,0-.36.174.354.354,0,0,0,.033.4A19.779,19.779,0,0,0,29.1,21.814C27.092,22.557,21.426,24.27,16.767,22.06Z"/>
</g>
</svg>