<?xml version="1.0" encoding="UTF-8"?>
<svg id="Layer_1" data-name="Layer 1" xmlns="http://www.w3.org/2000/svg" viewBox="0 0 1920 1080">
  <defs>
    <style>
      .cls-1 {
        fill: #f3ff00;
        opacity: .5;
      }
    </style>
  </defs>
  <path class="cls-1" d="M705.52,412.6h207.73v-4.49h255.51v8.08h108.25v-6.28l63.5.9,14.51,166.68,9.98,247.48h-44.15s2.42,12.57-9.07,13.47c-11.49.9-69.85,0-69.85,0,0,0-7.56-.3-7.86-14.06-.3-13.77-1.21-71.22-1.21-71.22l-319-.9-.91-15.86-29.03-.3v15.56h-16.93v74.21s2.42,14.86-7.26,12.97-71.06.17-71.06.17c0,0-9.37-2.96-6.95-13.43l-72.27.3v-124.79s-3.93,0-3.93,0v-288.48Z"/>
</svg>