<?xml version="1.0" encoding="UTF-8"?>
<svg id="Layer_1" data-name="Layer 1" xmlns="http://www.w3.org/2000/svg" viewBox="0 0 1082.06 660.86">
  <defs>
    <style>
      .cls-1 {
        fill: #9fba00;
      }

      .cls-2 {
        fill: #ceff00;
      }
    </style>
  </defs>
  <path class="cls-2" d="M350.09,116.78l466.83.78h26.26c-1.88,9.03-6.53,60.02,14.43,92.74,18.35,28.63,56.53,43.2,66.78,46.87l-120,186.74c-12.13,17.31-37.85,48.95-81.78,71.61-56.97,29.38-110.35,25.99-131.38,23.51l.29-3.65h-294.29v-10.78h-41.97v-72h38.25v-202.3h-38.25v-33.09h53.32v-94.48h41.35l.16-5.95Z"/>
  <path id="Deck" class="cls-1" d="M849.42,120.84h100.17s49.3,9.78,30.13,43.43-57.52,88.83-57.52,88.83c-8.23-3.01-41.89-16.4-61.83-53.61-19.17-35.78-12.89-69.77-10.96-78.65Z"/>
</svg>