<?xml version="1.0" encoding="UTF-8"?>
<svg id="Layer_1" data-name="Layer 1" xmlns="http://www.w3.org/2000/svg" viewBox="0 0 1920 1080">
  <defs>
    <style>
      .cls-1 {
        fill: #f3ff00;
        opacity: .5;
      }
    </style>
  </defs>
  <path class="cls-1" d="M1018.95,406.8h147.21v7.9h108.28v-7.9h61.44l15.21,171.98,11.56,244.3-44.48,1.67.57,7.52s-1.48,5.01-6.27,5.7-74.71.68-74.71.68c0,0-4.68-3.53-4.9-6.61s-.46-7.75-.46-7.75l-65.36.23-.11,5.81s.11,6.95-5.47,7.29c-5.59.34-72.88.11-72.88.11,0,0-5.7-.34-6.16-4.67-.46-4.33-.46-8.09-.46-8.09l-58.63-.11-4.37-418.07Z"/>
</svg>