<?xml version="1.0" encoding="UTF-8"?>
<svg xmlns="http://www.w3.org/2000/svg" viewBox="0 0 952.92 673.92">
  <defs>
    <style>
      .cls-1 {
        fill: #ceff00;
      }

      .cls-1, .cls-2, .cls-3, .cls-4 {
        opacity: .5;
      }

      .cls-2 {
        fill: #7e9300;
      }

      .cls-3 {
        fill: #ffbc00;
      }

      .cls-4 {
        fill: #006168;
      }
    </style>
  </defs>
  <g id="bedrrom">
    <path class="cls-2" d="M400.35,78.8h106.63s13.3,2.74,13.3,17.22v44.61h-119.93v-61.83Z"/>
  </g>
  <g id="Layer_3" data-name="Layer 3">
    <rect id="bedroom_2" class="cls-3" x="424.61" y="184.46" width="96.07" height="67.11"/>
    <path id="deck" class="cls-1" d="M242.24,535h334.13s8.61-1.17,9-9.39,0-63.39,0-63.39h18l16.83,97.43s2.8,20.93-15,21.33-193.04,0-193.04,0c0,0-18.13,1.86-23.87-7.27s-11.09-20.87-11.09-20.87l-42.78-.13s-5.22,23.09-23.22,23.48-38.61.13-38.61.13c0,0-10.3.78-18.78-16.04s-11.57-25.27-11.57-25.27Z"/>
    <polygon id="dinning" class="cls-4" points="353.46 296.53 517.8 296.53 517.8 398.01 356.33 398.01 353.46 296.53"/>
  </g>
</svg>