<?xml version="1.0" encoding="UTF-8"?>
<svg id="Layer_1" data-name="Layer 1" xmlns="http://www.w3.org/2000/svg" viewBox="0 0 952.92 673.92">
  <defs>
    <style>
      .cls-1 {
        fill: #001342;
      }

      .cls-1, .cls-2, .cls-3, .cls-4 {
        opacity: .5;
      }

      .cls-2 {
        fill: #e7ff00;
      }

      .cls-3 {
        fill: #484f02;
      }

      .cls-4 {
        fill: #191c00;
        stroke: #000;
        stroke-miterlimit: 10;
      }
    </style>
  </defs>
  <path id="bedroom" class="cls-4" d="M400.28,78.61h106.57s13.04,2.74,13.57,16.17,0,46.57,0,46.57h-120.13v-62.74Z"/>
  <polygon id="study" class="cls-1" points="424.41 184.78 520.54 184.78 520.54 254.04 520.54 293.17 456.24 293.17 456.24 206.17 422.07 206.17 422.07 187.39 424.54 187.39 424.41 184.78"/>
  <rect id="dinning" class="cls-3" x="424.67" y="295.52" width="93.91" height="104.61"/>
  <path id="deck" class="cls-2" d="M241.02,535.46h335.15s9.39.98,9.39-9.59v-63.59h11.54l18,102.13s-.2,14.48-14.87,17.02h-195.46s-14.09-.78-18.98-10.17-9.2-18.39-9.2-18.39l-41.87.78-6.85,13.5s-7.24,9.2-17.22,9-39.52.2-39.52.2c0,0-10.96-1.76-15.46-10.76s-14.67-30.13-14.67-30.13Z"/>
</svg>