<?xml version="1.0" encoding="UTF-8"?>
<svg id="Layer_1" data-name="Layer 1" xmlns="http://www.w3.org/2000/svg" viewBox="0 0 952.92 673.92">
  <defs>
    <style>
      .cls-1 {
        fill: #616b03;
      }

      .cls-1, .cls-2, .cls-3 {
        opacity: .5;
      }

      .cls-2 {
        fill: #e7ff00;
      }

      .cls-3 {
        fill: #00093f;
      }
    </style>
  </defs>
  <path id="deck" class="cls-2" d="M241.17,535.91l332.35.52s12.78.26,12.78-9.39v-64.7h15.39l16.7,91.3s1.57,19.89-12.78,20.28-64.96,0-64.96,0c0,0-12.59-.98-18.91-20.8l-41.15-.33-8.74,18.07s-6.46,11.02-14.74,10.89-183.26-.82-183.26-.82c0,0-10.96-2.09-15.91-11.61s-16.76-33.42-16.76-33.42Z"/>
  <rect id="study" class="cls-1" x="429.52" y="184.82" width="90.78" height="83.15"/>
  <path id="Bedroom" class="cls-3" d="M409.57,78.97h96.26s14.28,2.54,14.48,15.07,0,45.98,0,45.98h-119.93v-61.04h9.2Z"/>
</svg>