<?xml version="1.0" encoding="UTF-8"?>
<svg id="Layer_1" data-name="Layer 1" xmlns="http://www.w3.org/2000/svg" viewBox="0 0 952.92 673.92">
  <defs>
    <style>
      .cls-1 {
        fill: #7c9100;
      }

      .cls-1, .cls-2, .cls-3, .cls-4 {
        opacity: .5;
      }

      .cls-2 {
        fill: #efff92;
      }

      .cls-3 {
        fill: #daff00;
      }

      .cls-4 {
        fill: #021230;
      }
    </style>
  </defs>
  <path id="bedroom" class="cls-4" d="M400.11,79.2h105.26s15.07.78,15.07,16.63v45h-119.35l-.98-61.63Z"/>
  <rect id="bedroom_2" class="cls-2" x="424.57" y="184.85" width="95.87" height="66.72"/>
  <rect id="dinning" class="cls-1" x="353.93" y="295.78" width="163.96" height="103.7"/>
  <path id="deck" class="cls-3" d="M241.5,535.78l15.13,30.52s2.09,15.13,35.48,14.87l33.39-.26,122.61.26s19.04,5.74,27.13-18.26l5.48-10.43,40.17-.26s8.61,22.7,25.83,21.91,54.26-.26,54.26-.26c0,0,21.13-1.3,18-17.22s-17.48-94.17-17.48-94.17h-15.65l.52,58.43s.78,14.61-8.87,14.61-336,.26-336,.26Z"/>
</svg>