<?xml version="1.0" encoding="UTF-8"?>
<svg id="Layer_1" data-name="Layer 1" xmlns="http://www.w3.org/2000/svg" viewBox="0 0 952.92 673.92">
  <defs>
    <style>
      .cls-1 {
        fill: #021b44;
      }

      .cls-1, .cls-2, .cls-3, .cls-4 {
        opacity: .5;
      }

      .cls-2 {
        fill: #667704;
      }

      .cls-3 {
        fill: #004f31;
      }

      .cls-4 {
        fill: #daff00;
      }
    </style>
  </defs>
  <path id="bedroom" class="cls-3" d="M400.61,78.83h104.09s15.46,2.15,15.65,15.85,0,46.17,0,46.17h-119.74v-62.02Z"/>
  <rect id="bedroom_2" class="cls-1" x="424.28" y="184.48" width="96.15" height="67.5"/>
  <rect id="bedroom_3" class="cls-2" x="441.3" y="336.96" width="77.28" height="61.76"/>
  <path id="deck" class="cls-4" d="M241.28,535.87h332.22s12.33-.98,12.13-7.83,0-66.52,0-66.52h17.02l17.22,99.2s4.89,17.02-13.5,19.96h-198.59s-15.46,4.3-24.07-14.48l-6.65-13.3-41.87-.2-6.65,13.11s-9.2,10.37-17.61,10.76-40.5-.39-40.5-.39c0,0-9,0-15.26-12.52s-13.89-27.78-13.89-27.78Z"/>
</svg>