<?xml version="1.0" encoding="UTF-8"?>
<svg id="Layer_1" data-name="Layer 1" xmlns="http://www.w3.org/2000/svg" viewBox="0 0 952.92 673.92">
  <defs>
    <style>
      .cls-1 {
        fill: #492501;
      }

      .cls-1, .cls-2, .cls-3, .cls-4, .cls-5 {
        opacity: .5;
      }

      .cls-2 {
        fill: #243802;
      }

      .cls-3 {
        fill: #040d3a;
      }

      .cls-4 {
        fill: #768200;
      }

      .cls-5 {
        fill: #cced06;
      }
    </style>
  </defs>
  <path id="refuge" class="cls-5" d="M249.52,414.78h96.78v67.83s1.04,21.91,21.13,21.65,150.52.78,150.52.78v75.65h-259.57s-20.35,2.61-20.61-16.7,0-103.57,0-103.57h11.74v-45.65Z"/>
  <path id="deck" class="cls-4" d="M520.5,505.17h51.26s14.48,0,14.28-8.8,0-35.02,0-35.02h16.43l16.43,101.54s-2.93,17.45-15.65,17.92-81.98,0-81.98,0l-.78-75.64Z"/>
  <rect id="dinning" class="cls-3" x="400.63" y="296.41" width="117.33" height="105.13"/>
  <rect id="bedroom_2" class="cls-2" x="424.11" y="184.5" width="96.78" height="67.83"/>
  <path id="bedroom" class="cls-1" d="M400.37,78.85h104.61s15.65.52,15.91,16.43,0,45.91,0,45.91h-120.52v-62.35Z"/>
</svg>