<?xml version="1.0" encoding="UTF-8"?>
<svg id="Layer_1" data-name="Layer 1" xmlns="http://www.w3.org/2000/svg" viewBox="0 0 952.92 673.92">
  <defs>
    <style>
      .cls-1 {
        fill: #737f00;
      }

      .cls-1, .cls-2, .cls-3, .cls-4 {
        opacity: .5;
      }

      .cls-2 {
        fill: #021b49;
      }

      .cls-2, .cls-4 {
        stroke: #000;
        stroke-miterlimit: 10;
      }

      .cls-3 {
        fill: #e7ff00;
      }

      .cls-4 {
        fill: #3a1f02;
      }
    </style>
  </defs>
  <path id="wardrobe" class="cls-4" d="M409.43,88.46h90v-9.98h6.85s14.09,3.91,14.28,14.09,0,38.54,0,38.54h-84.13v17.02h-27v-60.65.98Z"/>
  <polygon id="bedroom" class="cls-2" points="400.24 184.33 520.57 184.33 520.57 293.3 428.61 293.3 428.61 262.04 400.24 262.04 400.24 184.33"/>
  <polygon id="seating" class="cls-1" points="427.63 359.63 517.83 359.63 517.83 411.48 433.5 411.48 427.63 411.48 427.63 359.63"/>
  <path id="deck" class="cls-3" d="M241.24,536.17h334.43s9.91-1.04,10.43-9.65,0-64.17,0-64.17h16.17l18.26,99.65s5.22,19.04-22.17,18.78h-186.52s-22.96,8.09-34.43-27.65h-42.52s-7.57,23.22-23.48,23.74h-39.91s-10.7-2.35-16.17-13.3-14.09-27.39-14.09-27.39Z"/>
</svg>