<?xml version="1.0" encoding="UTF-8"?>
<svg id="Layer_1" xmlns="http://www.w3.org/2000/svg" version="1.1" xmlns:xlink="http://www.w3.org/1999/xlink" viewBox="0 0 921.6 518.4">
  <!-- Generator: Adobe Illustrator 30.2.1, SVG Export Plug-In . SVG Version: 2.1.1 Build 1)  -->
  <defs>
    <style>
      .st0 {
        fill: #fac5c5;
        opacity: .5;
        stroke: #000;
        stroke-miterlimit: 10;
        stroke-width: .2px;
      }
    </style>
  </defs>
  <image width="3840" height="2160" transform="scale(.2)" xlink:href="Ground Floor plan.png"/>
  <path id="_x30_9" class="st0" d="M296.3,128.4l14.2,6.9,33.8-56-48.5-31.5c-3.7-2.4-8.6.4-8.3,4.9l4.4,69.1c.2,2.8,1.9,5.4,4.4,6.6Z"/>
  <path id="_x30_1" class="st0" d="M427.1,279.6l3.7-8.4-5.5-2.8c-3.7-1.9-6.4-5.2-7.6-9.2l-7.8-27.6c-1.3-4.7-4.6-8.5-9-10.5l-77.7-35.1c-4.6-2.1-9.8,1.3-9.8,6.4l.6,98.7c0,3.3,2.7,6,6.1,6h57.7c0,0,3.8-7.3,3.8-7.3l-5.6-2.9,9.9-21.9,26.1,12.1.5-.8c1.2-1.8,3.6-2.5,5.6-1.4l8.9,4.7Z"/>
  <path id="_x30_6" class="st0" d="M415.9,363.9l.3,31.3s1.6,14.3,12,19.6,19,5.2,26.9,0,56.1-58.2,56.1-58.2c0,0,5.5-6.3,9.9-7.3-2.3-6.5-4.4-12.8-4.4-12.8l-12.5-5-9.2,20.5c-1.9,4.1-6.7,6-10.8,4.2l-7.9-3.5s-3.1,15.9-23.7,21.7c-8.3,2.1-19.3-2.3-19.3-2.3l-17.2-8.1Z"/>
  <path id="_x30_4" class="st0" d="M550.5,320.7l-33.4,16,3.9,12.5s6.1-2.1,12.9-.4c3.7,1.1,11.7,5.8,14.8,5.5s6.1-1.4,6.1-1.4l30.9-15.4-35.2-16.9Z"/>
  <path id="_x30_3" class="st0" d="M584.7,227.1l-18.6,23.2,14.8,12.1,49.4,21.8,3.7-8.6s1-7.9-2.8-11.3-46.5-37.2-46.5-37.2Z"/>
  <path id="_x30_2" class="st0" d="M539.1,229l26.9,21.3,18.7-23.2-27.3-21.7c-2.7-2.2-6.8-1.2-8.3,2l-10,21.6Z"/>
</svg>