<?xml version="1.0" encoding="UTF-8"?>
<svg id="Layer_1" xmlns="http://www.w3.org/2000/svg" version="1.1" xmlns:xlink="http://www.w3.org/1999/xlink" viewBox="0 0 921.6 518.4">
  <!-- Generator: Adobe Illustrator 30.2.1, SVG Export Plug-In . SVG Version: 2.1.1 Build 1)  -->
  <defs>
    <style>
      .st0 {
        fill: #fac5c5;
        opacity: .5;
        stroke: #000;
        stroke-miterlimit: 10;
        stroke-width: .2px;
      }
    </style>
  </defs>
  <image width="3840" height="2160" transform="scale(.2)" xlink:href="../Retail level plan (1st Floor Level).png"/>
  <path id="_x30_8" class="st0" d="M311.1,137.5l-17.5-8.5c-2.1-1-3.5-3.1-3.7-5.5l-3.8-68.1c-.3-4.7,4.9-7.7,8.8-5.2l67.8,43.4-7.2,12.7-10-6.5-9.4,16.6-8.8-5.5-16.2,26.4Z"/>
  <path id="_x30_1" class="st0" d="M380,290.5v13.4h-67.2c-3.6,0-6.6-2.8-6.6-6.5v-119.4c0-4.1,4.2-6.9,7.9-5.2l138.5,62.7-23,50.9-45.8-20.2-9.9,21.3,6,2.9Z"/>
  <path id="_x30_6" class="st0" d="M411,335.8l.3,60.9s3.4,21.4,20.6,24.5,26.7-6,26.7-6l55.3-58.8s4.2-4.8,9.7-4.4l-1.4-10.4-20.6-9.5-11.7,27.5-32.5-14.2-4.7,9.4-41.6-18.9Z"/>
  <path id="_x30_5" class="st0" d="M452.8,235.6l-22.9,50.9,61.6,28.5,3-6.3c.3-.7.9-1.3,1.7-1.7l27.3-12.7c3-1.4,4.4-4.9,3.2-7.9l-4.8-12.3c-1-2.7-.9-5.6.3-8.2l16.4-34.8-11.5-9.3-6.6,14.5s-10.8,13.6-22.7,13.9-16.7-1.8-16.7-1.8l-28.2-12.8Z"/>
  <path id="_x30_4" class="st0" d="M556.2,325.5l-33.7,16.6,1.3,10s7.6,0,12.7,2.9,14.4,6.8,17,6.8,6.3-.6,10.4-2.5,13.9-6.4,14.5-7.3,2.9-3.7.7-7.8c1.1-.4,6.1-2.6,6.1-2.6l-1.5-3.7-27.5-12.3Z"/>
  <path id="_x30_3" class="st0" d="M625.9,316.2l-8.5-4,11.8-25.7-50.5-23.4-14.7-11.9,25.8-32.3,51.3,40.6c4.4,3.5,5.8,9.4,3.6,14.5l-18.8,42.2Z"/>
  <path id="_x30_2" class="st0" d="M527,221.8l12-25.2c3.3-6.9,12.2-9,18.2-4.1l32.4,26.1-25.9,32.4-36.7-29.2Z"/>
</svg>