<?xml version="1.0" encoding="UTF-8"?>
<svg id="Layer_1" xmlns="http://www.w3.org/2000/svg" version="1.1" xmlns:xlink="http://www.w3.org/1999/xlink" viewBox="0 0 921.6 518.4">
  <!-- Generator: Adobe Illustrator 30.2.1, SVG Export Plug-In . SVG Version: 2.1.1 Build 1)  -->
  <defs>
    <style>
      .st0 {
        fill: #fac5c5;
        opacity: .5;
        stroke: #000;
        stroke-miterlimit: 10;
        stroke-width: .2px;
      }
    </style>
  </defs>
  <image width="3840" height="2160" transform="scale(.2)" xlink:href="Typical Office level plan.png"/>
  <path id="_x30_7" class="st0" d="M355.9,104.3l8.3-12-67.3-44.2c-4.3-2.8-10,.5-9.6,5.6l4.3,69.1c.1,2,1.3,3.7,3.1,4.6l18.2,8.7,16.6-26.5,8.2,5.3,10-15.8,8.2,5.1Z"/>
  <path id="_x30_1" class="st0" d="M448.7,232.4l-120.5-54.5c-3.7-1.7-7.8,1-7.8,5l.3,50.5h-7.1c-3.3,0-6,2.7-6,6v57.1c0,3.9,3.2,7.1,7.1,7.1h67.3v-13.4l-5.9-2.9,10.2-21.9,39.7,18.3,22.8-51.3Z"/>
  <path id="_x30_3" class="st0" d="M476.6,352.5l-16.8-7.3-4.7,9-41.7-18-.3,58.7s.9,15.9,13.7,23.6,27.4,3.5,33.9-2.5,54.4-58.2,54.4-58.2l-21.8-9.5,13.2-28.2-12.4-5.5-17.5,37.8Z"/>
  <path id="_x30_4" class="st0" d="M556.1,324.2l12.1-26.8-17.4-7.2-44.3,30.1-13.2,28.2,21.8,9.5s7.8-7.4,16-5.9,18.8,7.7,21,8.5,7.3,2.9,15-1.2,8.9-4.5,12.4-6.2,4.2-4.6,3.2-7.5l-.4-1.3,5.7-2.5-2-4.4-29.9-13.2Z"/>
  <path id="_x30_6" class="st0" d="M641.4,289l7-17c1.8-4.4.5-9.4-3.2-12.4l-44.2-35.1-17.2,39.1,57.7,25.3Z"/>
  <path id="_x30_2" class="st0" d="M578.2,275.9l-18.4-8.1-38.3-30.5s-9.7,11.2-20.2,12-17-1.2-17-1.2l-35.4-15.5-22.5,51.3,79.9,36.2,44.3-30.1,17.4,7.2,10-21.5Z"/>
  <path id="_x30_5" class="st0" d="M522.2,236.5l20.2-41.9c2.9-6,10.6-7.8,15.9-3.7l42.6,33.6-22.6,51.4-18.4-8.2-37.7-31.2Z"/>
</svg>