<?xml version="1.0" encoding="UTF-8"?>
<svg id="Layer_1" xmlns="http://www.w3.org/2000/svg" version="1.1" viewBox="0 0 1200 1200">
  <!-- Generator: Adobe Illustrator 30.2.1, SVG Export Plug-In . SVG Version: 2.1.1 Build 1)  -->
  <defs>
    <style>
      .st0 {
        fill: #fff;
      }

      .st1 {
        fill: #070707;
      }

      .st2 {
        fill: #020101;
      }
    </style>
  </defs>
  <g id="compass-needle">
    <g>
      <polygon class="st0" points="600 266.2 633.2 548.6 600 600 600 266.2"/>
      <path d="M599.5,601.6v-335.4h.9c0,0,33.3,282.6,33.3,282.6h0c0,.1-34.1,52.8-34.1,52.8ZM600.5,274v324.4l32.3-49.9-32.3-274.5Z"/>
    </g>
    <g>
      <polygon class="st1" points="600 266.2 566.8 548.6 600 600 600 266.2"/>
      <g>
        <polygon class="st1" points="600 266.2 566.8 548.6 600 600 600 266.2"/>
        <path d="M600.5,601.6l-34.2-52.8,33.2-282.6h.9v335.5ZM567.2,548.5l32.3,49.9v-324.4l-32.3,274.5Z"/>
      </g>
    </g>
    <g>
      <polygon class="st0" points="266.2 600 548.6 633.2 600 600 266.2 600"/>
      <path d="M548.7,633.7h-.2s-282.5-33.3-282.5-33.3v-.9h335.5l-52.8,34.2ZM274,600.5l274.5,32.3,49.9-32.3h-324.4Z"/>
    </g>
    <g>
      <polygon class="st1" points="266.2 600 548.6 566.8 600 600 266.2 600"/>
      <g>
        <polygon class="st1" points="266.2 600 548.6 566.8 600 600 266.2 600"/>
        <path d="M601.6,600.5h-335.4v-.9c0,0,282.6-33.2,282.6-33.2h.1c0,0,52.7,34.2,52.7,34.2ZM274,599.5h324.4l-49.9-32.3-274.5,32.3Z"/>
      </g>
    </g>
    <g>
      <polygon class="st0" points="600 933.8 566.8 651.4 600 600 600 933.8"/>
      <path d="M599.5,933.9l-33.2-282.6h0c0-.1,34.1-52.8,34.1-52.8v335.4h-.9ZM567.2,651.5l32.3,274.5v-324.4l-32.3,49.9Z"/>
    </g>
    <g>
      <polygon class="st1" points="600 933.8 633.2 651.4 600 600 600 933.8"/>
      <g>
        <polygon class="st1" points="600 933.8 633.2 651.4 600 600 600 933.8"/>
        <path d="M600.5,933.9h-.9v-335.5l34.2,52.8v.2s-33.3,282.5-33.3,282.5ZM600.5,601.6v324.4l32.3-274.5-32.3-49.9Z"/>
      </g>
    </g>
    <g>
      <polygon class="st0" points="933.8 600 651.4 566.8 600 600 933.8 600"/>
      <path d="M933.8,600.5h-335.4l52.8-34.2,282.6,33.2v.9ZM601.6,599.5h324.4l-274.5-32.3-49.9,32.3Z"/>
    </g>
    <g>
      <polygon class="st1" points="933.8 600 651.4 633.2 600 600 933.8 600"/>
      <g>
        <polygon class="st1" points="933.8 600 651.4 633.2 600 600 933.8 600"/>
        <path d="M651.3,633.7h-.1c0,0-52.7-34.2-52.7-34.2h335.4v.9c0,0-282.6,33.3-282.6,33.3ZM601.6,600.5l49.9,32.3,274.5-32.3h-324.4Z"/>
      </g>
    </g>
    <g>
      <polygon class="st1" points="478.2 480.3 566.8 548.6 600 600 478.2 480.3"/>
      <g>
        <polygon class="st1" points="478.2 480.3 566.8 548.6 600 600 478.2 480.3"/>
        <path d="M602.7,603.3l-124.8-122.6.6-.7,88.7,68.4h0c0,0,35.5,55,35.5,55ZM484,485.4l113.4,111.4-30.9-47.8-82.5-63.6Z"/>
      </g>
    </g>
    <g>
      <polygon class="st0" points="478.2 480.3 548.6 566.8 600 600 478.2 480.3"/>
      <path d="M603.6,602.9l-55.3-35.8-70.5-86.5.7-.6,125.1,122.9ZM548.9,566.4l47.5,30.7-112.7-110.7,65.1,79.9Z"/>
    </g>
    <g>
      <polygon class="st1" points="478.2 719.7 566.8 651.4 600 600 478.2 719.7"/>
      <g>
        <polygon class="st1" points="478.2 719.7 566.8 651.4 600 600 478.2 719.7"/>
        <path d="M478.4,720.1l-.6-.7,124.8-122.6-35.6,55-88.6,68.3ZM597.3,603.3l-113.4,111.4,82.5-63.6,30.9-47.8Z"/>
      </g>
    </g>
    <g>
      <polygon class="st0" points="478.2 719.7 548.6 633.2 600 600 478.2 719.7"/>
      <path d="M478.5,720l-.7-.6,70.5-86.5,55.3-35.7-125.1,122.9ZM548.9,633.6l-65.1,79.9,112.7-110.7-47.5,30.7Z"/>
    </g>
    <g>
      <polygon class="st1" points="719.7 478.2 651.4 566.8 600 600 719.7 478.2"/>
      <g>
        <polygon class="st1" points="719.7 478.2 651.4 566.8 600 600 719.7 478.2"/>
        <path d="M596.7,602.7l122.6-124.8.7.6-68.4,88.7h0s-54.9,35.5-54.9,35.5ZM714.6,484l-111.4,113.4,47.8-30.9,63.6-82.5Z"/>
      </g>
    </g>
    <g>
      <polygon class="st0" points="719.7 478.2 633.2 548.6 600 600 719.7 478.2"/>
      <path d="M597.1,603.6l35.8-55.3,86.5-70.5.6.7-122.9,125.1ZM633.6,548.9l-30.7,47.5,110.7-112.7-79.9,65.1Z"/>
    </g>
    <g>
      <polygon class="st1" points="719.7 721.8 651.4 633.2 600 600 719.7 721.8"/>
      <g>
        <polygon class="st1" points="719.7 721.8 651.4 633.2 600 600 719.7 721.8"/>
        <path d="M719.4,722.2l-122.6-124.8,55,35.6,68.3,88.6-.7.6ZM603.3,602.7l111.4,113.4-63.6-82.5-47.8-30.9Z"/>
      </g>
    </g>
    <g>
      <polygon class="st0" points="719.7 721.8 633.2 651.4 600 600 719.7 721.8"/>
      <path d="M719.4,722.2l-86.5-70.5-35.7-55.3,122.9,125.1-.6.7ZM633.6,651.1l79.9,65.1-110.7-112.7,30.7,47.5Z"/>
    </g>
  </g>
  <g>
    <g>
      <path d="M724.6,591.1s0,.7,0,2.2c0,1.4.2,3.6.1,6.3,0,5.6-.4,13.8-2.6,24-.3,1.3-.6,2.6-.9,3.9-.4,1.3-.7,2.7-1.1,4.1-.3,1.4-.8,2.8-1.3,4.2-.5,1.4-.9,2.9-1.5,4.4-2.1,5.9-4.9,12.1-8.5,18.4-7.1,12.6-17.6,25.7-31.7,36.8-7.1,5.5-15.1,10.5-23.9,14.6-8.8,4.1-18.5,7.2-28.6,9.1-1.3.3-2.6.4-3.8.6-1.3.2-2.6.4-3.9.6-1.3.1-2.6.3-3.9.4l-2,.2h-.3s-.2,0-.2,0h-.5s-1,0-1,0c-1.3,0-2.6.1-3.9.2-1.3,0-2.7,0-4.1,0-2.7,0-5.4-.2-8.2-.3-5.4-.4-10.9-1.1-16.4-2.3-2.8-.5-5.4-1.3-8.2-2-1.4-.4-2.7-.8-4.1-1.2l-2-.6-2-.7c-10.7-3.8-21.1-9.3-30.7-16.1-1.2-.9-2.4-1.8-3.5-2.7-1.2-.9-2.3-1.9-3.4-2.8l-1.7-1.4-1.6-1.5c-1.1-1-2.2-2-3.3-3-4.3-4.1-8.2-8.7-11.9-13.4-14.8-19.1-23.6-43.1-25.1-67.6-1.4-24.5,4.6-49.4,17.1-70,3.1-5.1,6.5-10.1,10.3-14.7.9-1.2,1.9-2.3,2.9-3.4l1.5-1.7,1.5-1.6c1-1.1,2-2.2,3.1-3.2,1.1-1,2.1-2,3.2-3,8.7-7.9,18.4-14.6,28.6-19.6l1.9-1,1.9-.9c1.3-.6,2.6-1.2,3.9-1.7,2.6-1,5.2-2.1,7.9-2.9,5.3-1.8,10.7-3.1,16-4.2,2.7-.4,5.4-1,8-1.2,1.3-.1,2.7-.3,4-.5,1.3,0,2.7-.2,4-.3.7,0,1.3,0,2-.1h2c1.3,0,2.6,0,3.9-.1,1.3,0,2.6,0,4,.1,1.3,0,2.6,0,3.9.2,10.3.8,20.3,2.7,29.5,5.7,9.2,3,17.7,7.1,25.4,11.7,15.3,9.4,27.2,21.1,35.8,32.8,4.3,5.9,7.8,11.7,10.6,17.3.8,1.4,1.4,2.8,2,4.2.6,1.4,1.3,2.7,1.8,4,.5,1.3,1.1,2.6,1.6,3.9.4,1.3.9,2.6,1.3,3.8,3.3,9.9,4.7,18,5.4,23.5.4,2.8.5,4.9.6,6.3.1,1.4.2,2.2.2,2.2h0ZM724.2,591.1s0-.7-.2-2.2c-.2-1.4-.2-3.6-.6-6.3-.7-5.5-2.1-13.6-5.4-23.4-.4-1.2-.9-2.5-1.3-3.8-.5-1.3-1-2.6-1.6-3.9-.5-1.3-1.1-2.7-1.8-4-.6-1.4-1.2-2.8-2-4.1-2.8-5.6-6.3-11.4-10.6-17.1-8.6-11.5-20.5-23.1-35.8-32.1-7.7-4.5-16.1-8.3-25.3-11.1-9.1-2.9-18.9-4.6-29.1-5.2-1.3-.1-2.5-.1-3.8-.1-1.3,0-2.6,0-3.8,0-1.3,0-2.6,0-3.9.1h-2c-.6.1-1.3.2-1.9.2-1.3.1-2.6.2-3.9.3-1.3.1-2.6.3-3.9.5-2.6.3-5.2.9-7.8,1.3-5.2,1.1-10.4,2.5-15.6,4.3-2.6.8-5.1,2-7.6,3-1.3.6-2.5,1.2-3.8,1.7l-1.9.9-1.8,1c-9.9,5.1-19.1,11.6-27.4,19.5-4.2,3.9-8,8.2-11.6,12.7-3.6,4.5-6.8,9.3-9.8,14.3-3,5-5.5,10.3-7.7,15.7-2.2,5.4-3.9,11.1-5.3,16.8-1.4,5.7-2.3,11.6-2.8,17.4-.5,5.9-.5,11.8-.3,17.7.4,5.9,1.1,11.8,2.3,17.5,1.3,5.8,2.8,11.5,4.8,17,2.1,5.5,4.4,10.9,7.3,16,2.8,5.1,5.9,10.1,9.5,14.7,3.5,4.6,7.3,9,11.4,13.1,4.1,4,8.4,7.8,13,11.2,9.2,6.8,19.1,12.3,29.5,16.1l1.9.7,2,.6c1.3.4,2.6.9,3.9,1.3,2.7.7,5.3,1.5,7.9,2.1,5.3,1.3,10.7,2,16,2.5,2.7.2,5.3.4,7.9.4,1.3,0,2.6,0,3.9,0,1.3,0,2.6,0,3.9-.1.6,0,1.3,0,1.9,0l1.9-.2c1.3-.1,2.6-.2,3.9-.3,1.3-.2,2.5-.3,3.8-.5,1.3-.2,2.5-.3,3.8-.6,10-1.8,19.5-4.6,28.3-8.5,8.7-3.9,16.7-8.7,23.8-14,14.2-10.7,24.6-23.6,31.8-36.1,3.6-6.2,6.4-12.4,8.6-18.3.6-1.4,1-2.9,1.5-4.3.5-1.4.9-2.8,1.3-4.2.4-1.4.7-2.7,1.1-4,.3-1.3.6-2.6.9-3.9,2.2-10.1,2.6-18.3,2.7-23.8.1-2.8,0-4.9,0-6.3,0-1.4,0-2.2,0-2.2h0Z"/>
      <path d="M610.9,735s-.8,0-2.5,0c-1.6,0-4.1.2-7.2.1-6.3,0-15.7-.5-27.3-3-1.4-.3-2.9-.6-4.5-1-1.5-.4-3.1-.8-4.6-1.3-1.6-.4-3.2-.9-4.8-1.5-1.6-.5-3.3-1-5-1.7-6.7-2.4-13.8-5.6-21-9.7-14.4-8.1-29.3-20-41.9-36.2-6.3-8.1-11.9-17.2-16.6-27.2-4.7-10-8.1-21-10.3-32.6-.3-1.4-.5-2.9-.7-4.4-.2-1.5-.4-2.9-.6-4.4-.1-1.5-.3-3-.4-4.5l-.2-2.2v-.3s0-.3,0-.3v-.6s0-1.1,0-1.1c0-1.5-.1-3-.2-4.5,0-1.5,0-3.1,0-4.6,0-3.1.2-6.2.3-9.3.5-6.2,1.3-12.4,2.7-18.6.6-3.1,1.5-6.2,2.3-9.3.4-1.5,1-3.1,1.4-4.6l.7-2.3.8-2.3c4.4-12.2,10.6-24,18.4-34.8,1-1.3,2-2.7,3-4,1-1.3,2.1-2.6,3.2-3.9l1.6-1.9,1.7-1.9c1.2-1.2,2.3-2.5,3.5-3.7,4.7-4.9,9.9-9.3,15.3-13.5l4.1-3.1c1.4-1,2.8-1.9,4.3-2.9.7-.5,1.4-1,2.2-1.4l2.2-1.3c1.5-.9,2.9-1.8,4.5-2.6,6-3.4,12.4-6.1,18.9-8.6,6.5-2.4,13.2-4.3,20-5.8l5.1-1c1.7-.3,3.4-.5,5.2-.8,1.7-.2,3.4-.5,5.2-.6l5.3-.4,5.1-.2c.9,0,1.7,0,2.6,0h2.6c0,0,2.6.1,2.6.1.9,0,1.8,0,2.6.1l5.2.4c6.9.7,13.8,1.7,20.5,3.4,6.7,1.7,13.4,3.7,19.7,6.4,6.4,2.7,12.6,5.7,18.4,9.2,5.8,3.5,11.5,7.4,16.7,11.7,1.3,1,2.6,2.2,3.9,3.3l1.9,1.7,1.8,1.7c1.2,1.2,2.5,2.3,3.6,3.5,1.2,1.2,2.3,2.4,3.5,3.6,9,9.9,16.6,20.8,22.3,32.4l1.1,2.2,1,2.2c.7,1.5,1.3,2.9,2,4.4,1.1,3,2.4,5.9,3.3,9,2.1,6,3.6,12.1,4.8,18.2.5,3.1,1.1,6.1,1.4,9.1.2,1.5.4,3,.5,4.6.1,1.5.2,3,.3,4.5,0,.8.1,1.5.2,2.3v2.2c0,1.5.1,3,.1,4.4,0,1.5,0,3-.1,4.5,0,1.5,0,3-.2,4.5-.8,11.8-3,23.1-6.5,33.6-3.4,10.5-8,20.2-13.3,29-10.7,17.5-24,31.1-37.4,40.8-6.7,4.9-13.3,8.9-19.7,12.1-1.6.9-3.2,1.5-4.7,2.3-1.6.7-3.1,1.4-4.6,2-1.5.6-3,1.2-4.5,1.8-1.5.5-2.9,1-4.3,1.5-11.2,3.8-20.5,5.4-26.8,6.1-3.1.5-5.6.6-7.2.7-1.6.1-2.5.2-2.5.2h0ZM610.9,734.6s.8,0,2.5-.2c1.6-.2,4.1-.3,7.2-.7,6.3-.8,15.5-2.3,26.7-6.2,1.4-.5,2.8-1,4.3-1.5,1.4-.6,2.9-1.2,4.4-1.8,1.5-.6,3-1.3,4.6-2,1.5-.7,3.1-1.4,4.7-2.3,6.4-3.2,13-7.2,19.5-12.1,13.2-9.8,26.4-23.4,36.7-40.8,5.1-8.7,9.5-18.4,12.7-28.8,3.3-10.4,5.2-21.6,5.9-33.2.1-1.4.1-2.9.2-4.4,0-1.5,0-2.9,0-4.4,0-1.5,0-2.9-.1-4.4v-2.2c-.1-.7-.2-1.5-.3-2.2-.1-1.5-.2-3-.4-4.5-.1-1.5-.4-3-.6-4.5-.3-3-1-6-1.5-8.9-1.3-5.9-2.8-11.9-5-17.8-1-3-2.2-5.8-3.4-8.7-.6-1.4-1.3-2.8-2-4.3l-1-2.1-1.1-2.1c-5.8-11.3-13.3-21.8-22.2-31.3-4.4-4.8-9.3-9.1-14.4-13.3-5.1-4.1-10.6-7.8-16.3-11.2-5.7-3.4-11.8-6.2-17.9-8.8-6.2-2.5-12.6-4.5-19.1-6.1-6.5-1.6-13.2-2.6-19.9-3.2-6.7-.6-13.4-.6-20.2-.3-6.7.5-13.4,1.3-20,2.6-6.6,1.4-13.1,3.2-19.4,5.5-6.3,2.4-12.4,5.1-18.3,8.3-5.8,3.2-11.5,6.8-16.8,10.8-5.3,4-10.3,8.3-14.9,13-4.6,4.7-8.9,9.6-12.8,14.9-7.8,10.4-14,21.8-18.4,33.7l-.8,2.2-.7,2.2c-.5,1.5-1,3-1.5,4.5-.8,3-1.7,6-2.3,9.1-1.4,6-2.3,12.2-2.9,18.2-.2,3-.5,6.1-.5,9.1,0,1.5,0,3,0,4.5,0,1.5,0,3,.1,4.5,0,.7,0,1.5,0,2.2l.2,2.2c.1,1.5.2,2.9.4,4.4.2,1.5.4,2.9.6,4.4.2,1.4.4,2.9.7,4.3,2,11.4,5.3,22.3,9.7,32.3,4.4,10,9.9,19.1,16,27.1,12.2,16.2,26.9,28.1,41.2,36.3,7.1,4.1,14.1,7.4,20.8,9.8,1.6.7,3.3,1.2,4.9,1.7,1.6.5,3.2,1.1,4.8,1.5,1.6.4,3.1.9,4.6,1.3,1.5.3,3,.7,4.4,1,11.6,2.5,20.9,3,27.2,3,3.2.1,5.6,0,7.2-.1,1.6,0,2.5,0,2.5,0h0Z"/>
      <path d="M781.9,586.8s0,1.1.1,3.2c0,1.1,0,2.4.1,4,0,.8,0,1.6,0,2.5,0,.9,0,1.9,0,2.9,0,8.2-.6,20.4-3.9,35.5-.4,1.9-.8,3.8-1.3,5.8-.5,2-1.1,4-1.6,6-.5,2.1-1.2,4.1-1.9,6.2-.7,2.1-1.3,4.3-2.2,6.5-3.2,8.7-7.3,17.9-12.6,27.3-10.6,18.7-26.1,37.9-47.1,54.3-10.5,8.1-22.4,15.4-35.4,21.4-1.6.8-3.3,1.4-5,2.1-1.7.7-3.3,1.4-5,2.1-1.7.6-3.4,1.2-5.2,1.9-.9.3-1.7.6-2.6.9-.9.3-1.8.5-2.7.8-1.8.5-3.6,1.1-5.3,1.6-1.8.5-3.6.9-5.4,1.4-.9.2-1.8.5-2.7.7l-1.4.3-1.4.3c-1.9.4-3.7.7-5.6,1.1-1.9.4-3.8.6-5.7.9-1.9.3-3.8.6-5.7.8-1.9.2-3.9.4-5.8.5l-2.9.3c0,0-.3,0-.4,0h-.4s-.7,0-.7,0h-1.5c-1.9.1-3.9.2-5.8.3-2,0-4,0-6,0-4,0-8-.3-12-.5-8-.7-16.1-1.7-24.1-3.5-4-.8-8-1.9-12-3-2-.6-4-1.2-6-1.9l-3-.9-2.9-1.1c-15.8-5.7-31-13.8-45-23.9-1.7-1.3-3.5-2.6-5.2-3.9-1.7-1.3-3.3-2.8-5-4.2-.8-.7-1.7-1.4-2.5-2.1l-2.4-2.2-2.4-2.2c-.8-.7-1.6-1.5-2.4-2.3-1.5-1.6-3.1-3.1-4.6-4.7-1.5-1.6-2.9-3.3-4.4-4.9l-2.2-2.5-2.1-2.6-2.1-2.6c-.7-.9-1.4-1.7-2-2.6-1.3-1.8-2.6-3.6-3.9-5.3-1.3-1.8-2.5-3.7-3.7-5.5-.6-.9-1.2-1.8-1.8-2.8l-1.7-2.9-1.7-2.9c-.6-1-1.1-1.9-1.6-2.9l-3.1-5.9c-1-2-1.9-4-2.9-6.1-.5-1-1-2-1.4-3l-1.3-3.1-1.3-3.1c-.4-1-.8-2.1-1.2-3.1l-2.2-6.3c-.7-2.1-1.3-4.3-2-6.4l-.9-3.2-.8-3.3c-.5-2.2-1.1-4.4-1.5-6.6l-1.3-6.6c-.2-1.1-.4-2.2-.5-3.3l-.5-3.3-.5-3.3c-.2-1.1-.2-2.2-.3-3.4l-.6-6.8-.2-6.6c0-1.1-.1-2.2,0-3.3v-3.4c0,0,.1-3.4.1-3.4,0-1.1,0-2.3.1-3.4l.5-6.7c.2-2.2.5-4.5.8-6.7l.4-3.3.6-3.3c.4-2.2.7-4.4,1.2-6.6l1.5-6.6c.2-1.1.5-2.2.8-3.3l.9-3.2.9-3.2c.3-1.1.7-2.1,1-3.2.7-2.1,1.4-4.3,2.1-6.3l2.4-6.2c.4-1,.8-2.1,1.3-3.1l1.4-3,1.4-3c.5-1,1-2,1.5-3,1-2,2-4,3-5.9,1.1-1.9,2.2-3.8,3.3-5.8.5-1,1.1-1.9,1.7-2.8l1.8-2.8,1.8-2.8,1.9-2.7c1.3-1.8,2.5-3.6,3.8-5.4,1.3-1.7,2.7-3.5,4-5.2.7-.9,1.4-1.7,2.1-2.5l2.1-2.5,2.1-2.5c.7-.8,1.5-1.6,2.2-2.4,1.5-1.6,3-3.2,4.5-4.7,1.6-1.5,3.1-3,4.7-4.5,12.7-11.7,26.9-21.5,41.9-29l2.8-1.4,2.9-1.3c1.9-.8,3.8-1.7,5.7-2.5,3.9-1.5,7.7-3.1,11.6-4.4,7.8-2.7,15.7-4.7,23.5-6.3,4-.7,7.9-1.5,11.8-1.9,2-.2,3.9-.5,5.9-.7,2-.1,3.9-.3,5.9-.4,1,0,1.9-.2,3-.2h2.9c1.9-.1,3.8-.2,5.8-.2,1.9,0,3.9,0,5.8.1,1.9,0,3.9,0,5.8.3,1.9.1,3.8.3,5.7.4h1.4c0,.1,1.4.3,1.4.3.9.1,1.9.2,2.8.4,1.9.3,3.7.4,5.6.8,1.8.3,3.7.7,5.5,1,.9.2,1.8.3,2.7.5.9.2,1.8.4,2.7.6,1.8.4,3.6.8,5.3,1.2,1.8.5,3.5,1,5.2,1.5,1.7.5,3.5.9,5.2,1.6,13.6,4.4,26.3,10.3,37.6,17.1,22.7,13.7,40.4,31.1,53.1,48.4,6.4,8.7,11.6,17.3,15.7,25.6,1.1,2,2,4.1,3,6.2.9,2,1.9,4,2.6,6,.8,2,1.6,3.9,2.3,5.8.7,1.9,1.3,3.8,1.9,5.6,5,14.6,7,26.6,8,34.8.1,1,.3,2,.4,2.9.1.9.2,1.8.2,2.5.1,1.6.2,2.9.3,3.9.2,2.1.3,3.2.3,3.2h0ZM781.4,586.8s0-1.1-.3-3.2c0-1.1-.2-2.4-.3-3.9,0-.8-.1-1.6-.2-2.5-.1-.9-.3-1.9-.4-2.9-1-8.2-3.1-20.1-8-34.7-.6-1.8-1.3-3.7-2-5.6-.8-1.9-1.5-3.8-2.3-5.8-.8-2-1.7-3.9-2.6-6-.9-2-1.8-4.1-3-6.1-4.1-8.3-9.4-16.8-15.8-25.4-6.4-8.6-14-17.1-22.8-25.2-8.8-8.1-18.9-15.8-30.3-22.4-11.4-6.6-23.9-12.3-37.5-16.5-1.7-.6-3.4-1-5.1-1.5-1.7-.5-3.5-1-5.2-1.4-1.8-.4-3.5-.8-5.3-1.2-.9-.2-1.8-.4-2.7-.6-.9-.2-1.8-.3-2.7-.5-1.8-.3-3.6-.6-5.4-.9-1.8-.3-3.7-.5-5.5-.7-.9-.1-1.8-.2-2.8-.3l-1.4-.2h-1.4c-1.9-.2-3.7-.3-5.6-.5-1.9-.2-3.8-.2-5.7-.2-1.9,0-3.8,0-5.7,0-1.9,0-3.8.1-5.8.2h-2.9c-.9.2-1.9.3-2.9.3-1.9.2-3.9.3-5.8.5-1.9.2-3.9.5-5.8.7-3.9.4-7.7,1.3-11.6,2-7.7,1.7-15.5,3.7-23.1,6.4-3.8,1.2-7.6,2.9-11.4,4.4-1.9.8-3.7,1.7-5.6,2.6l-2.8,1.3-2.7,1.4c-14.6,7.5-28.4,17.3-40.7,28.9-1.5,1.5-3,3-4.6,4.4-1.5,1.5-2.9,3.1-4.4,4.6-.7.8-1.5,1.5-2.2,2.3l-2.1,2.4-2.1,2.4c-.7.8-1.4,1.6-2,2.5-1.3,1.7-2.6,3.4-3.9,5.1-1.3,1.7-2.5,3.5-3.7,5.3l-1.8,2.7-1.7,2.7-1.7,2.7c-.6.9-1.2,1.8-1.7,2.8-1.1,1.9-2.1,3.8-3.2,5.7-1,1.9-2,3.9-2.9,5.8-.5,1-1,1.9-1.4,2.9l-1.3,3-1.3,3c-.4,1-.9,2-1.2,3l-2.3,6.1c-.7,2-1.4,4.1-2.1,6.2-.3,1-.7,2.1-1,3.1l-.9,3.2-.9,3.2c-.3,1.1-.6,2.1-.8,3.2l-1.4,6.4c-.5,2.1-.8,4.3-1.1,6.5l-.5,3.2-.4,3.3c-.2,2.2-.6,4.3-.7,6.5-.8,8.7-.8,17.5-.4,26.3.6,8.7,1.7,17.5,3.4,26,.4,2.2,1,4.3,1.5,6.4l.8,3.2.9,3.2c.6,2.1,1.2,4.2,1.9,6.3l2.2,6.2c.3,1,.7,2.1,1.2,3.1l1.2,3,1.2,3c.4,1,.9,2,1.4,3,.9,2,1.8,4,2.8,5.9l3,5.8c.5,1,1,1.9,1.6,2.8l1.6,2.8,1.6,2.8c.6.9,1.2,1.8,1.8,2.7,1.2,1.8,2.3,3.6,3.6,5.4,1.3,1.8,2.5,3.5,3.8,5.2.6.9,1.3,1.7,2,2.6l2,2.5,2,2.5,2.1,2.4c1.4,1.6,2.8,3.2,4.3,4.8,1.5,1.5,3,3.1,4.5,4.6.7.8,1.5,1.5,2.3,2.2l2.3,2.2,2.3,2.2c.8.7,1.6,1.4,2.4,2.1,1.6,1.4,3.2,2.8,4.9,4.1,1.7,1.3,3.4,2.6,5,3.9,13.6,10.1,28.4,18.2,43.8,23.9l2.9,1.1,2.9,1c1.9.6,3.9,1.3,5.8,1.9,3.9,1,7.8,2.3,11.8,3,7.9,1.9,15.8,2.9,23.7,3.7,4,.3,7.9.6,11.8.6,2,0,3.9.1,5.9,0,1.9,0,3.9-.1,5.8-.2,1,0,1.9,0,2.9-.1l2.9-.2c1.9-.2,3.8-.3,5.7-.5,1.9-.2,3.8-.5,5.7-.7,1.9-.3,3.8-.5,5.6-.9,1.9-.3,3.7-.7,5.5-1l1.4-.3,1.4-.3c.9-.2,1.8-.4,2.7-.6,1.8-.5,3.6-.8,5.4-1.3,1.8-.5,3.5-1,5.3-1.5.9-.3,1.8-.5,2.6-.8.9-.3,1.7-.6,2.6-.9,1.7-.6,3.4-1.2,5.1-1.8,1.7-.6,3.3-1.3,5-2,1.7-.7,3.3-1.3,4.9-2.1,13-5.8,24.8-12.9,35.3-20.8,10.5-7.9,19.6-16.7,27.5-25.8,7.8-9.1,14.4-18.5,19.7-27.7,5.3-9.3,9.6-18.4,12.7-27.1.9-2.1,1.5-4.3,2.2-6.4.7-2.1,1.4-4.2,1.9-6.2.6-2,1.1-4,1.6-6,.4-2,.9-3.9,1.3-5.8,3.3-15,3.9-27.2,3.9-35.4,0-1,0-2,0-2.9,0-.9,0-1.8,0-2.5,0-1.6,0-2.9-.1-4,0-2.1-.1-3.2-.1-3.2h0Z"/>
      <path d="M591.8,407.7s1.2,0,3.4-.1c1.1,0,2.5,0,4.2-.1.8,0,1.7,0,2.7,0,1,0,2,0,3.1,0,8.7,0,21.6.7,37.6,4.1,2,.4,4,.9,6.1,1.4,2.1.6,4.2,1.1,6.4,1.7,2.2.5,4.4,1.3,6.6,2,2.2.7,4.6,1.4,6.8,2.4,9.3,3.3,19,7.7,28.9,13.4,19.8,11.2,40.2,27.6,57.4,49.9,8.6,11.1,16.3,23.7,22.6,37.5.9,1.7,1.5,3.5,2.3,5.2.7,1.8,1.5,3.5,2.2,5.3.7,1.8,1.3,3.6,2,5.5.3.9.7,1.8,1,2.8.3.9.6,1.9.9,2.8.6,1.9,1.1,3.8,1.7,5.7.6,1.9,1,3.8,1.5,5.8.2,1,.5,1.9.7,2.9l.4,1.5.3,1.5c.4,2,.8,3.9,1.2,5.9.4,2,.7,4,1,6,.3,2,.6,4,.9,6.1.2,2,.4,4.1.6,6.1,0,1,.2,2.1.3,3.1,0,0,0,.3,0,.4v.4s0,.8,0,.8v1.5c.2,2.1.2,4.1.3,6.2,0,2.1,0,4.2,0,6.3,0,4.2-.3,8.5-.5,12.7-.7,8.5-1.8,17-3.7,25.5-.8,4.3-2.1,8.5-3.2,12.7-.6,2.1-1.3,4.2-2,6.3l-1,3.2-1.2,3.1c-6,16.7-14.6,32.8-25.4,47.6-1.4,1.8-2.8,3.7-4.1,5.5-1.4,1.8-2.9,3.5-4.4,5.3-.7.9-1.5,1.8-2.2,2.6l-2.3,2.5-2.3,2.5c-.8.9-1.6,1.7-2.4,2.5-1.6,1.6-3.3,3.3-5,4.9-1.7,1.6-3.4,3.1-5.2,4.7l-2.6,2.3-2.7,2.2-2.7,2.2c-.9.7-1.8,1.5-2.8,2.2-1.9,1.4-3.8,2.8-5.7,4.2-1.9,1.4-3.9,2.6-5.8,3.9-1,.6-1.9,1.3-2.9,1.9l-3,1.8-3,1.8c-1,.6-2,1.2-3.1,1.7-2.1,1.1-4.2,2.2-6.3,3.3-2.1,1.1-4.3,2-6.4,3-1.1.5-2.1,1-3.2,1.5l-3.3,1.3-3.3,1.3c-1.1.5-2.2.9-3.3,1.3l-6.7,2.4c-2.2.8-4.5,1.4-6.8,2.1l-3.4,1-3.5.8c-2.3.5-4.6,1.2-6.9,1.6l-7,1.3c-1.2.2-2.3.4-3.5.6l-3.5.5-3.5.5c-1.2.2-2.4.2-3.5.3l-7.2.6-7,.2c-1.2,0-2.3.1-3.5,0h-3.6c0,0-3.6-.1-3.6-.1-1.2,0-2.4,0-3.6-.1l-7.1-.5c-2.4-.2-4.7-.5-7.1-.8l-3.5-.4-3.5-.6c-2.3-.4-4.7-.8-7-1.3l-6.9-1.6c-1.2-.2-2.3-.6-3.4-.9l-3.4-.9-3.4-.9c-1.1-.3-2.2-.7-3.4-1.1-2.2-.8-4.5-1.4-6.7-2.3-2.2-.9-4.4-1.7-6.6-2.5-1.1-.4-2.2-.9-3.3-1.4l-3.2-1.4-3.2-1.4c-1.1-.5-2.1-1.1-3.1-1.6-2.1-1.1-4.2-2.1-6.3-3.2-2-1.2-4.1-2.3-6.1-3.5-1-.6-2-1.2-3-1.8l-3-1.9-3-1.9-2.9-2c-1.9-1.4-3.8-2.6-5.7-4-1.8-1.4-3.7-2.8-5.5-4.3-.9-.7-1.8-1.5-2.7-2.2l-2.6-2.3-2.6-2.3c-.9-.8-1.7-1.6-2.5-2.4-1.7-1.6-3.4-3.1-5-4.8-1.6-1.7-3.2-3.3-4.7-5-12.4-13.4-22.8-28.4-30.7-44.3l-1.5-3-1.4-3c-.9-2-1.8-4-2.7-6-1.6-4.1-3.3-8.1-4.6-12.3-2.9-8.2-5-16.6-6.7-24.9-.7-4.2-1.6-8.3-2-12.5-.2-2.1-.6-4.2-.7-6.2-.2-2.1-.3-4.2-.5-6.2,0-1.1-.2-2-.2-3.2,0-1,0-2,0-3.1,0-2,0-4.1-.1-6.1,0-2.1.1-4.1.1-6.2,0-2,0-4.1.3-6.1.2-2,.3-4,.5-6v-1.5c.1,0,.3-1.5.3-1.5.1-1,.3-2,.4-3,.3-2,.5-3.9.8-5.9.4-1.9.7-3.9,1-5.8.2-1,.3-1.9.5-2.9.2-1,.4-1.9.7-2.8.4-1.9.9-3.8,1.3-5.7.5-1.9,1-3.7,1.6-5.6.5-1.8,1-3.7,1.6-5.5,4.7-14.4,10.9-27.8,18.1-39.9,14.5-24.1,32.9-42.8,51.2-56.2,9.2-6.7,18.3-12.2,27.1-16.6,2.2-1.2,4.4-2.1,6.5-3.1,2.1-1,4.2-2,6.3-2.8,2.1-.8,4.1-1.7,6.1-2.5,2-.7,4-1.4,5.9-2.1,15.5-5.3,28.2-7.4,36.9-8.5,1.1-.1,2.1-.3,3.1-.4,1-.1,1.9-.2,2.7-.2,1.7-.1,3.1-.3,4.2-.3,2.3-.2,3.4-.3,3.4-.3h0ZM591.8,408.1s-1.2,0-3.4.3c-1.1,0-2.5.2-4.2.4-.8,0-1.7.1-2.7.3-1,.1-2,.3-3,.4-8.6,1.1-21.3,3.2-36.7,8.5-1.9.7-3.9,1.4-5.9,2.1-2,.8-4,1.6-6.1,2.5-2.1.8-4.2,1.8-6.3,2.8-2.1,1-4.3,1.9-6.5,3.1-8.8,4.4-17.8,10-26.9,16.7-9.1,6.8-18.2,14.8-26.7,24.2-8.6,9.4-16.7,20.1-23.8,32.1-7,12-13,25.4-17.5,39.7-.6,1.8-1,3.6-1.6,5.4-.5,1.8-1,3.7-1.5,5.5-.4,1.9-.8,3.7-1.2,5.6-.2.9-.4,1.9-.6,2.8-.2.9-.3,1.9-.5,2.9-.3,1.9-.7,3.8-1,5.8-.3,1.9-.5,3.9-.7,5.8-.1,1-.2,2-.3,2.9l-.2,1.5v1.5c-.2,2-.4,4-.5,6-.2,2-.2,4-.2,6,0,2,0,4,0,6,0,2,.1,4.1.2,6.1,0,1,0,2,.1,3.1,0,1,.2,2,.2,3.1.2,2,.3,4.1.5,6.1.2,2.1.5,4.1.8,6.2.5,4.1,1.3,8.2,2.1,12.3,1.8,8.2,3.9,16.4,6.8,24.5,1.3,4.1,3.1,8,4.7,12,.9,2,1.8,3.9,2.7,5.9l1.4,3,1.5,2.9c8,15.5,18.3,30.1,30.6,43.2,1.6,1.6,3.1,3.2,4.7,4.8,1.6,1.6,3.3,3.1,4.9,4.6.8.8,1.6,1.5,2.5,2.3l2.6,2.2,2.6,2.2c.9.7,1.7,1.5,2.6,2.1,1.8,1.4,3.6,2.8,5.4,4.1,1.8,1.4,3.7,2.6,5.6,3.9l2.8,1.9,2.9,1.8,2.9,1.8c1,.6,1.9,1.2,2.9,1.8,2,1.1,4,2.2,6,3.4,2,1.1,4.1,2.1,6.1,3.1,1,.5,2,1,3.1,1.5l3.2,1.4,3.2,1.4c1,.5,2.1.9,3.2,1.3l6.5,2.5c2.2.8,4.4,1.5,6.6,2.2,1.1.4,2.2.7,3.3,1.1l3.3.9,3.3.9c1.1.3,2.2.6,3.4.8l6.8,1.5c2.3.5,4.6.8,6.8,1.2l3.4.6,3.5.4c2.3.2,4.6.6,6.9.8,9.3.8,18.5.8,27.8.4,9.2-.7,18.5-1.8,27.6-3.7,2.3-.4,4.5-1.1,6.8-1.6l3.4-.8,3.3-1c2.2-.7,4.5-1.3,6.7-2l6.6-2.3c1.1-.4,2.2-.8,3.2-1.2l3.2-1.3,3.2-1.3c1.1-.5,2.1-1,3.1-1.4,2.1-1,4.2-1.9,6.3-2.9l6.1-3.2c1-.5,2-1.1,3-1.7l3-1.7,3-1.7c1-.6,1.9-1.3,2.9-1.9,1.9-1.3,3.9-2.5,5.7-3.8,1.9-1.3,3.7-2.7,5.6-4,.9-.7,1.8-1.4,2.7-2.1l2.7-2.1,2.7-2.1,2.6-2.3c1.7-1.5,3.4-3,5.1-4.6,1.6-1.6,3.3-3.2,4.9-4.7.8-.8,1.6-1.6,2.4-2.4l2.3-2.5,2.3-2.5c.7-.8,1.5-1.7,2.2-2.6,1.4-1.7,2.9-3.4,4.3-5.2,1.4-1.8,2.7-3.6,4.1-5.3,10.7-14.4,19.3-30.1,25.3-46.4l1.2-3,1-3.1c.7-2.1,1.4-4.1,2-6.2,1.1-4.2,2.4-8.3,3.2-12.5,2-8.3,3.1-16.8,3.9-25.1.3-4.2.7-8.3.6-12.5,0-2.1.1-4.1,0-6.2,0-2.1-.1-4.1-.2-6.2,0-1,0-2.1-.1-3.1,0-1-.2-2-.3-3-.2-2-.3-4.1-.5-6.1-.2-2-.5-4-.8-6-.3-2-.5-4-.9-5.9-.4-2-.7-3.9-1.1-5.9l-.3-1.5-.3-1.4c-.2-1-.5-1.9-.7-2.9-.5-1.9-.9-3.8-1.4-5.7-.5-1.9-1.1-3.7-1.6-5.6-.3-.9-.5-1.9-.8-2.8-.3-.9-.6-1.8-.9-2.7-.6-1.8-1.3-3.6-1.9-5.4-.7-1.8-1.4-3.5-2.1-5.3-.7-1.7-1.4-3.5-2.2-5.2-6.1-13.7-13.6-26.3-22-37.4-8.4-11.1-17.7-20.8-27.3-29.1-9.6-8.3-19.6-15.2-29.4-20.9-9.8-5.7-19.5-10.1-28.7-13.5-2.3-.9-4.6-1.6-6.8-2.4-2.2-.7-4.4-1.5-6.6-2-2.2-.6-4.3-1.2-6.3-1.7-2.1-.5-4.1-.9-6.1-1.4-15.9-3.5-28.8-4.1-37.5-4.2-1.1,0-2.1,0-3.1,0-1,0-1.9,0-2.7,0-1.7,0-3.1.1-4.2.1-2.3,0-3.4.1-3.4.1h0Z"/>
      <path d="M837.7,583.6s0,1.5.1,4.3c0,1.4.1,3.2.2,5.2,0,1,.1,2.2,0,3.4,0,1.2,0,2.5,0,3.9,0,10.9-.9,27-5.1,46.9-.6,2.5-1.1,5-1.7,7.7-.7,2.6-1.4,5.2-2.2,8-.7,2.7-1.6,5.5-2.5,8.3-.9,2.8-1.8,5.7-2.9,8.5-4.2,11.5-9.7,23.7-16.7,36-7,12.3-15.6,24.8-26,37-10.4,12.1-22.4,23.9-36.3,34.6-13.9,10.7-29.6,20.2-46.8,28.1-2.1,1.1-4.4,1.9-6.5,2.8-2.2.9-4.4,1.9-6.7,2.7-2.3.8-4.5,1.6-6.8,2.4-1.1.4-2.3.8-3.4,1.2-1.2.4-2.3.7-3.5,1.1-2.3.7-4.7,1.4-7,2.1-2.4.7-4.8,1.2-7.2,1.8-1.2.3-2.4.6-3.6.9l-1.8.4-1.8.4c-2.5.5-4.9,1-7.4,1.4-2.5.5-5,.8-7.5,1.2-2.5.4-5,.7-7.6,1.1-2.5.2-5.1.5-7.6.7-1.3.1-2.6.2-3.8.4-.1,0-.4,0-.5,0h-.5s-1,0-1,0h-1.9c-2.6.2-5.1.3-7.7.4-2.6,0-5.2,0-7.9,0-5.3,0-10.5-.4-15.8-.7-10.5-.9-21.2-2.3-31.8-4.7-5.3-1-10.5-2.6-15.8-4-2.6-.8-5.2-1.7-7.8-2.5l-3.9-1.3-3.9-1.4c-20.7-7.5-40.7-18.3-59.1-31.7-2.3-1.7-4.5-3.4-6.8-5.2-2.2-1.8-4.4-3.7-6.6-5.5-1.1-.9-2.2-1.8-3.3-2.8l-3.2-2.9-3.2-2.9c-1.1-1-2.1-1.9-3.1-3-2-2.1-4-4.1-6.1-6.2-2-2.1-3.9-4.3-5.8-6.4-1-1.1-1.9-2.2-2.9-3.2l-2.7-3.4-2.7-3.4c-.9-1.1-1.8-2.2-2.7-3.4-1.7-2.3-3.4-4.7-5.2-7-1.7-2.4-3.2-4.8-4.9-7.3-.8-1.2-1.6-2.4-2.4-3.7l-2.2-3.8-2.2-3.8-1.1-1.9c-.4-.6-.7-1.3-1-1.9-1.4-2.6-2.7-5.2-4.1-7.8-1.3-2.6-2.5-5.3-3.8-8-.6-1.3-1.3-2.7-1.8-4l-1.7-4.1-1.7-4.1-.8-2c-.3-.7-.5-1.4-.7-2.1l-2.9-8.3c-.5-1.4-.9-2.8-1.3-4.2l-1.3-4.2-1.2-4.2-1-4.3-1-4.3c-.3-1.4-.7-2.9-1-4.3l-1.6-8.7c-.1-.7-.3-1.4-.4-2.2l-.3-2.2-.6-4.4-.6-4.4c-.2-1.5-.3-2.9-.4-4.4l-.8-8.9-.3-8.7c0-1.5-.1-2.9,0-4.4v-4.5c0,0,.2-4.5.2-4.5v-2.2c0-.7.1-1.5.2-2.2l.6-8.8c0-1.5.3-2.9.5-4.4l.5-4.4.5-4.4.7-4.4.7-4.4c.3-1.4.5-2.9.8-4.3l1.9-8.6c.2-.7.3-1.4.5-2.2l.6-2.1,1.2-4.3,1.2-4.3c.4-1.4.9-2.8,1.4-4.2.9-2.8,1.8-5.6,2.8-8.3,1.1-2.7,2.1-5.5,3.2-8.2.3-.7.5-1.4.8-2l.9-2,1.8-4,1.8-4c.6-1.3,1.3-2.6,2-3.9,1.3-2.6,2.6-5.2,4-7.8,1.4-2.5,2.9-5.1,4.3-7.6.7-1.3,1.5-2.5,2.3-3.7l2.3-3.7,2.3-3.7c.8-1.2,1.7-2.4,2.5-3.6,1.7-2.4,3.3-4.8,5-7.1,1.8-2.3,3.5-4.6,5.3-6.8.9-1.2,1.8-2.2,2.7-3.3l2.8-3.3,2.8-3.3c1-1.1,2-2.1,2.9-3.1,2-2.1,3.9-4.2,5.9-6.2,2.1-2,4.1-3.9,6.2-5.9,16.7-15.5,35.3-28.4,55-38.3l3.7-1.9,3.8-1.7c2.5-1.1,5-2.3,7.5-3.4,5.1-2,10.1-4.1,15.3-5.8,10.2-3.6,20.6-6.2,31-8.4,5.2-.9,10.4-2,15.6-2.5,2.6-.3,5.2-.7,7.8-.9,2.6-.2,5.2-.4,7.8-.6,1.3,0,2.5-.2,3.9-.3,1.3,0,2.6,0,3.8,0,2.5,0,5.1-.1,7.6-.2,2.6,0,5.1.1,7.7.2,2.5,0,5.1,0,7.6.3,2.5.2,5,.4,7.5.6h1.9c0,.1,1.9.4,1.9.4,1.2.2,2.5.3,3.7.5,2.5.3,4.9.6,7.3,1,2.4.4,4.8.9,7.2,1.3,1.2.2,2.4.4,3.6.7,1.2.3,2.4.5,3.6.8,2.4.5,4.7,1.1,7.1,1.6,2.3.6,4.6,1.3,6.9,1.9,2.3.7,4.6,1.2,6.8,2,18,5.8,34.7,13.5,49.7,22.4,1.9,1.1,3.7,2.3,5.5,3.5,1.8,1.2,3.7,2.3,5.4,3.5,1.7,1.2,3.5,2.5,5.2,3.7,1.7,1.2,3.5,2.4,5.1,3.7,6.6,5.1,13,10.3,18.8,15.7,11.7,10.8,21.7,22.3,30.1,33.7,8.4,11.4,15.3,22.8,20.8,33.8,1.5,2.7,2.7,5.5,3.9,8.1,1.2,2.7,2.5,5.3,3.5,7.9,1.1,2.6,2.1,5.2,3.1,7.6.9,2.5,1.7,5,2.6,7.4,6.6,19.3,9.2,35.2,10.6,46,.2,1.4.3,2.6.5,3.8.2,1.2.2,2.3.3,3.3.2,2.1.3,3.8.4,5.2.2,2.8.3,4.3.3,4.3h0ZM837.2,583.6s-.1-1.4-.4-4.2c-.1-1.4-.3-3.1-.4-5.2-.1-1-.1-2.2-.3-3.3-.2-1.2-.3-2.5-.5-3.8-1.3-10.8-4-26.6-10.6-45.9-.8-2.4-1.7-4.9-2.6-7.4-1-2.5-2-5-3.1-7.6-1-2.6-2.3-5.2-3.5-7.9-1.3-2.7-2.4-5.4-3.9-8.1-5.5-10.9-12.4-22.3-20.9-33.6-8.4-11.3-18.5-22.7-30.2-33.4-11.7-10.7-25-20.9-40.1-29.7-15-8.8-31.7-16.3-49.6-21.9-2.2-.8-4.5-1.3-6.8-2-2.3-.6-4.6-1.3-6.9-1.9-2.3-.5-4.7-1-7-1.6-1.2-.3-2.3-.5-3.5-.8-1.2-.2-2.4-.4-3.6-.6-2.4-.4-4.8-.8-7.2-1.2-2.4-.4-4.9-.6-7.3-.9-1.2-.1-2.4-.3-3.7-.4l-1.8-.2h-1.9c-2.5-.3-4.9-.5-7.4-.6-2.5-.2-5-.2-7.5-.3-2.5,0-5-.1-7.5-.1-2.5,0-5.1.2-7.6.3-1.3,0-2.5,0-3.8.1-1.3,0-2.5.2-3.8.3-2.5.2-5.1.4-7.7.6-2.6.2-5.1.7-7.7,1-5.2.6-10.2,1.7-15.4,2.6-10.2,2.2-20.5,4.9-30.5,8.5-5.1,1.6-10,3.8-15,5.8-2.5,1.1-4.9,2.3-7.4,3.4l-3.7,1.7-3.6,1.9c-19.4,9.9-37.6,22.8-53.9,38.2-2,2-4,3.9-6,5.9-2,2-3.9,4.1-5.8,6.1-1,1-1.9,2-2.9,3.1l-2.7,3.2-2.7,3.2c-.9,1.1-1.8,2.1-2.7,3.3-1.7,2.2-3.5,4.5-5.2,6.7-1.7,2.3-3.3,4.6-4.9,7-.8,1.2-1.6,2.3-2.4,3.5l-2.3,3.6-2.3,3.6c-.8,1.2-1.5,2.4-2.2,3.7-1.4,2.5-2.8,5-4.2,7.5-1.4,2.5-2.6,5.1-3.9,7.7-.6,1.3-1.3,2.6-1.9,3.9l-1.7,3.9-1.7,3.9-.9,2c-.3.7-.5,1.3-.8,2-1,2.7-2.1,5.4-3.1,8.1-1,2.7-1.8,5.5-2.7,8.2-.4,1.4-.9,2.7-1.3,4.1l-1.1,4.2-1.1,4.2-.6,2.1c-.2.7-.3,1.4-.5,2.1l-1.9,8.5c-.3,1.4-.5,2.8-.8,4.3l-.7,4.3-.7,4.3-.5,4.3-.5,4.3c-.2,1.4-.4,2.9-.4,4.3l-.6,8.7c0,.7-.1,1.4-.1,2.2v2.2s-.1,4.3-.1,4.3v4.3c-.1,1.4,0,2.9,0,4.4l.3,8.7.7,8.7c.1,1.4.2,2.9.4,4.3l.6,4.3.6,4.3.3,2.2c.1.7.3,1.4.4,2.1l1.6,8.5c.2,1.4.6,2.8.9,4.2l1,4.2,1,4.2,1.2,4.2,1.2,4.2c.4,1.4.8,2.8,1.3,4.1l2.8,8.2c.2.7.5,1.4.7,2l.8,2,1.6,4,1.6,4c.6,1.3,1.2,2.6,1.8,3.9,1.2,2.6,2.4,5.3,3.7,7.8,1.3,2.6,2.7,5.1,4,7.6.3.6.7,1.3,1,1.9l1.1,1.9,2.2,3.7,2.2,3.7c.8,1.2,1.6,2.4,2.3,3.6,1.6,2.4,3.1,4.8,4.7,7.2,1.7,2.3,3.4,4.6,5,6.9.8,1.2,1.7,2.3,2.6,3.4l2.7,3.3,2.7,3.3c.9,1.1,1.9,2.1,2.8,3.2,1.9,2.1,3.7,4.3,5.7,6.3,2,2,4,4.1,5.9,6.1,1,1,2,2,3,3l3.1,2.9,3.1,2.9c1.1.9,2.1,1.8,3.2,2.7,2.2,1.8,4.3,3.7,6.5,5.4,2.2,1.7,4.4,3.4,6.7,5.1,18,13.3,37.6,24,58,31.6l3.8,1.5,3.9,1.3c2.6.8,5.1,1.7,7.7,2.5,5.2,1.4,10.3,3,15.6,4,10.4,2.5,20.9,3.9,31.3,4.9,5.2.3,10.4.8,15.6.8,2.6,0,5.2.1,7.7,0,2.6,0,5.1-.2,7.7-.3,1.3,0,2.6,0,3.8-.1,1.3-.1,2.5-.2,3.8-.3,2.5-.2,5.1-.4,7.6-.6,2.5-.3,5-.7,7.5-1,2.5-.3,5-.6,7.4-1.1,2.5-.5,4.9-.9,7.3-1.4l1.8-.3,1.8-.4c1.2-.3,2.4-.6,3.6-.9,2.4-.6,4.8-1.1,7.1-1.8,2.3-.7,4.7-1.4,7-2.1,1.2-.3,2.3-.7,3.5-1,1.1-.4,2.3-.8,3.4-1.2,2.3-.8,4.5-1.6,6.8-2.4,2.2-.8,4.4-1.8,6.6-2.6,2.2-.9,4.4-1.7,6.5-2.7,17.1-7.7,32.8-17,46.7-27.5,13.9-10.5,26-22.1,36.4-34.1,10.4-12,19-24.4,26.1-36.7,7.1-12.3,12.6-24.3,16.8-35.8,1.2-2.8,2-5.7,2.9-8.5.9-2.8,1.9-5.5,2.5-8.2.7-2.7,1.5-5.3,2.2-7.9.6-2.6,1.2-5.2,1.7-7.6,4.3-19.9,5.1-35.9,5.2-46.8,0-1.4,0-2.6,0-3.8,0-1.2,0-2.3,0-3.4,0-2.1-.1-3.8-.2-5.2,0-2.8-.1-4.3-.1-4.3h0Z"/>
      <path d="M618,857.4s-1.6,0-4.7.2c-1.5,0-3.5.1-5.7.2-1.1,0-2.4.1-3.7,0-1.3,0-2.7,0-4.2,0-12,0-29.7-.9-51.6-5.7-2.7-.6-5.5-1.2-8.4-1.9-2.8-.8-5.8-1.6-8.7-2.4-3-.8-6-1.8-9.1-2.8-3.1-1-6.2-2-9.4-3.2-12.7-4.6-26-10.6-39.6-18.4-13.5-7.7-27.3-17.2-40.6-28.6-6.7-5.7-13.2-11.9-19.6-18.5-1.7-1.6-3.1-3.4-4.7-5.1-1.6-1.7-3.1-3.5-4.7-5.2-1.5-1.8-3-3.6-4.5-5.5-1.5-1.9-3.1-3.7-4.5-5.6-11.7-15.3-22.2-32.5-30.8-51.4l-.8-1.8c-.3-.6-.5-1.2-.8-1.8-.5-1.2-1-2.4-1.5-3.6-1-2.4-2-4.8-3-7.3-.9-2.5-1.8-5-2.7-7.5-.4-1.3-.9-2.5-1.3-3.8-.4-1.3-.8-2.6-1.2-3.8-.8-2.6-1.5-5.2-2.3-7.7-.4-1.3-.7-2.6-1-3.9-.3-1.3-.7-2.6-1-4-.3-1.3-.7-2.6-1-4l-.5-2-.4-2c-.5-2.7-1-5.4-1.6-8.1-.6-2.7-.9-5.5-1.3-8.2-.4-2.8-.8-5.5-1.2-8.3-.3-2.8-.5-5.6-.8-8.4-.1-1.4-.3-2.8-.4-4.2,0-.1,0-.4,0-.6v-.5s0-1.1,0-1.1v-2.1c-.2-2.8-.3-5.6-.4-8.5,0-1.4,0-2.9,0-4.3,0-1.4,0-2.9,0-4.3,0-5.8.4-11.6.8-17.4,1-11.6,2.5-23.3,5.2-34.9,1.1-5.8,2.8-11.6,4.4-17.4.9-2.9,1.8-5.7,2.7-8.6l1.4-4.3,1.6-4.2c8.3-22.8,20.1-44.7,34.8-64.9,1.9-2.5,3.8-5,5.7-7.5,1.9-2.5,4-4.8,6-7.2,1-1.2,2-2.4,3-3.6l3.2-3.5,3.2-3.5c1.1-1.2,2.1-2.3,3.3-3.4,2.3-2.2,4.5-4.4,6.8-6.7,1.1-1.1,2.3-2.1,3.5-3.2l3.6-3.2c1.2-1.1,2.4-2.1,3.6-3.2l3.7-3,3.7-3c1.2-1,2.5-2,3.8-2.9,2.6-1.9,5.2-3.8,7.7-5.7,1.3-1,2.6-1.8,4-2.7l4-2.6c1.3-.9,2.7-1.8,4-2.6l4.1-2.5,4.1-2.5,2.1-1.2c.7-.4,1.4-.8,2.1-1.1,2.8-1.5,5.7-3,8.5-4.5,2.9-1.5,5.8-2.7,8.7-4.1,1.5-.7,2.9-1.4,4.4-2l4.5-1.8,4.5-1.8,2.2-.9c.7-.3,1.5-.5,2.3-.8l9.2-3.2c1.5-.6,3.1-1,4.6-1.4l4.7-1.4,4.7-1.4,4.7-1.1,4.7-1.1c1.6-.4,3.1-.8,4.7-1.1l9.6-1.8c.8-.1,1.6-.3,2.4-.4l2.4-.3,4.8-.7,4.8-.7c1.6-.2,3.2-.3,4.8-.5l9.8-.8,9.6-.3c1.6,0,3.2-.1,4.8-.1h4.9c0,0,4.9.2,4.9.2h2.5c.8,0,1.6.2,2.4.2l9.7.7c1.6,0,3.2.3,4.8.5l4.8.6,4.8.6,4.8.8,4.8.8c1.6.3,3.2.5,4.8.9l9.5,2.1c.8.2,1.6.3,2.4.5l2.3.6,4.7,1.3,4.7,1.3c1.5.5,3.1,1,4.6,1.5,3.1,1,6.1,2,9.2,3.1,3,1.2,6,2.3,9,3.5.7.3,1.5.6,2.2.9l2.2,1,4.4,2,4.4,2c1.4.7,2.9,1.4,4.3,2.1l4.3,2.2c1.4.7,2.9,1.4,4.3,2.2,2.8,1.6,5.6,3.2,8.3,4.7,1.4.8,2.7,1.6,4.1,2.5l4,2.6,4,2.6c1.3.9,2.6,1.8,3.9,2.7l3.9,2.7c1.3.9,2.6,1.8,3.9,2.8,2.5,1.9,5,3.9,7.5,5.8,1.3.9,2.5,2,3.7,3l3.6,3.1,3.6,3.1c1.2,1.1,2.3,2.1,3.4,3.2,2.3,2.2,4.6,4.3,6.8,6.5,2.2,2.3,4.3,4.5,6.5,6.8,17,18.3,31.2,38.7,42.1,60.4l2.1,4,1.9,4.1c1.2,2.8,2.5,5.5,3.7,8.2,2.2,5.6,4.6,11.1,6.3,16.8,4,11.2,6.8,22.7,9.2,34,1,5.7,2.2,11.4,2.8,17.1.3,2.9.8,5.7,1,8.5.2,2.8.4,5.7.7,8.5.1,1.4.2,2.8.3,4.3,0,1.4,0,2.8.1,4.2,0,2.8.1,5.6.2,8.4,0,2.8-.1,5.6-.2,8.4,0,2.8,0,5.6-.4,8.3-.2,2.8-.4,5.5-.6,8.2l-.2,2.1-.3,2c-.2,1.4-.3,2.7-.5,4.1-.2,1.4-.3,2.7-.5,4-.2,1.3-.3,2.7-.6,4-.5,2.7-.9,5.3-1.4,8-.2,1.3-.5,2.6-.7,4-.3,1.3-.6,2.6-.9,3.9-.6,2.6-1.2,5.2-1.8,7.8-.7,2.6-1.4,5.1-2.1,7.6-.4,1.3-.7,2.5-1.1,3.8-.2.6-.3,1.3-.5,1.9l-.6,1.8c-6.4,19.8-14.8,38.1-24.6,54.7-1.2,2.1-2.6,4.1-3.8,6.1-1.3,2-2.5,4-3.8,6-1.4,1.9-2.7,3.8-4.1,5.7-1.4,1.9-2.6,3.8-4.1,5.6-5.6,7.3-11.3,14.3-17.3,20.7-11.9,12.9-24.4,23.9-37,33.1-12.6,9.3-25.1,16.8-37.2,22.9-3,1.6-6,2.9-8.9,4.3-2.9,1.4-5.8,2.7-8.7,3.8-2.9,1.2-5.7,2.3-8.4,3.4-2.8,1-5.5,1.9-8.1,2.8-21.2,7.2-38.7,10.2-50.6,11.6-1.5.2-2.9.4-4.2.6-1.3.2-2.5.2-3.7.3-2.3.2-4.2.3-5.7.5-3.1.3-4.7.4-4.7.4h0ZM618,856.9s1.6-.1,4.7-.4c1.5-.1,3.5-.3,5.7-.5,1.1-.1,2.4-.2,3.7-.3,1.3-.2,2.7-.4,4.2-.6,11.9-1.5,29.3-4.4,50.4-11.7,2.6-.9,5.3-1.9,8.1-2.8,2.7-1.1,5.5-2.2,8.4-3.4,2.9-1.1,5.7-2.5,8.7-3.8,2.9-1.4,6-2.7,8.9-4.3,12-6,24.5-13.7,37-23,12.5-9.3,24.9-20.3,36.7-33.2,11.8-12.9,23-27.5,32.6-44.1,9.7-16.5,17.9-34.8,24.1-54.5l.6-1.8c.2-.6.3-1.2.5-1.9.3-1.2.7-2.5,1-3.8.7-2.5,1.4-5,2-7.6.6-2.6,1.1-5.1,1.7-7.7.3-1.3.6-2.6.9-3.9.3-1.3.5-2.6.7-3.9.4-2.6.9-5.3,1.3-7.9.3-1.3.4-2.7.5-4,.2-1.3.3-2.7.5-4,.2-1.3.3-2.7.5-4l.2-2v-2c.3-2.7.5-5.4.7-8.2.2-2.7.2-5.5.3-8.2,0-2.8.1-5.5.1-8.3,0-2.8-.2-5.6-.3-8.4,0-1.4,0-2.8-.1-4.2,0-1.4-.2-2.8-.3-4.2-.2-2.8-.5-5.6-.7-8.4-.3-2.8-.7-5.6-1.1-8.4-.6-5.7-1.8-11.3-2.9-16.9-2.5-11.2-5.3-22.5-9.4-33.6-1.8-5.6-4.2-11-6.4-16.5-1.2-2.7-2.5-5.4-3.7-8.1l-1.9-4.1-2.1-4c-10.9-21.3-25.1-41.3-42-59.3-2.1-2.2-4.3-4.4-6.5-6.6-2.2-2.2-4.5-4.2-6.7-6.4-1.1-1.1-2.3-2.1-3.4-3.2l-3.5-3-3.6-3c-1.2-1-2.4-2-3.6-2.9-2.5-1.9-4.9-3.8-7.4-5.7-1.2-1-2.5-1.8-3.8-2.7l-3.8-2.7c-1.3-.9-2.6-1.8-3.9-2.7l-4-2.5-4-2.5c-1.3-.8-2.7-1.7-4-2.4-2.7-1.5-5.5-3.1-8.2-4.6-1.4-.8-2.8-1.4-4.2-2.2l-4.2-2.1c-1.4-.7-2.8-1.4-4.2-2.1l-4.3-1.9-4.3-1.9-2.2-1c-.7-.3-1.5-.6-2.2-.9-3-1.1-5.9-2.3-8.9-3.4-3-1.1-6-2-9-3-1.5-.5-3-1-4.5-1.5l-4.6-1.3-4.6-1.3-2.3-.6c-.8-.2-1.5-.4-2.3-.5l-9.3-2.1c-1.5-.4-3.1-.6-4.7-.9l-4.7-.8-4.7-.8-4.7-.6-4.7-.6c-1.6-.2-3.2-.4-4.8-.5l-9.5-.6c-.8,0-1.6-.1-2.4-.1h-2.4s-4.8-.1-4.8-.1h-4.8c-1.6-.1-3.2,0-4.8,0l-9.6.3-9.5.8c-1.6.2-3.2.2-4.8.4l-4.7.6-4.7.6-2.4.3c-.8.1-1.6.3-2.4.4l-9.4,1.8c-1.6.3-3.1.7-4.7,1l-4.6,1.1-4.6,1.1-4.6,1.3-4.6,1.3c-1.5.5-3.1.8-4.6,1.4l-9,3.1c-.7.3-1.5.5-2.2.8l-2.2.9-4.4,1.8-4.4,1.8c-1.5.6-2.9,1.3-4.3,2-2.9,1.4-5.8,2.6-8.6,4-2.8,1.5-5.6,2.9-8.4,4.4-.7.4-1.4.7-2.1,1.1l-2,1.2-4.1,2.4-4.1,2.4c-1.3.8-2.6,1.7-4,2.6l-4,2.6c-1.3.9-2.7,1.7-3.9,2.6-2.5,1.8-5.1,3.7-7.6,5.5-1.3.9-2.5,1.9-3.7,2.9l-3.7,2.9-3.7,2.9c-1.2,1-2.3,2.1-3.5,3.1l-3.5,3.1c-1.2,1-2.4,2-3.5,3.1-2.2,2.2-4.5,4.3-6.7,6.5-1.1,1.1-2.2,2.2-3.2,3.3l-3.2,3.4-3.2,3.4c-1,1.2-2,2.4-3,3.5-2,2.4-4,4.7-6,7.1-1.9,2.4-3.8,4.9-5.6,7.3-14.7,19.8-26.4,41.3-34.8,63.7l-1.6,4.2-1.4,4.2c-.9,2.8-1.9,5.6-2.8,8.5-1.5,5.7-3.3,11.4-4.4,17.1-2.7,11.4-4.3,23-5.4,34.5-.4,5.7-.9,11.5-.9,17.1,0,2.8-.2,5.7,0,8.5,0,2.8.2,5.7.3,8.5,0,1.4,0,2.8.2,4.2.1,1.4.2,2.8.4,4.2.2,2.8.5,5.6.7,8.3.3,2.8.7,5.5,1.1,8.2.4,2.7.7,5.5,1.2,8.2.5,2.7,1,5.4,1.5,8.1l.4,2,.5,2c.3,1.3.6,2.6.9,4,.3,1.3.6,2.6.9,3.9.3,1.3.6,2.6,1,3.9.8,2.6,1.5,5.1,2.3,7.7.4,1.3.7,2.6,1.1,3.8.4,1.3.9,2.5,1.3,3.8.9,2.5,1.7,5,2.6,7.5.9,2.5,1.9,4.9,2.9,7.3.5,1.2,1,2.4,1.5,3.6.2.6.5,1.2.7,1.8l.8,1.8c8.4,18.8,18.7,36,30.3,51.3,11.5,15.3,24.3,28.6,37.5,40,13.2,11.4,26.9,20.9,40.3,28.7,13.5,7.8,26.7,13.9,39.4,18.5,3.1,1.3,6.3,2.2,9.3,3.2,3.1,1,6.1,2,9,2.8,3,.8,5.9,1.6,8.7,2.4,2.9.6,5.7,1.3,8.4,1.9,21.8,4.7,39.5,5.7,51.4,5.7,1.5,0,2.9,0,4.2,0,1.3,0,2.6,0,3.7,0,2.3,0,4.2-.1,5.8-.2,3.1-.1,4.7-.2,4.7-.2h0Z"/>
    </g>
    <g>
      <path d="M669.7,377.7s-.3,2-.8,4.9c-.3,1.5-.6,3.2-.9,5-.3,1.8-.8,3.7-1.2,5.7-.4,1.9-.6,3.9-1.1,5.7-.5,1.8-1.3,3.3-2,4.7-.4.7-.7,1.3-1.1,1.8-.3.5-.7,1-.9,1.3-.6.7-1,1.1-1,1.1h-.4c0-.1-.1-.7-.2-1.6,0-.5,0-1,0-1.6,0-.6,0-1.3,0-2.1.1-1.5.4-3.2.9-5,.6-1.8,1.5-3.5,2.2-5.4.7-1.8,1.4-3.7,2.1-5.4.7-1.7,1.4-3.3,1.9-4.7,1.2-2.7,2-4.5,2-4.5h.4Z"/>
      <path d="M551,373.7s.7,1.8,1.7,4.6c.5,1.4,1.1,3,1.7,4.8.6,1.7,1.2,3.6,1.8,5.5.6,1.9,1.4,3.7,1.9,5.5.4,1.8.6,3.5.6,5,0,.8,0,1.4,0,2.1,0,.6,0,1.2-.2,1.6-.1.9-.3,1.4-.3,1.4h-.4c0,.1-.4-.3-.9-1.1-.3-.4-.6-.8-.9-1.4-.3-.5-.6-1.2-1-1.8-.6-1.4-1.3-3-1.7-4.8-.4-1.8-.5-3.8-.8-5.7-.3-1.9-.6-3.9-.9-5.7-.3-1.8-.5-3.5-.7-5-.4-2.9-.5-4.9-.5-4.9h.4Z"/>
      <path d="M512.9,386.1s1,1.7,2.5,4.3c.7,1.3,1.6,2.8,2.5,4.4.9,1.6,1.8,3.4,2.7,5.1.9,1.7,2,3.4,2.8,5.1.7,1.7,1.2,3.4,1.5,4.8.2.7.3,1.4.3,2,0,.6.1,1.2.1,1.6,0,.9,0,1.5,0,1.5l-.4.2s-.4-.3-1.1-1c-.3-.3-.7-.7-1.1-1.2-.4-.5-.8-1-1.3-1.6-.9-1.2-1.8-2.7-2.5-4.4-.7-1.7-1.1-3.7-1.8-5.5-.6-1.9-1.3-3.7-1.8-5.5-.6-1.8-1.1-3.4-1.5-4.8-.9-2.8-1.4-4.7-1.4-4.7l.4-.2Z"/>
      <path d="M477.6,404.9s1.3,1.5,3.2,3.8c.9,1.1,2,2.5,3.2,3.9,1.2,1.4,2.4,3,3.6,4.5,1.2,1.6,2.6,3,3.6,4.5,1,1.5,1.7,3.1,2.3,4.5.3.7.5,1.4.7,2,.2.6.3,1.1.4,1.6.2.9.2,1.5.2,1.5l-.4.3s-.5-.3-1.2-.8c-.4-.3-.8-.6-1.3-1-.5-.4-1-.9-1.5-1.4-1.1-1.1-2.2-2.4-3.2-3.9-1-1.6-1.7-3.4-2.7-5.1-.9-1.7-1.9-3.4-2.8-5.1-.9-1.6-1.7-3.2-2.3-4.5-1.3-2.6-2.2-4.4-2.2-4.4l.4-.3Z"/>
      <path d="M446.1,429.6s1.5,1.2,3.8,3.2c1.1,1,2.4,2.1,3.8,3.3,1.4,1.2,2.8,2.5,4.3,3.9,1.4,1.3,3.1,2.5,4.4,3.8,1.3,1.3,2.3,2.8,3,4,.4.6.7,1.2,1,1.8.3.6.5,1.1.7,1.5.4.8.5,1.4.5,1.4l-.3.3s-.5-.2-1.4-.6c-.4-.2-.9-.5-1.4-.8-.5-.3-1.1-.7-1.7-1.1-1.2-.9-2.6-1.9-3.9-3.3-1.2-1.4-2.3-3.1-3.5-4.6-1.2-1.5-2.5-3.1-3.6-4.5-1.1-1.5-2.2-2.8-3.1-4-1.8-2.4-2.9-4-2.9-4l.3-.3Z"/>
      <path d="M419.4,459.3s1.7,1,4.3,2.4c1.3.8,2.8,1.6,4.3,2.6,1.6.9,3.2,2,4.9,3,1.7,1.1,3.5,1.9,5,3,1.5,1.1,2.7,2.3,3.7,3.4.5.6.9,1.1,1.3,1.6.4.5.7,1,.9,1.3.5.8.7,1.3.7,1.3l-.3.4s-.6,0-1.4-.3c-.4-.1-1-.3-1.6-.5-.6-.2-1.2-.5-1.9-.8-1.4-.6-2.9-1.5-4.4-2.6-1.5-1.1-2.8-2.6-4.3-3.9-1.5-1.3-3-2.6-4.3-3.8-1.4-1.2-2.6-2.4-3.7-3.4-2.2-2-3.6-3.4-3.6-3.4l.3-.4Z"/>
      <path d="M398.2,493.3s1.9.6,4.7,1.7c1.4.5,3,1.1,4.7,1.8,1.7.7,3.5,1.4,5.4,2.1,1.8.8,3.7,1.3,5.4,2.1,1.6.8,3.1,1.8,4.2,2.7.6.5,1.1.9,1.6,1.4.5.4.8.8,1.1,1.2.6.7.9,1.1.9,1.1l-.2.4s-.6,0-1.5,0c-.5,0-1-.1-1.6-.2-.6-.1-1.3-.3-2-.5-1.4-.4-3.1-.9-4.7-1.8-1.6-.9-3.2-2.1-4.9-3.1-1.7-1-3.4-2-4.9-3-1.6-1-3-1.9-4.3-2.7-2.5-1.6-4.1-2.7-4.1-2.7l.2-.4Z"/>
      <path d="M383.3,530.4s2,.3,4.9.8c1.5.3,3.2.6,5,.9,1.8.3,3.7.8,5.7,1.2,1.9.4,3.9.6,5.7,1.1,1.8.5,3.3,1.3,4.7,2,.7.4,1.3.7,1.8,1.1.5.3,1,.7,1.3.9.7.6,1.1,1,1.1,1v.4c-.1,0-.7.1-1.6.2-.5,0-1,0-1.6,0-.6,0-1.3,0-2.1,0-1.5-.1-3.2-.4-5-.9-1.8-.6-3.5-1.5-5.4-2.2-1.8-.7-3.7-1.4-5.4-2.1-1.7-.7-3.3-1.4-4.7-1.9-2.7-1.2-4.5-2-4.5-2v-.4Z"/>
      <path d="M375,569.5s2,0,4.9,0c1.5,0,3.2,0,5.1,0,1.8,0,3.8.1,5.8.2,2,0,4,0,5.8.1,1.8.2,3.5.7,4.9,1.1.7.2,1.4.5,1.9.7.6.2,1.1.5,1.5.7.8.4,1.3.7,1.3.7v.5c0,0-.6.2-1.5.4-.4.1-1,.2-1.6.3-.6.1-1.3.2-2.1.3-1.5.1-3.2.2-5.1,0-1.8-.2-3.7-.9-5.7-1.2-1.9-.4-3.9-.7-5.7-1.2-1.8-.4-3.5-.8-4.9-1.1-2.9-.7-4.8-1.2-4.8-1.2v-.5Z"/>
      <path d="M379.2,649.1s1.8-.7,4.6-1.7c1.4-.5,3-1.1,4.8-1.7,1.7-.6,3.6-1.2,5.5-1.8,1.9-.6,3.7-1.4,5.5-1.9,1.8-.4,3.5-.6,5-.6.7,0,1.4,0,2.1,0,.6,0,1.2,0,1.6.2.9.1,1.5.3,1.5.3v.4c.1,0-.3.4-1.1.9-.4.3-.8.6-1.4.9-.5.3-1.2.6-1.8,1-1.4.6-3,1.3-4.8,1.7-1.8.4-3.8.5-5.7.8-1.9.3-3.9.6-5.7.9-1.8.3-3.5.5-5,.7-2.9.4-4.9.5-4.9.5v-.4Z"/>
      <path d="M379.2,649.1s1.8-.7,4.6-1.7c1.4-.5,3-1.1,4.8-1.7,1.7-.6,3.6-1.2,5.5-1.8,1.9-.6,3.7-1.4,5.5-1.9,1.8-.4,3.5-.6,5-.6.7,0,1.4,0,2.1,0,.6,0,1.2,0,1.6.2.9.1,1.5.3,1.5.3v.4c.1,0-.3.4-1.1.9-.4.3-.8.6-1.4.9-.5.3-1.2.6-1.8,1-1.4.6-3,1.3-4.8,1.7-1.8.4-3.8.5-5.7.8-1.9.3-3.9.6-5.7.9-1.8.3-3.5.5-5,.7-2.9.4-4.9.5-4.9.5v-.4Z"/>
      <path d="M391.6,687.2s1.7-1,4.3-2.5c1.3-.7,2.8-1.6,4.4-2.5,1.6-.9,3.4-1.8,5.1-2.7,1.7-.9,3.4-2,5.1-2.8,1.7-.7,3.4-1.2,4.8-1.5.7-.2,1.4-.3,2-.3.6,0,1.2-.1,1.6-.1.9,0,1.5,0,1.5,0l.2.4s-.3.4-1,1.1c-.3.3-.7.7-1.2,1.1-.5.4-1,.8-1.6,1.3-1.2.9-2.7,1.8-4.4,2.5-1.7.7-3.7,1.1-5.5,1.8-1.9.6-3.7,1.3-5.5,1.8-1.8.6-3.4,1.1-4.8,1.5-2.8.9-4.7,1.4-4.7,1.4l-.2-.4Z"/>
      <path d="M410.5,722.5s1.5-1.3,3.8-3.2c1.1-.9,2.5-2,3.9-3.2,1.4-1.2,3-2.4,4.5-3.6,1.6-1.2,3-2.6,4.5-3.6,1.5-1,3.1-1.7,4.5-2.3.7-.3,1.4-.5,2-.7.6-.2,1.1-.3,1.6-.4.9-.2,1.5-.2,1.5-.2l.3.4s-.3.5-.8,1.2c-.3.4-.6.8-1,1.3-.4.5-.9,1-1.4,1.5-1.1,1.1-2.4,2.2-3.9,3.2-1.6,1-3.4,1.7-5.1,2.7-1.7.9-3.4,1.9-5.1,2.8-1.6.9-3.2,1.7-4.5,2.3-2.6,1.3-4.4,2.2-4.4,2.2l-.3-.4Z"/>
      <path d="M435.1,754s1.2-1.5,3.2-3.8c1-1.1,2.1-2.4,3.3-3.8,1.2-1.4,2.5-2.8,3.9-4.3,1.3-1.4,2.5-3.1,3.8-4.4,1.3-1.3,2.8-2.3,4-3,.6-.4,1.2-.7,1.8-1,.6-.3,1.1-.5,1.5-.7.8-.4,1.4-.5,1.4-.5l.3.3s-.2.5-.6,1.4c-.2.4-.5.9-.8,1.4-.3.5-.7,1.1-1.1,1.7-.9,1.2-1.9,2.6-3.3,3.9-1.4,1.2-3.1,2.3-4.6,3.5-1.5,1.2-3.1,2.5-4.5,3.6-1.5,1.1-2.8,2.2-4,3.1-2.4,1.8-4,2.9-4,2.9l-.3-.3Z"/>
      <path d="M464.9,780.7s1-1.7,2.4-4.3c.8-1.3,1.6-2.8,2.6-4.3.9-1.6,2-3.2,3-4.9,1.1-1.7,1.9-3.5,3-5,1.1-1.5,2.3-2.7,3.4-3.7.6-.5,1.1-.9,1.6-1.3.5-.4,1-.7,1.3-.9.8-.5,1.3-.7,1.3-.7l.4.3s0,.6-.3,1.4c-.1.4-.3,1-.5,1.6-.2.6-.5,1.2-.8,1.9-.6,1.4-1.5,2.9-2.6,4.4-1.1,1.5-2.6,2.8-3.9,4.3-1.3,1.5-2.6,3-3.8,4.3-1.2,1.4-2.4,2.6-3.4,3.7-2,2.2-3.4,3.6-3.4,3.6l-.4-.3Z"/>
      <path d="M498.9,801.9s.6-1.9,1.7-4.7c.5-1.4,1.1-3,1.8-4.7.7-1.7,1.4-3.5,2.1-5.4.8-1.8,1.3-3.7,2.1-5.4.8-1.6,1.8-3.1,2.7-4.2.5-.6.9-1.1,1.4-1.6.4-.5.8-.8,1.2-1.1.7-.6,1.1-.9,1.1-.9l.4.2s0,.6,0,1.5c0,.5-.1,1-.2,1.6-.1.6-.3,1.3-.5,2-.4,1.4-.9,3.1-1.8,4.7-.9,1.6-2.1,3.2-3.1,4.9-1,1.7-2,3.4-3,4.9-1,1.6-1.9,3-2.7,4.3-1.6,2.5-2.7,4.1-2.7,4.1l-.4-.2Z"/>
      <path d="M536,816.9s.3-2,.8-4.9c.3-1.5.6-3.2.9-5,.3-1.8.8-3.7,1.2-5.7.4-1.9.6-3.9,1.1-5.7.5-1.8,1.3-3.3,2-4.7.4-.7.7-1.3,1.1-1.8.3-.5.7-1,.9-1.3.6-.7,1-1.1,1-1.1h.4c0,.1.1.7.2,1.6,0,.5,0,1,0,1.6,0,.6,0,1.3,0,2.1-.1,1.5-.4,3.2-.9,5-.6,1.8-1.5,3.5-2.2,5.4-.7,1.8-1.4,3.7-2.1,5.4-.7,1.7-1.4,3.3-1.9,4.7-1.2,2.7-2,4.5-2,4.5h-.4Z"/>
      <path d="M575.1,825.1s0-2,0-4.9c0-1.5,0-3.2,0-5.1,0-1.8.1-3.8.2-5.8,0-2,0-4,.1-5.8.2-1.8.7-3.5,1.1-4.9.2-.7.5-1.4.7-1.9.2-.6.5-1.1.7-1.5.4-.8.7-1.3.7-1.3h.5c0,0,.2.6.4,1.5.1.4.2,1,.3,1.6.1.6.2,1.3.3,2.1.1,1.5.2,3.2,0,5.1-.2,1.8-.9,3.7-1.2,5.7-.4,1.9-.7,3.9-1.2,5.7-.4,1.8-.8,3.5-1.1,4.9-.7,2.9-1.2,4.8-1.2,4.8h-.5Z"/>
      <path d="M654.7,820.9s-.7-1.8-1.7-4.6c-.5-1.4-1.1-3-1.7-4.8-.6-1.7-1.2-3.6-1.8-5.5-.6-1.9-1.4-3.7-1.9-5.5-.4-1.8-.6-3.5-.6-5,0-.8,0-1.4,0-2.1,0-.6,0-1.2.2-1.6.1-.9.3-1.5.3-1.5h.4c0-.1.4.3.9,1.1.3.4.6.8.9,1.4.3.5.6,1.2,1,1.8.6,1.4,1.3,3,1.7,4.8.4,1.8.5,3.8.8,5.7.3,1.9.6,3.9.9,5.7.3,1.8.5,3.5.7,5,.4,2.9.5,4.9.5,4.9h-.4Z"/>
      <path d="M692.8,808.5s-1-1.7-2.5-4.3c-.7-1.3-1.6-2.8-2.5-4.4-.9-1.6-1.8-3.4-2.7-5.1-.9-1.7-2-3.4-2.8-5.1-.7-1.7-1.2-3.4-1.5-4.8-.2-.7-.3-1.4-.3-2,0-.6-.1-1.2-.1-1.6,0-.9,0-1.5,0-1.5l.4-.2s.4.3,1.1,1c.3.3.7.7,1.1,1.2.4.5.8,1,1.3,1.6.9,1.2,1.8,2.7,2.5,4.4.7,1.7,1.1,3.7,1.8,5.5.6,1.9,1.3,3.7,1.8,5.5.6,1.8,1.1,3.4,1.5,4.8.9,2.8,1.4,4.7,1.4,4.7l-.4.2Z"/>
      <path d="M728.1,789.7s-1.3-1.5-3.2-3.8c-.9-1.1-2-2.5-3.2-3.9-1.2-1.4-2.4-3-3.6-4.5-1.2-1.6-2.6-3-3.6-4.5-1-1.5-1.7-3.1-2.3-4.5-.3-.7-.5-1.4-.7-2-.2-.6-.3-1.1-.4-1.6-.2-.9-.2-1.5-.2-1.5l.4-.3s.5.3,1.2.8c.4.3.8.6,1.3,1,.5.4,1,.9,1.5,1.4,1.1,1.1,2.2,2.4,3.2,3.9,1,1.6,1.7,3.4,2.7,5.1.9,1.7,1.9,3.4,2.8,5.1.9,1.6,1.7,3.2,2.3,4.5,1.3,2.6,2.2,4.4,2.2,4.4l-.4.3Z"/>
      <path d="M759.6,765s-1.5-1.2-3.8-3.2c-1.1-1-2.4-2.1-3.8-3.3-1.4-1.2-2.8-2.5-4.3-3.9-1.4-1.3-3.1-2.5-4.4-3.8-1.3-1.3-2.3-2.8-3-4-.4-.6-.7-1.2-1-1.8-.3-.6-.5-1.1-.7-1.5-.4-.8-.5-1.4-.5-1.4l.3-.3s.5.2,1.4.6c.4.2.9.5,1.4.8.5.3,1.1.7,1.7,1.1,1.2.9,2.6,1.9,3.9,3.3,1.2,1.4,2.3,3.1,3.5,4.6,1.2,1.5,2.5,3.1,3.6,4.5,1.1,1.5,2.2,2.8,3.1,4,1.8,2.4,2.9,4,2.9,4l-.3.3Z"/>
      <path d="M786.3,735.2s-1.7-1-4.3-2.4c-1.3-.8-2.8-1.6-4.3-2.6-1.6-.9-3.2-2-4.9-3-1.7-1.1-3.5-1.9-5-3-1.5-1.1-2.7-2.3-3.7-3.4-.5-.6-.9-1.1-1.3-1.6-.4-.5-.7-1-.9-1.3-.5-.8-.7-1.3-.7-1.3l.3-.4s.6,0,1.4.3c.4.1,1,.3,1.6.5.6.2,1.2.5,1.9.8,1.4.6,2.9,1.5,4.4,2.6,1.5,1.1,2.8,2.6,4.3,3.9,1.5,1.3,3,2.6,4.3,3.8,1.4,1.2,2.6,2.4,3.7,3.4,2.2,2,3.6,3.4,3.6,3.4l-.3.4Z"/>
      <path d="M807.5,701.3s-1.9-.6-4.7-1.7c-1.4-.5-3-1.1-4.7-1.8-1.7-.7-3.5-1.4-5.4-2.1-1.8-.8-3.7-1.3-5.4-2.1-1.6-.8-3.1-1.8-4.2-2.7-.6-.5-1.1-.9-1.6-1.4-.5-.4-.8-.8-1.1-1.2-.6-.7-.9-1.1-.9-1.1l.2-.4s.6,0,1.5,0c.5,0,1,.1,1.6.2.6.1,1.3.3,2,.4,1.4.4,3.1.9,4.7,1.8,1.6.9,3.2,2.1,4.9,3.1,1.7,1,3.4,2,4.9,3,1.6,1,3,1.9,4.3,2.7,2.5,1.6,4.1,2.7,4.1,2.7l-.2.4Z"/>
      <path d="M822.4,664.2s-2-.3-4.9-.8c-1.5-.3-3.2-.6-5-.9-1.8-.3-3.7-.8-5.7-1.2-1.9-.4-3.9-.6-5.7-1.1-1.8-.5-3.3-1.3-4.7-2-.7-.4-1.3-.7-1.8-1.1-.5-.3-1-.7-1.3-.9-.7-.6-1.1-1-1.1-1v-.4c.1,0,.7-.1,1.6-.2.5,0,1,0,1.6,0,.6,0,1.3,0,2.1,0,1.5.1,3.2.4,5,.9,1.8.6,3.5,1.5,5.4,2.2,1.8.7,3.7,1.4,5.4,2.1,1.7.7,3.3,1.4,4.7,1.9,2.7,1.2,4.5,2,4.5,2v.4Z"/>
      <path d="M830.7,625s-2,0-4.9,0c-1.5,0-3.2,0-5.1,0-1.9,0-3.8-.1-5.8-.2-2,0-4,0-5.8-.1-1.8-.2-3.5-.7-4.9-1.1-.7-.2-1.4-.5-1.9-.7-.6-.2-1.1-.5-1.5-.7-.8-.4-1.3-.7-1.3-.7v-.5c0,0,.6-.2,1.5-.4.4-.1,1-.2,1.6-.3.6-.1,1.3-.2,2.1-.3,1.5-.1,3.2-.2,5.1,0,1.8.2,3.7.9,5.7,1.2,1.9.4,3.9.7,5.7,1.2,1.8.4,3.5.8,4.9,1.1,2.9.7,4.8,1.2,4.8,1.2v.5Z"/>
      <path d="M826.5,545.4s-1.8.7-4.6,1.7c-1.4.5-3,1.1-4.8,1.7-1.7.6-3.6,1.2-5.5,1.8-1.9.6-3.7,1.4-5.5,1.9-1.8.4-3.5.6-5,.6-.7,0-1.4,0-2.1,0-.6,0-1.2,0-1.6-.2-.9-.1-1.5-.3-1.5-.3v-.4c-.1,0,.3-.4,1.1-.9.4-.3.8-.6,1.4-.9.5-.3,1.2-.6,1.8-1,1.4-.6,3-1.3,4.8-1.7,1.8-.4,3.8-.5,5.7-.8,1.9-.3,3.9-.6,5.7-.9,1.8-.3,3.5-.5,5-.7,2.9-.4,4.9-.5,4.9-.5v.4Z"/>
      <path d="M814.1,507.4s-1.7,1-4.3,2.5c-1.3.7-2.8,1.6-4.4,2.5-1.6.9-3.4,1.8-5.1,2.7-1.7.9-3.4,2-5.1,2.8-1.7.7-3.4,1.2-4.8,1.5-.7.2-1.4.3-2,.3-.6,0-1.2.1-1.6.1-.9,0-1.5,0-1.5,0l-.2-.4s.3-.4,1-1.1c.3-.3.7-.7,1.2-1.1.5-.4,1-.8,1.6-1.3,1.2-.9,2.7-1.8,4.4-2.5,1.7-.7,3.7-1.1,5.5-1.8,1.9-.6,3.7-1.3,5.5-1.8,1.8-.6,3.4-1.1,4.8-1.5,2.8-.9,4.7-1.4,4.7-1.4l.2.4Z"/>
      <path d="M795.2,472.1s-1.5,1.3-3.8,3.2c-1.1.9-2.5,2-3.9,3.2-1.4,1.2-3,2.4-4.5,3.6-1.6,1.2-3,2.6-4.5,3.6-1.5,1-3.1,1.7-4.5,2.3-.7.3-1.4.5-2,.7-.6.2-1.1.3-1.6.4-.9.2-1.5.2-1.5.2l-.3-.4s.3-.5.8-1.2c.3-.4.6-.8,1-1.3.4-.5.9-1,1.4-1.5,1.1-1.1,2.4-2.2,3.9-3.2,1.6-1,3.4-1.7,5.1-2.7,1.7-.9,3.4-1.9,5.1-2.8,1.6-.9,3.2-1.7,4.5-2.3,2.6-1.3,4.4-2.2,4.4-2.2l.3.4Z"/>
      <path d="M770.6,440.5s-1.2,1.5-3.2,3.8c-1,1.1-2.1,2.4-3.3,3.8-1.2,1.4-2.5,2.8-3.9,4.3-1.3,1.4-2.5,3.1-3.8,4.4-1.3,1.3-2.8,2.3-4,3.1-.6.4-1.2.7-1.8,1-.6.3-1.1.5-1.5.7-.8.4-1.4.5-1.4.5l-.3-.3s.2-.5.6-1.4c.2-.4.5-.9.8-1.4.3-.5.7-1.1,1.1-1.7.9-1.2,1.9-2.6,3.3-3.9,1.4-1.2,3.1-2.3,4.6-3.5,1.5-1.2,3.1-2.5,4.5-3.6,1.5-1.1,2.8-2.2,4-3.1,2.4-1.8,4-2.9,4-2.9l.3.3Z"/>
      <path d="M740.8,413.8s-1,1.7-2.4,4.3c-.8,1.3-1.6,2.8-2.6,4.3-.9,1.6-2,3.2-3,4.9-1.1,1.7-1.9,3.5-3,5-1.1,1.5-2.3,2.7-3.4,3.7-.6.5-1.1.9-1.6,1.3-.5.4-.9.7-1.3.9-.8.5-1.3.7-1.3.7l-.4-.3s0-.6.3-1.4c.1-.4.3-1,.5-1.6.2-.6.5-1.2.8-1.9.6-1.4,1.5-2.9,2.6-4.4,1.1-1.5,2.6-2.8,3.9-4.3,1.3-1.5,2.6-3,3.8-4.3,1.2-1.4,2.4-2.6,3.4-3.7,2-2.2,3.4-3.6,3.4-3.6l.4.3Z"/>
      <path d="M706.9,392.6s-.6,1.9-1.7,4.7c-.5,1.4-1.1,3-1.8,4.7-.7,1.7-1.4,3.5-2.1,5.4-.8,1.8-1.3,3.7-2.1,5.4-.8,1.6-1.8,3.1-2.7,4.2-.5.6-.9,1.1-1.4,1.6-.4.5-.8.8-1.2,1.1-.7.6-1.1.9-1.1.9l-.4-.2s0-.6,0-1.5c0-.5.1-1,.2-1.6.1-.6.3-1.3.5-2,.4-1.4.9-3.1,1.8-4.7.9-1.6,2.1-3.2,3.1-4.9,1-1.7,2-3.4,3-4.9,1-1.6,1.9-3,2.7-4.3,1.6-2.5,2.7-4.1,2.7-4.1l.4.2Z"/>
      <path d="M669.7,377.7s-.3,2-.8,4.9c-.3,1.5-.6,3.2-.9,5-.3,1.8-.8,3.7-1.2,5.7-.4,1.9-.6,3.9-1.1,5.7-.5,1.8-1.3,3.3-2,4.7-.4.7-.7,1.3-1.1,1.8-.3.5-.7,1-.9,1.3-.6.7-1,1.1-1,1.1h-.4c0-.1-.1-.7-.2-1.6,0-.5,0-1,0-1.6,0-.6,0-1.3,0-2.1.1-1.5.4-3.2.9-5,.6-1.8,1.5-3.5,2.2-5.4.7-1.8,1.4-3.7,2.1-5.4.7-1.7,1.4-3.3,1.9-4.7,1.2-2.7,2-4.5,2-4.5h.4Z"/>
      <path d="M669.7,377.7s-.3,2-.8,4.9c-.3,1.5-.6,3.2-.9,5-.3,1.8-.8,3.7-1.2,5.7-.4,1.9-.6,3.9-1.1,5.7-.5,1.8-1.3,3.3-2,4.7-.4.7-.7,1.3-1.1,1.8-.3.5-.7,1-.9,1.3-.6.7-1,1.1-1,1.1h-.4c0-.1-.1-.7-.2-1.6,0-.5,0-1,0-1.6,0-.6,0-1.3,0-2.1.1-1.5.4-3.2.9-5,.6-1.8,1.5-3.5,2.2-5.4.7-1.8,1.4-3.7,2.1-5.4.7-1.7,1.4-3.3,1.9-4.7,1.2-2.7,2-4.5,2-4.5h.4Z"/>
      <path d="M630.6,369.4s0,2,0,4.9c0,1.5,0,3.2,0,5.1,0,1.8-.1,3.8-.2,5.8,0,2,0,4-.1,5.8-.2,1.8-.7,3.5-1.1,4.9-.2.7-.5,1.4-.7,1.9-.2.6-.5,1.1-.7,1.5-.4.8-.7,1.3-.7,1.3h-.5c0,0-.2-.6-.4-1.5-.1-.4-.2-1-.3-1.6-.1-.6-.2-1.3-.3-2.1-.1-1.5-.2-3.2,0-5.1.2-1.8.9-3.7,1.2-5.7.4-1.9.7-3.9,1.2-5.7.4-1.8.8-3.5,1.1-4.9.7-2.9,1.2-4.8,1.2-4.8h.5Z"/>
      <path d="M669.7,377.7s-.3,2-.8,4.9c-.3,1.5-.6,3.2-.9,5-.3,1.8-.8,3.7-1.2,5.7-.4,1.9-.6,3.9-1.1,5.7-.5,1.8-1.3,3.3-2,4.7-.4.7-.7,1.3-1.1,1.8-.3.5-.7,1-.9,1.3-.6.7-1,1.1-1,1.1h-.4c0-.1-.1-.7-.2-1.6,0-.5,0-1,0-1.6,0-.6,0-1.3,0-2.1.1-1.5.4-3.2.9-5,.6-1.8,1.5-3.5,2.2-5.4.7-1.8,1.4-3.7,2.1-5.4.7-1.7,1.4-3.3,1.9-4.7,1.2-2.7,2-4.5,2-4.5h.4Z"/>
    </g>
    <g>
      <g>
        <g>
          <path class="st2" d="M557.8,323.6c.2,2.9-2.1,5.5-5,5.6s-5.5-2.1-5.6-5,2.1-5.5,5-5.6,5.5,2.1,5.6,5Z"/>
          <path d="M552.8,329.7c-3.2.2-5.9-2.3-6.1-5.4s2.3-5.9,5.4-6.1,5.9,2.3,6.1,5.4-2.3,5.9-5.4,6.1ZM552.2,319.1c-2.7.2-4.7,2.5-4.6,5.1s2.5,4.7,5.1,4.6c2.7-.2,4.7-2.5,4.6-5.1s-2.5-4.7-5.1-4.6Z"/>
        </g>
        <g>
          <path class="st2" d="M486.5,347c.2,2.9-2.1,5.5-5,5.6s-5.5-2.1-5.6-5,2.1-5.5,5-5.6,5.5,2.1,5.6,5Z"/>
          <path d="M481.6,353.1c-3.2.2-5.9-2.3-6.1-5.4s2.3-5.9,5.4-6.1,5.9,2.3,6.1,5.4-2.3,5.9-5.4,6.1ZM480.9,342.5c-2.7.2-4.7,2.5-4.6,5.1s2.5,4.7,5.1,4.6,4.7-2.5,4.6-5.1-2.5-4.7-5.1-4.6Z"/>
        </g>
        <g>
          <path class="st2" d="M524.1,334.1c.3,4.3-3,8-7.3,8.2s-8-3-8.2-7.3,3-8,7.3-8.2,8,3,8.2,7.3Z"/>
          <path d="M516.8,342.8c-4.6.3-8.5-3.2-8.7-7.8s3.2-8.5,7.8-8.7,8.5,3.2,8.7,7.8-3.2,8.5-7.8,8.7ZM515.9,327.2c-4,.2-7.1,3.7-6.9,7.8s3.7,7.1,7.8,6.9,7.1-3.7,6.9-7.8-3.7-7.1-7.8-6.9Z"/>
        </g>
        <g>
          <path class="st2" d="M456.7,364.5c.3,4.3-3,8-7.3,8.2s-8-3-8.2-7.3c-.3-4.3,3-8,7.3-8.2s8,3,8.2,7.3Z"/>
          <path d="M449.3,373.2c-4.6.3-8.5-3.2-8.7-7.8s3.2-8.5,7.8-8.7,8.5,3.2,8.7,7.8c.3,4.6-3.2,8.5-7.8,8.7ZM448.4,357.6c-4,.2-7.1,3.7-6.9,7.8s3.7,7.1,7.8,6.9,7.1-3.7,6.9-7.8-3.7-7.1-7.8-6.9Z"/>
        </g>
        <g>
          <path class="st2" d="M360.6,472.4c.3,4.3-3,8-7.3,8.2-4.3.3-8-3-8.2-7.3s3-8,7.3-8.2,8,3,8.2,7.3Z"/>
          <path d="M353.3,481.1c-4.6.3-8.5-3.2-8.7-7.8s3.2-8.5,7.8-8.7,8.5,3.2,8.7,7.8-3.2,8.5-7.8,8.7ZM352.4,465.5c-4,.2-7.1,3.7-6.9,7.8.2,4,3.7,7.1,7.8,6.9s7.1-3.7,6.9-7.8-3.7-7.1-7.8-6.9Z"/>
        </g>
        <g>
          <path class="st2" d="M377.1,753.7c.3,4.3-3,8-7.3,8.2s-8-3-8.2-7.3,3-8,7.3-8.2,8,3,8.2,7.3Z"/>
          <path d="M369.8,762.5c-4.6.3-8.5-3.2-8.7-7.8s3.2-8.5,7.8-8.7,8.5,3.2,8.7,7.8-3.2,8.5-7.8,8.7ZM368.9,746.9c-4,.2-7.1,3.7-6.9,7.8s3.7,7.1,7.8,6.9,7.1-3.7,6.9-7.8-3.7-7.1-7.8-6.9Z"/>
        </g>
        <g>
          <path class="st2" d="M484.9,848c.3,4.3-3,8-7.3,8.2-4.3.3-8-3-8.2-7.3s3-8,7.3-8.2c4.3-.3,8,3,8.2,7.3Z"/>
          <path d="M477.6,856.7c-4.6.3-8.5-3.2-8.7-7.8s3.2-8.5,7.8-8.7,8.5,3.2,8.7,7.8-3.2,8.5-7.8,8.7ZM476.7,841.2c-4,.2-7.1,3.7-6.9,7.8s3.7,7.1,7.8,6.9,7.1-3.7,6.9-7.8-3.7-7.1-7.8-6.9Z"/>
        </g>
        <g>
          <path class="st2" d="M764.8,831.7c.3,4.3-3,8-7.3,8.2s-8-3-8.2-7.3,3-8,7.3-8.2,8,3,8.2,7.3Z"/>
          <path d="M757.5,840.4c-4.6.3-8.5-3.2-8.7-7.8s3.2-8.5,7.8-8.7,8.5,3.2,8.7,7.8-3.2,8.5-7.8,8.7ZM756.6,824.8c-4,.2-7.1,3.7-6.9,7.8.2,4,3.7,7.1,7.8,6.9s7.1-3.7,6.9-7.8-3.7-7.1-7.8-6.9Z"/>
        </g>
        <g>
          <path class="st2" d="M861.5,725.4c.3,4.3-3,8-7.3,8.2s-8-3-8.2-7.3,3-8,7.3-8.2,8,3,8.2,7.3Z"/>
          <path d="M854.2,734.2c-4.6.3-8.5-3.2-8.7-7.8s3.2-8.5,7.8-8.7c4.6-.3,8.5,3.2,8.7,7.8s-3.2,8.5-7.8,8.7ZM853.3,718.6c-4,.2-7.1,3.7-6.9,7.8s3.7,7.1,7.8,6.9,7.1-3.7,6.9-7.8-3.7-7.1-7.8-6.9Z"/>
        </g>
        <g>
          <path class="st2" d="M845.1,444.1c.3,4.3-3,8-7.3,8.3-4.3.3-8-3-8.2-7.3-.3-4.3,3-8,7.3-8.2s8,3,8.2,7.3Z"/>
          <path d="M837.7,452.8c-4.6.3-8.5-3.2-8.7-7.8-.3-4.6,3.2-8.5,7.8-8.7s8.5,3.2,8.7,7.8-3.2,8.5-7.8,8.7ZM836.8,437.2c-4,.2-7.1,3.7-6.9,7.8s3.7,7.1,7.8,6.9c4-.2,7.1-3.7,6.9-7.8s-3.7-7.1-7.8-6.9Z"/>
        </g>
        <g>
          <path class="st2" d="M736.9,348.1c.3,4.3-3,8-7.3,8.3s-8-3-8.2-7.3,3-8,7.3-8.2c4.3-.3,8,3,8.2,7.3Z"/>
          <path d="M729.6,356.8c-4.6.3-8.5-3.2-8.7-7.8s3.2-8.5,7.8-8.7,8.5,3.2,8.7,7.8-3.2,8.5-7.8,8.7ZM728.7,341.2c-4,.2-7.1,3.7-6.9,7.8.2,4,3.7,7.1,7.8,6.9,4-.2,7.1-3.7,6.9-7.8-.2-4-3.7-7.1-7.8-6.9Z"/>
        </g>
        <g>
          <path class="st2" d="M427,382.8c1.6,2.5.9,5.8-1.5,7.4-2.5,1.6-5.8.9-7.4-1.5-1.6-2.5-.9-5.8,1.5-7.4,2.5-1.6,5.8-.9,7.4,1.5Z"/>
          <path d="M422.9,391.5c-2.1.1-4-.9-5.2-2.6-1.8-2.7-1-6.3,1.7-8,.8-.6,1.8-.9,2.8-.9,2.1-.1,4,.9,5.2,2.6.8,1.3,1.1,2.8.8,4.3-.3,1.5-1.2,2.8-2.5,3.7-.8.6-1.8.9-2.8.9ZM422.3,380.9c-.8,0-1.7.3-2.4.8-2.2,1.5-2.9,4.5-1.4,6.7,1,1.4,2.6,2.3,4.3,2.2s1.7-.3,2.4-.8c1.1-.7,1.8-1.8,2.1-3.1.3-1.3,0-2.6-.7-3.7-1-1.4-2.6-2.3-4.3-2.2Z"/>
        </g>
        <g>
          <path class="st2" d="M343.3,499.4c2.6,1.3,3.7,4.5,2.4,7.1-1.3,2.6-4.5,3.7-7.1,2.4-2.6-1.3-3.7-4.5-2.4-7.1,1.3-2.6,4.5-3.7,7.1-2.4Z"/>
          <path d="M341.3,510c-1,0-2-.2-2.9-.6-1.4-.7-2.4-1.9-2.9-3.3-.5-1.5-.4-3,.3-4.4.9-1.8,2.8-3.1,4.8-3.2s2,.2,2.9.6c2.8,1.4,4,4.9,2.6,7.8-.9,1.8-2.8,3.1-4.8,3.2ZM340.7,499.3c-1.7.1-3.3,1.1-4.1,2.7-.6,1.2-.7,2.5-.3,3.7.4,1.2,1.3,2.2,2.4,2.8.8.4,1.6.6,2.5.5,1.7-.1,3.3-1.1,4.1-2.7,1.2-2.4.2-5.3-2.2-6.5-.8-.4-1.6-.6-2.5-.5Z"/>
        </g>
        <g>
          <path class="st2" d="M328,572.9c2.6,1.3,3.7,4.5,2.4,7.1-1.3,2.6-4.5,3.7-7.1,2.4-2.6-1.3-3.7-4.5-2.4-7.1,1.3-2.6,4.5-3.7,7.1-2.4Z"/>
          <path d="M325.9,583.4c-1,0-2-.2-2.9-.6-2.9-1.4-4-4.9-2.6-7.8.9-1.8,2.8-3.1,4.8-3.2s2,.2,2.9.6c2.9,1.4,4,4.9,2.6,7.8-.9,1.8-2.8,3.1-4.8,3.2ZM325.3,572.8c-1.7.1-3.3,1.1-4.1,2.7-1.2,2.4-.2,5.3,2.2,6.5.8.4,1.6.6,2.5.5,1.7-.1,3.3-1.1,4.1-2.7,1.2-2.4.2-5.3-2.2-6.5-.8-.4-1.6-.6-2.5-.5Z"/>
        </g>
        <g>
          <path class="st2" d="M335.5,533.9c3.9,1.9,5.4,6.6,3.5,10.5-1.9,3.9-6.6,5.4-10.5,3.5-3.9-1.9-5.4-6.6-3.5-10.5,1.9-3.9,6.6-5.4,10.5-3.5Z"/>
          <path d="M332.5,549.1c-1.4,0-2.9-.2-4.2-.9-4.1-2-5.7-7-3.7-11.1,1.3-2.6,4-4.4,6.9-4.5s2.9.2,4.2.9c2,1,3.4,2.7,4.1,4.8.7,2.1.5,4.3-.5,6.3-1.3,2.6-4,4.4-6.9,4.5ZM331.6,533.5c-2.6.2-5,1.7-6.1,4-1.8,3.6-.3,8,3.3,9.9,1.2.6,2.4.8,3.7.8,2.6-.2,5-1.7,6.1-4,.9-1.8,1-3.7.4-5.6-.6-1.9-1.9-3.4-3.7-4.3-1.2-.6-2.4-.8-3.7-.8Z"/>
        </g>
        <g>
          <path class="st2" d="M329.2,642.3c2.9-.2,5.5,2.1,5.6,5,.2,2.9-2.1,5.5-5,5.6-2.9.2-5.5-2.1-5.6-5-.2-2.9,2.1-5.5,5-5.6Z"/>
          <path d="M329.8,653.4c-1.5,0-3-.4-4.2-1.5-1.2-1-1.8-2.4-1.9-4-.2-3.2,2.3-5.9,5.4-6.1,3.2-.2,5.9,2.3,6.1,5.4,0,1.5-.4,3-1.5,4.2-1,1.2-2.4,1.8-4,1.9ZM329.2,642.8c-2.7.2-4.7,2.5-4.6,5.1,0,1.3.7,2.5,1.6,3.3,1,.9,2.2,1.3,3.5,1.2h0c1.3,0,2.5-.7,3.3-1.6.9-1,1.3-2.2,1.2-3.5-.2-2.7-2.5-4.7-5.1-4.6Z"/>
        </g>
        <g>
          <path class="st2" d="M352.6,713.6c2.9-.2,5.5,2.1,5.6,5,.2,2.9-2.1,5.5-5,5.6-2.9.2-5.5-2.1-5.6-5s2.1-5.5,5-5.6Z"/>
          <path d="M353.3,724.7h0c-3.2.2-5.9-2.3-6.1-5.4s2.3-5.9,5.4-6.1,5.9,2.3,6.1,5.4c.2,3.2-2.3,5.9-5.4,6.1ZM352.7,714.1c-2.7.2-4.7,2.5-4.6,5.1s2.5,4.7,5.1,4.6c2.7-.2,4.7-2.5,4.6-5.1-.2-2.7-2.5-4.7-5.1-4.6Z"/>
        </g>
        <g>
          <path class="st2" d="M339.7,676c4.3-.3,8,3,8.2,7.3.3,4.3-3,8-7.3,8.2-4.3.3-8-3-8.2-7.3-.3-4.3,3-8,7.3-8.2Z"/>
          <path d="M340.6,692.1h0c-2.2.1-4.3-.6-6-2.1-1.7-1.5-2.6-3.5-2.8-5.7-.3-4.6,3.2-8.5,7.8-8.7s4.3.6,6,2.1c1.7,1.5,2.6,3.5,2.8,5.7.1,2.2-.6,4.3-2.1,6-1.5,1.7-3.5,2.6-5.7,2.8ZM339.7,676.5c-4,.2-7.1,3.7-6.9,7.8s1,3.8,2.4,5.1c1.5,1.3,3.4,2,5.3,1.8s3.8-1,5.1-2.5c1.3-1.5,2-3.4,1.8-5.3-.1-2-1-3.8-2.4-5.1-1.5-1.3-3.4-2-5.3-1.8Z"/>
        </g>
        <g>
          <path class="st2" d="M388.4,773.1c2.5-1.6,5.8-.9,7.4,1.5,1.6,2.5.9,5.8-1.5,7.4-2.5,1.6-5.8.9-7.4-1.5-1.6-2.5-.9-5.8,1.5-7.4Z"/>
          <path d="M391.6,783.3c-2.1.1-4-.9-5.2-2.6-1.8-2.7-1-6.3,1.7-8,.8-.6,1.8-.9,2.8-.9,2.1-.1,4,.9,5.2,2.6.8,1.3,1.1,2.8.8,4.3-.3,1.5-1.2,2.8-2.5,3.7-.8.6-1.8.9-2.8.9ZM391,772.7c-.8,0-1.7.3-2.4.8-2.2,1.5-2.9,4.5-1.4,6.7,1,1.4,2.6,2.3,4.3,2.2s1.7-.3,2.4-.8c1.1-.7,1.8-1.8,2.1-3.1.3-1.3,0-2.6-.7-3.7-1-1.4-2.6-2.3-4.4-2.2Z"/>
        </g>
        <g>
          <path class="st2" d="M505,856.8c1.3-2.6,4.5-3.7,7.1-2.4,2.6,1.3,3.7,4.5,2.4,7.1-1.3,2.6-4.5,3.7-7.1,2.4-2.6-1.3-3.7-4.5-2.4-7.1Z"/>
          <path d="M510.1,865c-1,0-2-.2-2.9-.6-2.8-1.4-4-4.9-2.6-7.8.9-1.8,2.8-3.1,4.8-3.2s2,.2,2.9.6c1.4.7,2.4,1.9,2.9,3.3.5,1.5.4,3-.3,4.4-.9,1.8-2.8,3.1-4.8,3.2ZM509.5,854.3c-1.7.1-3.3,1.1-4.1,2.7-1.2,2.4-.2,5.3,2.2,6.5.8.4,1.6.6,2.5.5,1.7-.1,3.3-1.1,4.1-2.7.6-1.2.7-2.5.3-3.7s-1.3-2.2-2.4-2.8c-.8-.4-1.6-.6-2.5-.5Z"/>
        </g>
        <g>
          <path class="st2" d="M578.5,872.1c1.3-2.6,4.5-3.7,7.1-2.4,2.6,1.3,3.7,4.5,2.4,7.1-1.3,2.6-4.5,3.7-7.1,2.4-2.6-1.3-3.7-4.5-2.4-7.1Z"/>
          <path d="M583.6,880.3c-1,0-2-.2-2.9-.6-1.4-.7-2.4-1.9-2.9-3.3-.5-1.5-.4-3,.3-4.4.9-1.8,2.8-3.1,4.8-3.2s2,.2,2.9.6c2.8,1.4,4,4.9,2.6,7.8-.9,1.8-2.8,3.1-4.8,3.2ZM583,869.7c-1.7.1-3.3,1.1-4.1,2.7-.6,1.2-.7,2.5-.3,3.7.4,1.2,1.3,2.2,2.4,2.8.8.4,1.6.6,2.5.5,1.7-.1,3.3-1.1,4.1-2.7,1.2-2.4.2-5.3-2.2-6.5-.8-.4-1.6-.6-2.5-.5Z"/>
        </g>
        <g>
          <path class="st2" d="M539.5,864.6c1.9-3.9,6.6-5.4,10.5-3.5,3.9,1.9,5.4,6.6,3.5,10.5-1.9,3.9-6.6,5.4-10.5,3.5-3.9-1.9-5.4-6.6-3.5-10.5Z"/>
          <path d="M546.9,876.3c-1.4,0-2.9-.2-4.2-.9-2-1-3.4-2.7-4.1-4.8s-.5-4.3.5-6.3c1.3-2.6,4-4.4,6.9-4.5s2.9.2,4.2.9c2,1,3.4,2.7,4.1,4.8.7,2.1.5,4.3-.5,6.3-1.3,2.6-4,4.4-6.9,4.5ZM546,860.8c-2.6.2-5,1.7-6.1,4-.9,1.8-1,3.7-.4,5.6.6,1.9,1.9,3.4,3.7,4.3,1.2.6,2.4.8,3.7.8,2.6-.2,5-1.7,6.1-4,.9-1.8,1-3.7.4-5.6-.6-1.9-1.9-3.4-3.7-4.3-1.2-.6-2.4-.8-3.7-.8Z"/>
        </g>
        <g>
          <path class="st2" d="M647.9,871c-.2-2.9,2.1-5.5,5-5.6,2.9-.2,5.5,2.1,5.6,5,.2,2.9-2.1,5.5-5,5.6-2.9.2-5.5-2.1-5.6-5Z"/>
          <path d="M653.5,876.4h0c-3.2.2-5.9-2.3-6.1-5.4s2.3-5.9,5.4-6.1c1.5,0,3,.4,4.2,1.5,1.2,1,1.8,2.4,1.9,4,.2,3.2-2.3,5.9-5.4,6.1ZM652.9,865.8c-2.7.2-4.7,2.5-4.6,5.1s2.5,4.7,5.1,4.6h0c2.7-.2,4.7-2.5,4.6-5.1,0-1.3-.7-2.5-1.6-3.3-1-.9-2.2-1.3-3.5-1.2Z"/>
        </g>
        <g>
          <path class="st2" d="M719.2,847.5c-.2-2.9,2.1-5.5,5-5.6,2.9-.2,5.5,2.1,5.6,5s-2.1,5.5-5,5.6-5.5-2.1-5.6-5Z"/>
          <path d="M724.8,853h0c-1.5,0-3-.4-4.2-1.5-1.2-1-1.8-2.4-1.9-4-.2-3.2,2.3-5.9,5.4-6.1,3.2-.2,5.9,2.3,6.1,5.4s-2.3,5.9-5.4,6.1ZM724.2,842.3c-2.7.2-4.7,2.5-4.6,5.1,0,1.3.6,2.5,1.6,3.3s2.2,1.3,3.5,1.2c2.7-.2,4.7-2.5,4.6-5.1s-2.5-4.7-5.1-4.6Z"/>
        </g>
        <g>
          <path class="st2" d="M681.6,860.5c-.3-4.3,3-8,7.3-8.2,4.3-.3,8,3,8.2,7.3.3,4.3-3,8-7.3,8.2-4.3.3-8-3-8.2-7.3Z"/>
          <path d="M689.9,868.3h0c-4.6.3-8.5-3.2-8.7-7.8s3.2-8.5,7.8-8.7c4.6-.3,8.5,3.2,8.7,7.8.3,4.6-3.2,8.5-7.8,8.7ZM689,852.7c-4,.2-7.1,3.7-6.9,7.8s3.7,7.1,7.8,6.9h0c4-.2,7.1-3.7,6.9-7.8-.2-4-3.7-7.1-7.8-6.9Z"/>
        </g>
        <g>
          <g>
            <path class="st2" d="M778.7,811.8c-1.6-2.5-.9-5.8,1.5-7.4,2.5-1.6,5.8-.9,7.4,1.5,1.6,2.5.9,5.8-1.5,7.4-2.5,1.6-5.8.9-7.4-1.5Z"/>
            <path d="M783.5,814.6c-2.1.1-4-.9-5.2-2.6-.8-1.3-1.1-2.8-.8-4.3.3-1.5,1.2-2.8,2.5-3.7.8-.6,1.8-.9,2.8-.9,2.1-.1,4,.9,5.2,2.6.8,1.3,1.1,2.8.8,4.3-.3,1.5-1.2,2.8-2.5,3.7-.8.6-1.8.9-2.8.9ZM782.9,804c-.8,0-1.7.3-2.4.8-1.1.7-1.8,1.8-2.1,3.1-.3,1.3,0,2.6.7,3.7,1,1.4,2.6,2.3,4.3,2.2s1.7-.3,2.4-.8c1.1-.7,1.8-1.8,2.1-3.1.3-1.3,0-2.6-.7-3.7-1-1.4-2.6-2.3-4.3-2.2Z"/>
          </g>
          <g>
            <path class="st2" d="M828.7,755.8c-1.6-2.5-.9-5.8,1.5-7.4,2.5-1.6,5.8-.9,7.4,1.5,1.6,2.5.9,5.8-1.5,7.4-2.5,1.6-5.8.9-7.4-1.5Z"/>
            <path d="M833.5,758.7c-2.1.1-4-.9-5.2-2.6-.9-1.3-1.1-2.8-.8-4.3.3-1.5,1.2-2.8,2.5-3.7.8-.6,1.8-.9,2.8-.9,2.1-.1,4,.9,5.2,2.6.9,1.3,1.1,2.8.8,4.3-.3,1.5-1.2,2.8-2.5,3.7-.8.6-1.8.9-2.8.9ZM832.9,748c-.8,0-1.7.3-2.4.8-1.1.7-1.8,1.8-2.1,3.1-.3,1.3,0,2.6.7,3.7,1,1.4,2.6,2.3,4.3,2.2s1.7-.3,2.4-.8c1.1-.7,1.8-1.8,2.1-3.1.3-1.3,0-2.6-.7-3.7-1-1.4-2.6-2.3-4.3-2.2Z"/>
          </g>
        </g>
        <g>
          <path class="st2" d="M778.7,811.8c-1.6-2.5-.9-5.8,1.5-7.4,2.5-1.6,5.8-.9,7.4,1.5,1.6,2.5.9,5.8-1.5,7.4-2.5,1.6-5.8.9-7.4-1.5Z"/>
          <path d="M783.5,814.6c-2.1.1-4-.9-5.2-2.6-.8-1.3-1.1-2.8-.8-4.3.3-1.5,1.2-2.8,2.5-3.7.8-.6,1.8-.9,2.8-.9,2.1-.1,4,.9,5.2,2.6.8,1.3,1.1,2.8.8,4.3-.3,1.5-1.2,2.8-2.5,3.7-.8.6-1.8.9-2.8.9ZM782.9,804c-.8,0-1.7.3-2.4.8-1.1.7-1.8,1.8-2.1,3.1-.3,1.3,0,2.6.7,3.7,1,1.4,2.6,2.3,4.3,2.2s1.7-.3,2.4-.8c1.1-.7,1.8-1.8,2.1-3.1.3-1.3,0-2.6-.7-3.7-1-1.4-2.6-2.3-4.3-2.2Z"/>
        </g>
        <g>
          <path class="st2" d="M828.7,755.8c-1.6-2.5-.9-5.8,1.5-7.4,2.5-1.6,5.8-.9,7.4,1.5,1.6,2.5.9,5.8-1.5,7.4-2.5,1.6-5.8.9-7.4-1.5Z"/>
          <path d="M833.5,758.7c-2.1.1-4-.9-5.2-2.6-.9-1.3-1.1-2.8-.8-4.3.3-1.5,1.2-2.8,2.5-3.7.8-.6,1.8-.9,2.8-.9,2.1-.1,4,.9,5.2,2.6.9,1.3,1.1,2.8.8,4.3-.3,1.5-1.2,2.8-2.5,3.7-.8.6-1.8.9-2.8.9ZM832.9,748c-.8,0-1.7.3-2.4.8-1.1.7-1.8,1.8-2.1,3.1-.3,1.3,0,2.6.7,3.7,1,1.4,2.6,2.3,4.3,2.2s1.7-.3,2.4-.8c1.1-.7,1.8-1.8,2.1-3.1.3-1.3,0-2.6-.7-3.7-1-1.4-2.6-2.3-4.3-2.2Z"/>
        </g>
        <g>
          <path class="st2" d="M862.4,695.1c-2.6-1.3-3.7-4.5-2.4-7.1,1.3-2.6,4.5-3.7,7.1-2.4,2.6,1.3,3.7,4.5,2.4,7.1-1.3,2.6-4.5,3.7-7.1,2.4Z"/>
          <path d="M865.1,696.1c-1,0-2-.2-2.9-.6-2.8-1.4-4-4.9-2.6-7.8.9-1.8,2.8-3.1,4.8-3.2s2,.2,2.9.6c1.4.7,2.4,1.9,2.9,3.3s.4,3-.3,4.4c-.9,1.8-2.8,3.1-4.8,3.2ZM864.5,685.5c-1.7.1-3.3,1.1-4.1,2.7-1.2,2.4-.2,5.3,2.2,6.5.8.4,1.6.6,2.5.5,1.7-.1,3.3-1.1,4.1-2.7.6-1.2.7-2.5.3-3.7-.4-1.2-1.3-2.2-2.4-2.8-.8-.4-1.6-.6-2.5-.5Z"/>
        </g>
        <g>
          <path class="st2" d="M877.7,621.6c-2.6-1.3-3.7-4.5-2.4-7.1,1.3-2.6,4.5-3.7,7.1-2.4,2.6,1.3,3.7,4.5,2.4,7.1-1.3,2.6-4.5,3.7-7.1,2.4Z"/>
          <path d="M880.4,622.7c-1,0-2-.2-2.9-.6-1.4-.7-2.4-1.9-2.9-3.3-.5-1.5-.4-3,.3-4.4.9-1.8,2.8-3.1,4.8-3.2s2,.2,2.9.6c1.4.7,2.4,1.9,2.9,3.3.5,1.5.4,3-.3,4.4-.9,1.8-2.8,3.1-4.8,3.2ZM879.8,612c-1.7.1-3.3,1.1-4.1,2.7-.6,1.2-.7,2.5-.3,3.7.4,1.2,1.3,2.2,2.4,2.8.8.4,1.6.6,2.5.5,1.7-.1,3.3-1.1,4.1-2.7.6-1.2.7-2.5.3-3.7-.4-1.2-1.3-2.2-2.4-2.8-.8-.4-1.6-.6-2.5-.5Z"/>
        </g>
        <g>
          <path class="st2" d="M870.2,660.7c-3.9-1.9-5.4-6.6-3.5-10.5,1.9-3.9,6.6-5.4,10.5-3.5,3.9,1.9,5.4,6.6,3.5,10.5-1.9,3.9-6.6,5.4-10.5,3.5Z"/>
          <path d="M874.1,662c-1.4,0-2.9-.2-4.2-.9-2-1-3.4-2.7-4.1-4.8-.7-2.1-.5-4.3.5-6.3,1.3-2.6,4-4.4,6.9-4.5s2.9.2,4.2.9c2,1,3.4,2.7,4.1,4.8.7,2.1.5,4.3-.5,6.3-1.3,2.6-4,4.4-6.9,4.5ZM873.2,646.4c-2.6.2-5,1.7-6.1,4-.9,1.8-1,3.7-.4,5.6.6,1.9,1.9,3.4,3.7,4.3,1.2.6,2.4.8,3.7.8,2.6-.2,5-1.7,6.1-4,.9-1.8,1-3.7.4-5.6s-1.9-3.4-3.7-4.3c-1.2-.6-2.4-.8-3.7-.8Z"/>
        </g>
        <g>
          <path class="st2" d="M876.5,552.2c-2.9.2-5.5-2.1-5.6-5s2.1-5.5,5-5.6c2.9-.2,5.5,2.1,5.6,5,.2,2.9-2.1,5.5-5,5.6Z"/>
          <path d="M876.6,552.7c-3.2.2-5.9-2.3-6.1-5.4s2.3-5.9,5.4-6.1c1.5,0,3,.4,4.2,1.5,1.2,1,1.8,2.4,1.9,4,.2,3.2-2.3,5.9-5.4,6.1ZM875.9,542.1c-2.7.2-4.7,2.5-4.6,5.1s2.5,4.7,5.1,4.6,4.7-2.5,4.6-5.1c0-1.3-.7-2.5-1.6-3.3-1-.9-2.2-1.3-3.5-1.2Z"/>
        </g>
        <g>
          <path class="st2" d="M853.1,480.9c-2.9.2-5.5-2.1-5.6-5-.2-2.9,2.1-5.5,5-5.6s5.5,2.1,5.6,5c.2,2.9-2.1,5.5-5,5.6Z"/>
          <path d="M853.1,481.4h0c-3.2.2-5.9-2.3-6.1-5.4-.2-3.2,2.3-5.9,5.4-6.1s5.9,2.3,6.1,5.4c0,1.5-.4,3-1.4,4.2-1,1.2-2.4,1.8-4,1.9ZM852.5,470.8c-2.7.2-4.7,2.5-4.6,5.1.2,2.7,2.5,4.7,5.1,4.6h0c1.3,0,2.5-.7,3.3-1.6.9-1,1.3-2.2,1.2-3.5-.2-2.7-2.5-4.7-5.1-4.6Z"/>
        </g>
        <g>
          <path class="st2" d="M866.1,518.5c-4.3.3-8-3-8.2-7.3-.3-4.3,3-8,7.3-8.2,4.3-.3,8,3,8.2,7.3.3,4.3-3,8-7.3,8.2Z"/>
          <path d="M866.1,519c-2.2.1-4.3-.6-6-2.1-1.6-1.5-2.6-3.5-2.8-5.7-.1-2.2.6-4.3,2.1-6,1.5-1.7,3.5-2.6,5.7-2.8,2.2-.1,4.3.6,6,2.1,1.7,1.5,2.6,3.5,2.8,5.7.3,4.6-3.2,8.5-7.8,8.7ZM865.2,503.4c-2,.1-3.8,1-5.1,2.5-1.3,1.5-2,3.3-1.8,5.3.1,2,1,3.8,2.4,5.1,1.5,1.3,3.4,2,5.3,1.8h0c4-.2,7.1-3.7,6.9-7.8-.1-2-1-3.8-2.5-5.1-1.5-1.3-3.4-2-5.3-1.8Z"/>
        </g>
        <g>
          <path class="st2" d="M817.3,421.4c-2.5,1.6-5.8.9-7.4-1.5-1.6-2.5-.9-5.8,1.5-7.4,2.5-1.6,5.8-.9,7.4,1.5,1.6,2.5.9,5.8-1.5,7.4Z"/>
          <path d="M814.8,422.8c-2.1.1-4-.9-5.2-2.6-.9-1.3-1.1-2.8-.8-4.4.3-1.5,1.2-2.8,2.5-3.7.8-.6,1.8-.9,2.8-.9,2.1-.1,4,.9,5.2,2.6,1.8,2.7,1,6.3-1.7,8-.8.6-1.8.9-2.8.9ZM814.1,412.1c-.8,0-1.7.3-2.4.8-1.1.7-1.8,1.8-2.1,3.1-.3,1.3,0,2.6.7,3.7,1,1.4,2.6,2.3,4.4,2.2s1.7-.3,2.4-.8c2.2-1.5,2.9-4.5,1.4-6.7-1-1.4-2.6-2.3-4.3-2.2Z"/>
        </g>
        <g>
          <path class="st2" d="M761.4,371.4c-2.5,1.6-5.8.9-7.4-1.5-1.6-2.5-.9-5.8,1.5-7.4,2.5-1.6,5.8-.9,7.4,1.5,1.6,2.5.9,5.8-1.5,7.4Z"/>
          <path d="M758.8,372.7c-2.1.1-4-.9-5.2-2.6-1.8-2.7-1-6.3,1.7-8,.8-.6,1.8-.9,2.8-.9,2.1-.1,4,.9,5.2,2.6.9,1.3,1.1,2.8.8,4.3-.3,1.5-1.2,2.8-2.5,3.7-.8.6-1.8.9-2.8.9ZM758.2,362.1c-.8,0-1.7.3-2.4.8-2.2,1.5-2.9,4.5-1.4,6.7,1,1.4,2.6,2.3,4.3,2.2s1.7-.3,2.4-.8c1.1-.7,1.8-1.8,2.1-3.1.3-1.3,0-2.6-.7-3.7-1-1.4-2.6-2.3-4.4-2.2Z"/>
        </g>
        <g>
          <path class="st2" d="M700.7,337.7c-1.3,2.6-4.5,3.7-7.1,2.4-2.6-1.3-3.7-4.5-2.4-7.1,1.3-2.6,4.5-3.7,7.1-2.4,2.6,1.3,3.7,4.5,2.4,7.1Z"/>
          <path d="M696.3,341.1c-1,0-2-.2-2.9-.6-1.4-.7-2.4-1.9-2.9-3.4-.5-1.5-.4-3,.3-4.4.9-1.8,2.8-3.1,4.8-3.2s2,.2,2.9.6c2.8,1.4,4,4.9,2.6,7.8-.9,1.8-2.8,3.1-4.8,3.2ZM695.7,330.5c-1.7.1-3.3,1.1-4.1,2.7-.6,1.2-.7,2.5-.3,3.7.4,1.2,1.3,2.2,2.4,2.8.8.4,1.6.6,2.5.5,1.7-.1,3.3-1.1,4.1-2.7,1.2-2.4.2-5.3-2.2-6.5-.8-.4-1.6-.6-2.5-.5Z"/>
        </g>
        <g>
          <path class="st2" d="M627.2,322.4c-1.3,2.6-4.5,3.7-7.1,2.4-2.6-1.3-3.7-4.5-2.4-7.1,1.3-2.6,4.5-3.7,7.1-2.4,2.6,1.3,3.7,4.5,2.4,7.1Z"/>
          <path d="M622.8,325.8c-1,0-2-.2-2.9-.6-2.8-1.4-4-4.9-2.6-7.8.9-1.8,2.8-3.1,4.8-3.2s2,.2,2.9.6c1.4.7,2.4,1.9,2.9,3.4.5,1.5.4,3-.3,4.4-.9,1.8-2.8,3.1-4.8,3.2ZM622.2,315.2c-1.7.1-3.3,1.1-4.1,2.7-1.2,2.4-.2,5.3,2.2,6.5.8.4,1.6.6,2.5.5,1.7-.1,3.3-1.1,4.1-2.7.6-1.2.7-2.5.3-3.7-.4-1.2-1.3-2.2-2.4-2.8-.8-.4-1.6-.6-2.5-.5Z"/>
        </g>
        <g>
          <path class="st2" d="M666.3,330c-1.9,3.9-6.6,5.4-10.5,3.5-3.9-1.9-5.4-6.6-3.5-10.5,1.9-3.9,6.6-5.4,10.5-3.5,3.9,1.9,5.4,6.6,3.5,10.5Z"/>
          <path d="M659.8,334.7c-1.4,0-2.9-.2-4.2-.9-2-1-3.4-2.7-4.1-4.8-.7-2.1-.5-4.3.5-6.3,1.3-2.6,4-4.4,6.9-4.5s2.9.2,4.2.9c2,1,3.4,2.7,4.1,4.8.7,2.1.5,4.3-.5,6.3-1.3,2.6-4,4.4-6.9,4.5ZM658.9,319.1c-2.6.2-5,1.7-6.1,4-.9,1.8-1,3.7-.4,5.6.6,1.9,1.9,3.4,3.7,4.2,1.2.6,2.4.8,3.7.8,2.6-.2,5-1.7,6.1-4,.9-1.8,1-3.7.4-5.6-.6-1.9-1.9-3.4-3.7-4.3-1.2-.6-2.4-.8-3.7-.8Z"/>
        </g>
      </g>
      <g>
        <g>
          <path d="M356.2,419.4l9.4,12c-2.5-6.7-4-11.5-4.2-14.3-.3-2.8.1-5.1,1.3-6.7.6-.9,1.4-1.4,2.4-1.5,1-.1,1.9.1,2.8.8,1.1.8,2.3,2,3.6,3.7l8.7,11c1,1.3,1.7,2,1.9,2.2.2.2.5.2.8.2.3,0,.4-.1.6-.3.1-.2.2-.5.2-1,0-1.5-.5-3.3-1.2-5.4l1.1-.5c1.2,3.3,1.7,6,1.7,8.2,0,1.5-.4,2.6-.9,3.4-.5.6-1,1-1.7,1.1-.7,0-1.3,0-2-.5-.8-.6-2.1-1.9-3.7-4l-8.3-10.6c-1-1.3-1.9-2.2-2.7-2.7-.3-.2-.7-.3-1.1-.3-.4,0-.7.3-.9.6-.3.5-.6,1.2-.6,2.2-.1,1.8.2,4.1,1,6.8.8,2.7,2,5.8,3.7,9.4.9,1.9,2,3.7,3.4,5.5l3.4,4.4-2.8,3.9-12.9-16.5c-1.6-2-2.5-3.1-2.9-3.4-.4-.3-.8-.4-1.4-.3-.5.1-.9.4-1.2.8-.2.2-.4.6-.7,1.2l-.6,1.1-1.1-.5,4.9-10.2Z"/>
          <path d="M372.1,447.9l-13.3-16.9c-2-2.5-2.6-3.1-2.8-3.3-.3-.2-.6-.3-1-.2-.4,0-.7.3-1,.6-.1.2-.3.6-.6,1.1l-.8,1.5-1.9-.9,5.4-11.3,8.1,10.3c-1.9-5.3-3-9.2-3.3-11.7-.3-2.9.2-5.3,1.4-7,.7-1,1.6-1.5,2.7-1.7,1.1-.2,2.2.1,3.2.8,1.1.8,2.3,2.1,3.7,3.8l8.7,11c1.3,1.6,1.7,2,1.8,2.1.1.1.3.1.4.1.2,0,.2,0,.2,0,0,0,.1-.2.1-.7,0-1.4-.4-3.2-1.1-5.3v-.4c-.1,0,1.8-.8,1.8-.8l.2.5c1.2,3.3,1.7,6.1,1.7,8.3,0,1.6-.4,2.8-1,3.7-.5.8-1.2,1.2-2,1.3-.8.1-1.6,0-2.3-.6-.9-.6-2.1-2-3.8-4l-8.3-10.6c-1-1.3-1.9-2.1-2.6-2.6-.2-.2-.5-.2-.7-.2-.3,0-.5.2-.6.4-.3.4-.5,1.1-.6,2-.1,1.8.2,4,1,6.6.8,2.6,2,5.8,3.7,9.3.9,1.9,2,3.7,3.4,5.4l3.6,4.7-3.4,4.7ZM355.2,426.5c.5,0,1,.1,1.4.4.3.2.9.8,3,3.5l12.5,16,2.2-3.1-3.2-4.1c-1.4-1.8-2.5-3.7-3.5-5.6-1.7-3.6-2.9-6.7-3.7-9.4-.8-2.7-1.2-5.1-1-6.9,0-1.1.3-1.9.7-2.4.3-.4.7-.7,1.2-.8.5,0,1,0,1.4.3.8.6,1.7,1.5,2.7,2.8l8.3,10.6c1.6,2,2.8,3.3,3.6,3.9.6.4,1.1.5,1.6.5.5,0,1-.4,1.4-.9.5-.7.8-1.8.9-3.2,0-2-.5-4.5-1.5-7.5h-.2c.6,2.1,1,3.9,1.1,5.3,0,.6,0,1-.3,1.3-.2.3-.5.4-.9.5h0c-.4,0-.7,0-1.1-.3-.2-.1-.6-.5-2-2.3l-8.7-11c-1.3-1.7-2.5-2.9-3.6-3.6-.8-.6-1.6-.8-2.5-.7-.9.1-1.6.6-2.1,1.3-1.1,1.5-1.5,3.6-1.2,6.3.3,2.8,1.7,7.6,4.2,14.2l-.8.4-9-11.4-4.3,9.1h.2c0,.1.4-.6.4-.6.3-.6.5-1,.7-1.2.4-.5.9-.9,1.5-1,.1,0,.2,0,.4,0Z"/>
        </g>
        <g>
          <path d="M382.9,382.1l20.9,12.2c-1.4-5.6-3-10.4-4.8-14.4-1.1-2.4-2-3.8-2.8-4.4-.4-.3-.8-.4-1.2-.5-.2,0-.6,0-1.3.3-.6.3-1.2.4-1.7.3-.5,0-.9-.2-1.2-.5-.5-.4-.9-.9-.9-1.6,0-.7,0-1.3.5-1.9.5-.7,1.2-1.1,2.1-1.2.9-.1,1.8.2,2.7.8.9.6,1.6,1.4,2.3,2.2,1.1,1.6,2.3,4,3.6,7.2,1.5,3.9,2.8,7.7,3.8,11.4,1,3.7,1.7,6.4,2,8l-.7,1-19.3-11.2,10.3,23.7-.8,1.1c-7.5-5.2-13.6-9-18.4-11.4-2-1-3.5-1.4-4.5-1.2-.7.2-1.4.7-2,1.6-.4.5-.8,1.2-1.3,2l-.9-.7,3.6-8.7c3.7,1,8.6,3.5,14.8,7.5,2.4,1.5,3.9,2.5,4.5,2.8l-10-23.4.7-1Z"/>
          <path d="M396.4,415.2l-.4-.3c-7.5-5.1-13.6-9-18.3-11.4-1.9-1-3.3-1.4-4.2-1.2-.6.1-1.2.6-1.7,1.4-.4.5-.8,1.2-1.2,2l-.3.4-1.7-1.2,3.9-9.5h.4c3.7,1.1,8.7,3.7,15,7.7,1.4.9,2.5,1.6,3.3,2.1l-9.6-22.3,1.1-1.5,20.3,11.9c-1.3-5.1-2.8-9.5-4.5-13.3-1.3-2.8-2.2-3.9-2.7-4.2-.3-.2-.7-.4-1-.4-.2,0-.4,0-1,.3-.7.3-1.3.4-1.9.4-.5,0-1-.2-1.5-.5-.6-.5-1-1.1-1.1-1.9-.1-.8,0-1.6.6-2.3.6-.8,1.4-1.3,2.4-1.4,1-.1,2,.2,3,.9.9.7,1.7,1.4,2.4,2.3,1.1,1.6,2.4,4.1,3.6,7.3,1.5,3.9,2.8,7.7,3.8,11.4,1,3.7,1.7,6.4,2,8v.2s-1,1.5-1,1.5l-18.4-10.7,9.9,22.7-1.2,1.7ZM373.8,401.4c1.1,0,2.5.4,4.3,1.3,4.7,2.4,10.7,6.2,18.1,11.2l.4-.6-10.8-24.8,20.1,11.7.3-.5c-.3-1.6-.9-4.2-1.9-7.8-1-3.7-2.3-7.5-3.8-11.3-1.3-3.1-2.4-5.5-3.5-7.1-.6-.8-1.3-1.5-2.1-2.1-.8-.6-1.6-.8-2.3-.7-.8,0-1.4.4-1.8,1-.4.5-.5,1.1-.5,1.6,0,.5.3,1,.8,1.3.3.2.6.3,1,.4.4,0,.9,0,1.4-.3.8-.3,1.2-.4,1.5-.3.5,0,.9.2,1.4.6.9.6,1.8,2.1,3,4.6,1.8,4,3.4,8.9,4.8,14.5l.3,1.1-21.4-12.6-.3.4,10.5,24.4-1.2-.7c-.6-.4-2.1-1.3-4.5-2.8-5.9-3.8-10.8-6.3-14.3-7.4l-3.3,8,.2.2c.4-.7.7-1.2,1-1.6.7-1,1.5-1.6,2.3-1.7.1,0,.3,0,.4,0Z"/>
        </g>
      </g>
      <g>
        <g>
          <path d="M793.7,365.6l-12.8,8.3c6.9-1.9,11.8-2.9,14.7-2.9,2.9,0,5,.6,6.5,1.9.8.7,1.2,1.5,1.3,2.5,0,1-.3,1.9-1,2.8-.9,1-2.2,2.1-4.1,3.3l-11.8,7.6c-1.4.9-2.2,1.5-2.4,1.7-.2.2-.3.5-.3.7,0,.3,0,.5.2.6.2.2.5.3,1,.3,1.5,0,3.3-.1,5.5-.6l.4,1.1c-3.4.8-6.1,1.1-8.3.9-1.5-.2-2.6-.6-3.3-1.3-.6-.5-.9-1.1-1-1.8,0-.7.2-1.3.7-1.9.7-.8,2.1-1.9,4.3-3.3l11.3-7.3c1.4-.9,2.4-1.7,3-2.4.3-.3.4-.7.4-1.1,0-.4-.2-.7-.5-1-.4-.4-1.1-.7-2.1-.8-1.8-.3-4.1-.2-6.8.4-2.7.6-6,1.5-9.7,2.8-2,.7-3.9,1.7-5.8,2.9l-4.7,3-3.6-3.2,17.6-11.3c2.1-1.4,3.3-2.2,3.6-2.6.3-.4.4-.8.4-1.3,0-.5-.3-1-.7-1.3-.2-.2-.6-.4-1.1-.8l-1-.7.6-1,9.7,5.8Z"/>
          <path d="M785.2,394.3c-1,0-1.9,0-2.7,0-1.6-.2-2.8-.7-3.6-1.4-.7-.6-1.1-1.3-1.1-2.1,0-.8.2-1.5.8-2.2.7-.8,2.1-1.9,4.4-3.4l11.3-7.3c1.3-.9,2.3-1.7,2.9-2.3.2-.2.3-.5.3-.7,0-.3-.1-.5-.3-.7-.4-.3-1-.6-1.9-.7-1.7-.3-4-.2-6.7.4-2.7.5-5.9,1.5-9.6,2.8-1.9.7-3.9,1.7-5.7,2.8l-5,3.1-4.4-3.8,18.1-11.7c2.7-1.8,3.4-2.3,3.5-2.5.2-.3.3-.6.3-1,0-.4-.2-.7-.5-1-.2-.2-.5-.4-1.1-.7l-1.4-.9,1.1-1.8,10.7,6.4-11,7.1c5.5-1.4,9.5-2.1,12-2.1,3,0,5.2.7,6.8,2,.9.8,1.4,1.7,1.4,2.9,0,1.1-.3,2.2-1.1,3.1-.9,1-2.3,2.1-4.2,3.4l-11.8,7.6c-1.8,1.2-2.2,1.5-2.3,1.6-.1.1-.2.3-.2.4,0,.1,0,.2,0,.2,0,0,.2.1.7.2,1.3,0,3.2-.2,5.4-.6h.4c0,0,.6,1.9.6,1.9h-.5c-2.2.7-4.1,1-5.8,1.1ZM792.1,372.4c1.2,0,2.3,0,3.3.1,1.1.2,1.8.5,2.3.9.4.3.6.8.7,1.3,0,.5-.1,1-.5,1.4-.6.7-1.6,1.5-3.1,2.5l-11.3,7.3c-2.1,1.4-3.5,2.5-4.2,3.2-.4.5-.6,1-.6,1.6,0,.5.3,1,.8,1.5.7.6,1.7,1,3.1,1.2,2,.2,4.5,0,7.6-.8v-.2c-2.2.4-3.9.6-5.3.6-.6,0-1-.2-1.2-.4-.2-.2-.4-.5-.4-.9,0-.4.1-.7.4-1,.2-.2.6-.6,2.5-1.8l11.8-7.6c1.8-1.2,3.1-2.3,4-3.2.7-.8,1-1.6.9-2.4,0-.9-.4-1.6-1.1-2.2-1.4-1.2-3.5-1.8-6.2-1.8-2.8,0-7.7,1-14.6,2.9l-.4-.8,12.2-7.8-8.7-5.2v.2c-.1,0,.5.4.5.4.6.3,1,.6,1.2.8.5.4.8,1,.8,1.6,0,.7,0,1.2-.5,1.7-.2.3-.8.8-3.7,2.7l-17.1,11,2.9,2.5,4.4-2.8c1.9-1.2,3.9-2.2,5.9-2.9,3.7-1.3,7-2.3,9.7-2.8,1.4-.3,2.6-.4,3.8-.5Z"/>
        </g>
        <g>
          <path d="M802.3,395.6c-.8.7-1.4,1.3-1.9,1.9-1.3,1.4-1.8,3.1-1.7,5,.1,1.9.9,3.5,2.4,4.7,1.2,1,2.5,1.7,4,2.2,1.5.4,4,.8,7.5,1v1.1c-7.2.5-12.5-.8-16-3.8-2.3-2-3.5-4.3-3.4-6.8,0-2.5.9-4.7,2.5-6.5,2.1-2.4,5-4.2,8.6-5.5,3.7-1.2,7.2-1.6,10.7-1,3.5.5,6.4,1.8,8.8,3.9,1.7,1.5,2.7,2.9,2.9,4.3.2,1.4,0,2.6-.9,3.5-1.2,1.3-2.8,2.2-4.9,2.5-2.8.4-6-.1-9.6-1.5-2.4-.9-5.4-2.6-9-5.1ZM803.5,394.5c2.6,1.8,5,3,7.1,3.7,2.8.8,5.2,1.1,7.2.7,2.1-.4,3.6-1.1,4.6-2.2.6-.7.8-1.4.8-2.2,0-.8-.5-1.5-1.3-2.2-1.6-1.4-4.2-2.1-7.5-1.9-3.4.1-7,1.5-10.8,4.2Z"/>
          <path d="M812.3,412c-7.1.4-12.4-.9-15.9-4-2.4-2.1-3.6-4.5-3.5-7.2,0-2.6,1-4.9,2.6-6.7,2.1-2.5,5.1-4.3,8.8-5.6,3.7-1.2,7.4-1.6,10.9-1.1,3.5.5,6.6,1.9,9,4,1.8,1.5,2.8,3.1,3,4.6.2,1.5-.1,2.9-1,3.9-1.2,1.4-3,2.3-5.2,2.6-2.9.4-6.2-.1-9.8-1.5-2.3-.9-5.3-2.5-8.8-4.9-.7.6-1.2,1.1-1.6,1.6-1.2,1.4-1.7,2.9-1.6,4.7.1,1.8.9,3.2,2.2,4.4,1.1,1,2.4,1.7,3.8,2.1,1.5.4,3.9.8,7.4,1h.5s-.2,2-.2,2h-.7ZM810.7,388.1c-2,.1-4.1.5-6.1,1.2-3.6,1.2-6.4,3-8.4,5.3-1.5,1.7-2.3,3.8-2.4,6.2,0,2.4,1,4.5,3.2,6.5,3.3,2.9,8.4,4.1,15.2,3.7v-.3c-3.3-.2-5.7-.5-7.1-1-1.5-.5-2.9-1.2-4.2-2.3-1.6-1.3-2.4-3.1-2.6-5.1-.1-2,.5-3.8,1.8-5.3.5-.5,1.1-1.2,1.9-1.9l.3-.2.3.2c3.6,2.4,6.6,4.1,8.9,5,3.5,1.4,6.6,1.8,9.3,1.5,2-.3,3.6-1.1,4.7-2.3.7-.8,1-1.9.8-3.2-.2-1.3-1.1-2.7-2.7-4.1-2.3-2-5.2-3.3-8.5-3.8-1.4-.2-2.9-.3-4.3-.2ZM816.6,399.5h0c-1.8.1-3.9-.2-6.1-.9-2.1-.7-4.5-1.9-7.2-3.7l-.6-.4.6-.4c3.8-2.6,7.5-4.1,10.9-4.3h.2c3.5-.2,6.1.5,7.8,2,.9.8,1.4,1.6,1.4,2.5,0,.9-.2,1.8-.9,2.5-1,1.2-2.7,2-4.8,2.4-.4,0-.9.1-1.3.2ZM804.4,394.5c2.4,1.6,4.5,2.6,6.4,3.2,2.1.7,4.1.9,5.8.8h0c.4,0,.8,0,1.2-.1,1.9-.4,3.4-1.1,4.3-2.1.5-.6.7-1.2.7-1.8,0-.7-.4-1.3-1.1-1.9-1.5-1.3-4-2-7.2-1.8h-.2c-3,.2-6.3,1.4-9.8,3.8Z"/>
        </g>
      </g>
      <g>
        <g>
          <path d="M410.8,828.7l8.3-5.7.9.8c-1.9,2.1-2.9,4.1-3,5.8-.1,1.7.4,3.1,1.6,4.3.9.9,1.9,1.4,3,1.4,1.1,0,2-.3,2.7-1.1.5-.5.8-1.1,1.1-1.8.2-.7.4-1.8.4-3.4.1-4.1.5-7,.9-8.7.5-1.7,1.2-3,2.2-4,1.6-1.6,3.6-2.4,6.1-2.3,2.5,0,4.8,1.1,6.8,3,1.1,1.1,2.1,2.6,3.1,4.5.3.7.6,1.1.9,1.4.7.7,1.6.8,2.6.5l.8.8-8.6,6.1-.9-.8c2.2-2.4,3.3-4.5,3.4-6.4,0-1.8-.7-3.5-2.2-4.9-1.2-1.1-2.4-1.7-3.7-1.7-1.3,0-2.4.5-3.4,1.4-.6.6-1,1.3-1.3,2.1-.4,1.3-.8,3.5-1,6.5-.2,3-.5,5-.9,6.2-.4,1.2-1,2.2-1.8,3-1.4,1.5-3.2,2.2-5.3,2.2-2.1,0-4-.9-5.7-2.5-.5-.5-.9-1-1.2-1.4-.2-.3-.5-.9-1-2-.5-1.1-.9-1.7-1.2-2-.6-.6-1.6-.8-2.7-.5l-.9-.8Z"/>
          <path d="M424,838.4c-.2,0-.4,0-.6,0-2.2,0-4.2-.9-6-2.6-.5-.5-.9-1-1.3-1.5-.2-.3-.5-1-1-2.1-.6-1.3-.9-1.7-1.1-1.9-.5-.5-1.3-.6-2.3-.4h-.2c0,0-1.4-1.3-1.4-1.3l9.1-6.3,1.5,1.4-.3.3c-1.8,2-2.8,3.9-2.9,5.5,0,1.6.4,2.9,1.5,3.9.9.8,1.7,1.2,2.7,1.3.9,0,1.7-.3,2.3-.9.4-.4.8-1,1-1.6.2-.6.3-1.7.4-3.2.1-4.2.5-7.1.9-8.8.5-1.7,1.3-3.1,2.3-4.2,1.6-1.7,3.8-2.5,6.4-2.5,2.6,0,5,1.1,7.1,3.2,1.1,1.1,2.2,2.7,3.2,4.6.3.6.6,1.1.8,1.3.6.5,1.3.7,2.1.4h.3c0,0,1.4,1.3,1.4,1.3l-9.4,6.7-1.5-1.4.3-.3c2.1-2.3,3.2-4.4,3.3-6.1,0-1.7-.6-3.2-2.1-4.6-1.1-1.1-2.2-1.6-3.4-1.6-1.2,0-2.2.4-3,1.3-.5.6-.9,1.2-1.2,1.9-.4,1.3-.8,3.4-1,6.3-.2,3-.5,5.1-.9,6.3-.4,1.3-1.1,2.3-1.9,3.2-1.4,1.4-3.1,2.2-5,2.3ZM412.4,828.9c.9,0,1.7.2,2.3.8.2.2.5.6,1.3,2.1.6,1.3.9,1.8,1,1.9.3.4.7.9,1.2,1.3,1.6,1.6,3.4,2.3,5.4,2.4,2,0,3.6-.7,5-2.1.7-.8,1.3-1.7,1.7-2.8.4-1.1.7-3.2.9-6.1.2-3,.5-5.2,1-6.6.3-.8.8-1.6,1.4-2.3,1-1,2.3-1.6,3.7-1.5,1.4,0,2.8.6,4,1.8,1.6,1.6,2.4,3.3,2.3,5.3,0,1.8-1.1,4-3.2,6.3l.3.3,7.9-5.6-.2-.2c-1.1.3-2,0-2.8-.7-.3-.3-.7-.8-1-1.6-.9-1.9-1.9-3.3-3-4.4-1.9-1.9-4.1-2.8-6.5-2.9-2.4,0-4.3.7-5.8,2.2-.9.9-1.6,2.2-2.1,3.8-.5,1.6-.8,4.5-.9,8.6,0,1.6-.2,2.8-.4,3.5-.3.7-.7,1.4-1.2,1.9-.8.8-1.8,1.2-3,1.2-1.2,0-2.3-.5-3.3-1.5-1.3-1.2-1.9-2.8-1.8-4.6.1-1.7,1.1-3.6,2.9-5.7l-.3-.3-7.5,5.2.3.3c.2,0,.4,0,.6,0Z"/>
        </g>
        <g>
          <path d="M389.7,808.3l15.2-18.8c-5.7.5-10.7,1.4-15,2.6-2.5.7-4.1,1.4-4.8,2.1-.3.3-.6.7-.7,1.1,0,.2,0,.6.1,1.3.2.7.2,1.2,0,1.7-.1.5-.3.8-.6,1.2-.5.5-1,.7-1.7.7-.7,0-1.3-.3-1.8-.8-.6-.6-.9-1.4-.9-2.3,0-.9.4-1.7,1.2-2.5.8-.8,1.6-1.4,2.5-1.9,1.7-.9,4.3-1.7,7.6-2.5,4.1-.9,8-1.6,11.8-2.1,3.8-.5,6.5-.7,8.2-.8l.9.8-14,17.4,25-6.7,1,1c-6.2,6.7-10.9,12.2-14,16.5-1.3,1.8-1.9,3.2-1.9,4.2,0,.7.5,1.5,1.2,2.2.5.4,1.1,1,1.8,1.5l-.8.8-8.1-4.9c1.6-3.5,4.8-8,9.6-13.6,1.9-2.1,3-3.5,3.5-4l-24.6,6.5-.9-.8Z"/>
          <path d="M410.3,825.7l-8.8-5.3.2-.4c1.6-3.5,4.8-8.1,9.7-13.7,1.1-1.2,1.9-2.2,2.5-2.9l-23.5,6.2-1.3-1.3,14.7-18.3c-5.2.5-9.8,1.4-13.8,2.5-3,.9-4.1,1.6-4.6,2-.3.3-.5.6-.5.9,0,0,0,.3.1,1.1.2.7.2,1.4,0,1.9-.1.5-.4,1-.7,1.4-.6.6-1.2.9-2,.8-.8,0-1.5-.3-2.2-.9-.7-.7-1.1-1.6-1.1-2.6,0-1,.5-2,1.3-2.8.8-.8,1.7-1.5,2.6-2,1.8-.9,4.4-1.7,7.7-2.5,4.1-.9,8.1-1.6,11.9-2.1,3.8-.5,6.6-.7,8.2-.8h.2s1.3,1.3,1.3,1.3l-13.3,16.6,23.9-6.4,1.5,1.5-.3.3c-6.2,6.6-10.9,12.2-14,16.4-1.2,1.7-1.8,3-1.8,3.9,0,.6.4,1.2,1.1,1.9.4.4,1,.9,1.8,1.5l.4.3-1.4,1.5ZM402.7,820.1l7.4,4.5.2-.2c-.6-.5-1.1-.9-1.5-1.3-.9-.8-1.3-1.7-1.4-2.5,0-1.1.6-2.6,2-4.5,3.1-4.3,7.7-9.7,13.8-16.2l-.5-.5-26.1,7,14.6-18.2-.4-.4c-1.7,0-4.3.3-8,.8-3.8.5-7.7,1.2-11.8,2.1-3.3.8-5.8,1.6-7.5,2.5-.9.5-1.7,1.1-2.4,1.8-.7.7-1,1.4-1,2.2,0,.8.2,1.4.8,1.9.5.5,1,.7,1.5.7.5,0,1-.2,1.4-.6.3-.3.4-.6.5-.9,0-.4,0-.9,0-1.5-.2-1-.2-1.4-.1-1.6.1-.4.4-.9.8-1.3.8-.8,2.4-1.5,5-2.3,4.3-1.2,9.3-2.1,15-2.6h1.1c0-.1-15.6,19.2-15.6,19.2l.4.4,25.7-6.7-.8,1.1c-.4.6-1.6,1.9-3.5,4.1-4.6,5.3-7.8,9.7-9.4,13.1Z"/>
        </g>
      </g>
      <g>
        <g>
          <path d="M826.3,798.4l-6.1-8,.8-.9c2.2,1.8,4.2,2.8,5.9,2.8,1.7,0,3.1-.6,4.2-1.8.9-1,1.3-2,1.3-3.1,0-1.1-.4-1.9-1.2-2.6-.5-.5-1.1-.8-1.8-1-.7-.2-1.8-.3-3.4-.3-4.1,0-7-.2-8.7-.6-1.7-.4-3-1.1-4.1-2-1.7-1.5-2.5-3.5-2.6-6,0-2.5.9-4.8,2.7-6.9,1-1.2,2.5-2.2,4.4-3.3.7-.3,1.1-.7,1.4-1,.6-.7.8-1.6.4-2.6l.8-.9,6.5,8.4-.8.9c-2.5-2.1-4.7-3.1-6.5-3.1-1.8,0-3.4.8-4.8,2.4-1.1,1.2-1.6,2.5-1.6,3.8,0,1.3.6,2.4,1.5,3.3.6.6,1.3,1,2.1,1.2,1.4.4,3.5.6,6.5.7,3,0,5.1.3,6.3.6,1.2.3,2.2.9,3.1,1.7,1.5,1.4,2.4,3.1,2.4,5.2,0,2.1-.7,4-2.3,5.8-.5.5-.9.9-1.4,1.3-.3.2-.9.5-1.9,1.1-1,.5-1.7,1-1.9,1.2-.6.7-.7,1.6-.4,2.7l-.8.9Z"/>
          <path d="M826.3,799.1l-6.7-8.8,1.3-1.5.3.3c2.1,1.8,4,2.7,5.6,2.7,1.6,0,2.9-.5,3.9-1.6.8-.9,1.2-1.8,1.2-2.7,0-.9-.3-1.7-1-2.3-.5-.4-1-.7-1.6-.9-.6-.2-1.7-.3-3.2-.2-4.1,0-7.1-.2-8.8-.6-1.7-.4-3.2-1.1-4.3-2.1-1.8-1.6-2.7-3.7-2.7-6.3,0-2.6.9-5.1,2.9-7.2,1.1-1.2,2.6-2.3,4.5-3.4.6-.3,1-.6,1.3-.9.5-.6.6-1.3.3-2.1v-.3c-.1,0,1.2-1.5,1.2-1.5l7,9.1-1.3,1.5-.3-.3c-2.4-2-4.5-3-6.2-3-1.7,0-3.2.8-4.5,2.3-1,1.1-1.5,2.3-1.4,3.5,0,1.2.5,2.2,1.4,3,.6.5,1.2.9,2,1.1,1.3.4,3.5.6,6.4.7,3,0,5.1.3,6.4.7,1.3.4,2.4,1,3.3,1.8,1.6,1.5,2.5,3.3,2.6,5.5,0,2.2-.7,4.2-2.4,6.1-.5.5-1,1-1.4,1.4-.3.2-.9.5-2,1.1-1.3.7-1.7,1-1.8,1.1-.5.6-.6,1.3-.3,2.3v.2c0,0-1.3,1.5-1.3,1.5ZM820.9,790.4l5.5,7.3.3-.3c-.3-1.2,0-2.2.6-2.9.2-.2.6-.6,2.1-1.3,1-.5,1.7-.9,1.9-1.1.4-.3.8-.7,1.3-1.2,1.5-1.7,2.2-3.5,2.1-5.5,0-2-.8-3.6-2.3-4.9-.8-.7-1.8-1.2-2.9-1.6-1.2-.3-3.2-.5-6.1-.6-3,0-5.2-.3-6.6-.7-.9-.3-1.6-.7-2.3-1.3-1.1-1-1.7-2.2-1.7-3.6,0-1.4.5-2.8,1.7-4.1,1.5-1.7,3.2-2.6,5.2-2.6,1.9,0,4,.9,6.4,2.9l.2-.3-5.9-7.6-.2.2c.3,1.1.2,2-.5,2.8-.3.3-.8.7-1.5,1.1-1.8,1-3.2,2.1-4.2,3.2-1.8,2-2.7,4.2-2.6,6.6,0,2.4.9,4.3,2.4,5.7,1,.9,2.3,1.5,3.9,1.9,1.6.4,4.5.6,8.6.6,1.6,0,2.8,0,3.5.3.7.2,1.4.6,2,1.1.9.8,1.3,1.8,1.3,3,0,1.2-.5,2.3-1.4,3.4-1.2,1.3-2.7,2-4.6,1.9-1.7,0-3.7-.9-5.8-2.6l-.3.3Z"/>
        </g>
        <g>
          <path d="M807.3,794.2c-.7-.8-1.3-1.4-1.8-1.9-1.4-1.3-3.1-1.9-5-1.7-1.9.1-3.5.9-4.8,2.3-1,1.1-1.8,2.5-2.2,4-.5,1.5-.8,4-1.1,7.5h-1.1c-.4-7.2,1-12.5,4-15.9,2.1-2.3,4.4-3.4,6.9-3.3s4.7,1,6.4,2.6c2.4,2.1,4.2,5,5.3,8.7,1.2,3.7,1.5,7.3.9,10.7-.6,3.4-1.9,6.4-4,8.7-1.5,1.7-3,2.6-4.4,2.8-1.4.2-2.6-.1-3.5-1-1.3-1.2-2.1-2.8-2.4-5-.3-2.8.2-6,1.6-9.6.9-2.4,2.7-5.4,5.2-8.9ZM808.3,795.5c-1.8,2.6-3.1,4.9-3.7,7-.9,2.7-1.1,5.1-.8,7.2.3,2.1,1.1,3.6,2.2,4.6.7.6,1.4.8,2.2.8.8,0,1.5-.5,2.2-1.2,1.4-1.6,2.1-4.1,2-7.5,0-3.4-1.5-7-4.1-10.9Z"/>
          <path d="M806,819.1c-1.3,0-2.5-.3-3.4-1.1-1.4-1.3-2.3-3-2.6-5.3-.4-2.9.2-6.2,1.7-9.8.9-2.3,2.6-5.3,5-8.7-.6-.7-1.1-1.2-1.6-1.6-1.3-1.2-2.9-1.7-4.7-1.6-1.8.1-3.2.8-4.5,2.2-1,1.1-1.7,2.4-2.1,3.8-.5,1.4-.8,3.9-1.1,7.4v.5s-2-.2-2-.2v-.4c-.4-7.2,1-12.7,4.1-16.2,2.2-2.4,4.6-3.6,7.3-3.4,2.6.1,4.9,1,6.7,2.7,2.4,2.2,4.3,5.2,5.5,8.9,1.2,3.7,1.5,7.4.9,10.9-.6,3.5-2,6.5-4.1,8.9-1.6,1.8-3.1,2.8-4.7,3-.2,0-.3,0-.5,0ZM800.4,790.1c2-.1,3.8.5,5.3,1.9.5.5,1.2,1.1,1.9,1.9l.2.3-.2.3c-2.5,3.5-4.2,6.5-5.1,8.8-1.4,3.5-1.9,6.6-1.6,9.3.3,2,1,3.6,2.3,4.7.8.7,1.9,1,3.2.8,1.3-.2,2.7-1.1,4.1-2.7,2-2.3,3.4-5.1,3.9-8.5.6-3.4.3-6.9-.9-10.5-1.2-3.6-2.9-6.5-5.2-8.5-1.7-1.5-3.7-2.3-6.1-2.4-2.4-.1-4.6.9-6.5,3.1-2.9,3.3-4.2,8.3-3.9,15.1h.3c.2-3.3.6-5.7,1.1-7.1.5-1.5,1.3-2.9,2.3-4.1,1.4-1.5,3.1-2.4,5.1-2.5ZM808.2,815.5c-.9,0-1.8-.3-2.5-.9-1.2-1.1-2-2.7-2.3-4.9-.4-2.1,0-4.6.8-7.4.7-2.1,2-4.5,3.8-7.1l.4-.6.4.6c2.7,4,4,7.7,4.2,11.1.1,3.5-.6,6.1-2.1,7.8-.8.9-1.6,1.3-2.5,1.4h0ZM808.3,796.3c-1.6,2.3-2.7,4.5-3.3,6.3-.9,2.7-1.1,5-.8,7,.3,2,1,3.4,2,4.3.6.5,1.1.7,1.8.7.7,0,1.3-.4,1.9-1.1,1.4-1.5,2-3.9,1.9-7.2,0-3.1-1.3-6.5-3.6-10.1Z"/>
        </g>
      </g>
    </g>
    <g>
      <g>
        <path d="M586.3,180.8l23,49.7,8.7-38.6c.7-3.2,1-5.6.9-7.3s-.5-2.1-1.4-2.7c-.9-.6-2.4-.9-4.7-.7s-.8,0-1.2,0l.4-1.8,20.8-1.2-.5,1.8c-2.2,0-3.8.4-4.8.9-1.5.8-2.5,1.7-3.2,2.8-.9,1.6-1.8,4.2-2.6,8l-12.1,54.3h-1.7c0,.1-24.8-53.3-24.8-53.3l-9.2,41.1c-.7,3.1-.9,5.5-.8,7.1s.5,2.1,1.3,2.7c.8.6,2.7.9,5.6.9l-.4,1.8-20.4,1.2.5-1.8c2.6-.2,4.3-.5,5.1-1,1.3-.7,2.2-1.5,2.8-2.4.8-1.4,1.7-4.2,2.6-8.3l10.2-45.8c-1.3-1.8-2.7-3.1-4.2-3.7-1.5-.6-3.7-.9-6.7-.9l.4-1.8,16.2-.9Z"/>
        <path d="M609.9,246.4h-2.4c0,.1-.1-.1-.1-.1l-24.2-52.2-8.9,39.7c-.6,3.1-.9,5.4-.8,7s.4,1.8,1.1,2.3c.5.4,1.8.8,5.4.8h.6s-.6,2.7-.6,2.7l-21.4,1.2.8-2.8h.3c2.5-.2,4.2-.5,4.9-.9,1.2-.6,2.1-1.4,2.6-2.3.8-1.4,1.7-4.1,2.6-8.2l10.1-45.6c-1.2-1.7-2.6-2.8-3.9-3.4-1.4-.6-3.6-.9-6.5-.8h-.6s.6-2.7.6-2.7l16.9-1,22.5,48.7,8.4-37.3c.7-3.1,1-5.5.9-7.2s-.5-1.8-1.2-2.4c-.8-.6-2.3-.8-4.4-.7s-.8,0-1.2,0h-.6s.6-2.7.6-2.7l21.8-1.3-.7,2.8h-.8c-1.9.1-3.2.4-4.1.9-1.4.7-2.4,1.6-3.1,2.6-.9,1.5-1.7,4.2-2.6,7.9l-12.2,54.7ZM608.1,245.6h1.1c0,0,12.1-54.1,12.1-54.1.9-3.9,1.7-6.5,2.7-8.2.7-1.2,1.9-2.2,3.4-3,1-.5,2.5-.8,4.5-1h.2s.2-.9.2-.9l-19.9,1.2-.2.9c.2,0,.4,0,.6,0,2.4-.1,4,.1,5,.8,1,.7,1.5,1.7,1.6,3.1s-.2,4.2-.9,7.4l-8.9,39.9-23.4-50.6-15.6.9-.2.9c2.8,0,4.8.3,6.3.9,1.5.7,3,2,4.4,3.8v.2c.1,0-10.1,46-10.1,46-.9,4.2-1.8,7-2.7,8.4-.6,1-1.6,1.9-3,2.6-.9.5-2.5.8-5,1l-.3.9,19.4-1.1.2-.9c-2.7,0-4.5-.4-5.3-1-.9-.7-1.4-1.7-1.5-3s.2-4.1.8-7.3l9.5-42.4,25.2,54.4Z"/>
      </g>
      <g>
        <path d="M577.5,1022l3.9-24.4h1.7c-.1,2.3-.1,4.2,0,5.7.3,4.4,1.9,7.9,4.8,10.4,3,2.6,6.7,3.7,11.2,3.5s7.2-1.7,9.3-4.4c2-2.7,2.9-5.7,2.7-9.1s-.7-4.1-1.8-5.9c-1.7-2.6-6-7-12.9-13.3-3.3-3-5.5-5.2-6.5-6.8-1.6-2.5-2.5-5.2-2.7-8-.3-4.5,1.2-8.5,4.4-11.9,3.2-3.4,7.4-5.3,12.7-5.6s3.5,0,5.1.2c1,.1,2.8.7,5.5,1.6,1.9.6,2.9.9,3.1,1,.5,0,1,0,1.5,0,1,0,1.7-.3,2.4-.9.6-.5,1.3-1.6,2.2-3.2h1.8c0-.1-3.7,21.7-3.7,21.7h-1.7c0-1.9,0-3.4,0-4.5-.2-3.9-1.7-7-4.4-9.3-2.7-2.3-6.1-3.3-10.3-3.1-3.3.2-5.9,1.3-7.9,3.4-2,2.1-2.9,4.4-2.7,7s.9,4.3,2.4,6.2c1.4,1.9,4.7,5.1,9.7,9.4,5,4.3,8.3,7.7,9.9,10.2,1.5,2.5,2.4,5.2,2.6,8.1s-.5,6.5-2,9.7c-1.5,3.2-3.9,5.7-7.1,7.6-3.2,1.9-6.7,2.9-10.5,3.1s-3.7,0-5.4-.2c-1.7-.3-4.4-1-8.1-2.1-1.3-.4-2.3-.6-3.1-.5-1.9.1-3.3,1.5-4.2,4.1h-1.8Z"/>
        <path d="M600.1,1021.1c-1.9.1-3.8,0-5.5-.2-1.7-.3-4.4-1-8.2-2.1-1.2-.4-2.2-.6-3-.5-1.7,0-2.9,1.3-3.8,3.7v.3c-.1,0-2.8.2-2.8.2l4.1-25.3h2.5c0-.1,0,.4,0,.4,0,2.3-.1,4.3,0,5.7.2,4.2,1.8,7.7,4.7,10.1,2.8,2.5,6.5,3.6,10.9,3.3,4-.2,7-1.6,8.9-4.2,1.9-2.6,2.8-5.5,2.6-8.8s-.7-4-1.7-5.6c-1.6-2.5-5.9-6.9-12.8-13.2-3.4-3-5.5-5.3-6.6-6.9-1.7-2.5-2.6-5.3-2.7-8.2-.3-4.6,1.3-8.7,4.5-12.3,3.3-3.5,7.6-5.4,13-5.7s3.6,0,5.2.2c1,.1,2.9.7,5.6,1.7,1.7.6,2.8.9,3,1,.4,0,.9,0,1.4,0,.9,0,1.5-.3,2.1-.7.6-.5,1.3-1.5,2-3.1v-.2c.1,0,2.8-.2,2.8-.2l-3.9,22.8h-2.5c0,.1,0-.4,0-.4,0-1.9,0-3.5,0-4.6-.2-3.7-1.6-6.7-4.2-9-2.6-2.2-6-3.2-10-3s-5.7,1.3-7.6,3.2c-1.9,2-2.7,4.2-2.6,6.6s.9,4.1,2.3,6c1.4,1.9,4.7,5,9.7,9.3,5.1,4.3,8.4,7.8,10,10.3,1.6,2.5,2.5,5.3,2.6,8.3s-.5,6.7-2.1,9.9c-1.6,3.3-4,5.9-7.2,7.8-3.2,1.9-6.8,3-10.7,3.2ZM583.4,1017.4c.9,0,2,.1,3.3.6,3.7,1.1,6.4,1.8,8,2.1,1.6.3,3.4.3,5.3.2,3.7-.2,7.2-1.3,10.3-3.1,3.1-1.8,5.4-4.3,6.9-7.4,1.5-3.1,2.2-6.3,2-9.5s-1-5.4-2.5-7.9c-1.5-2.4-4.8-5.8-9.8-10.1-5-4.3-8.3-7.5-9.8-9.4-1.5-2-2.3-4.2-2.5-6.5s.8-5.2,2.8-7.3c2-2.1,4.8-3.3,8.2-3.5s7.9.8,10.7,3.2c2.8,2.4,4.3,5.6,4.5,9.6s0,2.5,0,4.2h.8s3.6-21,3.6-21h-1c-.8,1.6-1.5,2.7-2.2,3.2-.7.6-1.6.9-2.6,1s-1.1,0-1.6,0h0c-.2,0-1.2-.4-3.1-1-2.6-.9-4.5-1.5-5.4-1.6-1.6-.3-3.3-.3-5-.2-5.1.3-9.3,2.1-12.4,5.5-3.1,3.3-4.5,7.2-4.3,11.6s1,5.4,2.6,7.8c1,1.5,3.1,3.7,6.4,6.7,6.9,6.3,11.3,10.8,13,13.3,1.1,1.8,1.7,3.8,1.8,6.1.2,3.5-.7,6.6-2.8,9.4-2.1,2.8-5.3,4.3-9.6,4.6s-8.5-.9-11.5-3.6c-3-2.6-4.7-6.3-5-10.8s0-3.2,0-5.3h-.8s-3.8,23.5-3.8,23.5h1c1-2.6,2.5-4,4.5-4.1Z"/>
      </g>
      <g>
        <path d="M245.8,633l-54.4-2.4c-2.1-.1-3.7-.1-4.8,0-1.9.1-3.2.7-4.1,1.8-.9,1.1-1.3,3-1.2,5.8l-1.8-.4-1.4-24.3,1.8.4c.1,3.3.9,5.4,2.1,6.5,1.3,1.1,4.2,1.8,8.9,1.9l35.3,1.6-39.5-22.4c-.7,0-1.2,0-1.7,0-1.8.1-3.1.7-4,1.8-.9,1.1-1.4,3.4-1.4,6.9l-1.8-.3-1.5-26.3,1.8.4c.2,3,.6,5,1.1,6.1.4.7,1,1.3,1.8,1.8.8.5,2.2.8,4.1,1,.6,0,4.3.2,11.2.5,6.9.3,16.3.8,28.2,1.4l-32.4-18.7c-3.5-2-6-3.3-7.4-3.8-1.4-.5-2.6-.7-3.6-.7s-1.6.5-2.3,1.3c-.6.8-1,2.1-1.1,4l-1.8-.3-1.1-19.2,1.8.4c.2,1.7.7,3.2,1.5,4.4.8,1.3,2.2,2.7,4.3,4.4,1.2.9,4.4,2.8,9.5,5.8l52.1,29.6v1.8c.1,0-50.4-2.4-50.4-2.4l52.1,29.7v1.6Z"/>
        <path d="M181.8,638.8l-2.7-.6-1.5-25.3,2.8.7v.3c.2,3.1.8,5.2,2,6.2,1.2,1,4.1,1.7,8.6,1.8l33.3,1.5-37.7-21.4c-.6,0-1.1,0-1.5,0-1.7,0-2.9.6-3.7,1.6-.8,1-1.2,3.2-1.3,6.6v.5s-2.7-.4-2.7-.4l-1.6-27.2,2.7.7v.3c.2,2.9.6,4.9,1.1,5.9.4.6.9,1.2,1.6,1.6.7.5,2.1.8,3.9,1,.6,0,4.5.2,11.1.5,6.4.3,15.3.7,26.2,1.3l-30.7-17.7c-3.5-2-6-3.3-7.4-3.7-1.4-.5-2.5-.7-3.4-.6s-1.4.4-2,1.1c-.6.7-.9,2-1,3.7v.5s-2.7-.4-2.7-.4l-1.2-20.2,2.7.6v.3c.3,1.6.7,3.1,1.5,4.3.8,1.2,2.2,2.7,4.2,4.3,1.2.9,4.3,2.8,9.4,5.7l52.3,29.7v2.5c.1,0-48.9-2.3-48.9-2.3l50.6,28.8v2.4c.1,0-.4,0-.4,0l-54.4-2.4c-2-.1-3.6-.1-4.7,0-1.7.1-3,.7-3.8,1.6-.8,1-1.2,2.9-1.1,5.5v.6ZM180,637.4l.9.2c0-2.6.4-4.4,1.3-5.5,1-1.2,2.5-1.9,4.5-2s2.7,0,4.8,0l53.9,2.4v-.8s-51.9-29.6-51.9-29.6l.2-.9,50,2.3v-1c0,0-51.9-29.5-51.9-29.5-5.2-3-8.3-4.9-9.5-5.8-2.1-1.7-3.6-3.2-4.4-4.5-.8-1.2-1.3-2.7-1.5-4.3l-.9-.2,1.1,18.3h.9c.1-1.6.5-2.8,1.2-3.6.7-.9,1.6-1.4,2.6-1.4s2.3.2,3.7.7c1.5.5,3.9,1.7,7.5,3.8l32.4,18.7-.3.9c-11.9-.7-21.3-1.1-28.1-1.4-4.7-.2-10.5-.4-11.2-.5-2-.2-3.4-.6-4.3-1.1-.9-.5-1.5-1.2-2-2-.6-1.1-.9-3-1.2-5.9l-.9-.2,1.5,25.3h.9c0-3.2.6-5.4,1.5-6.5,1-1.2,2.4-1.9,4.3-2s1,0,1.7,0h.1s39.6,22.5,39.6,22.5l-.2.9-35.3-1.6c-4.8-.2-7.8-.8-9.2-2-1.3-1.2-2.1-3.3-2.3-6.5l-.9-.2,1.4,23.3Z"/>
      </g>
      <g>
        <path d="M1023.1,596.7l-26.1-5.9.4,6.1c.3,4.4,1.1,7.5,2.5,9.3,1.4,1.9,4,3.4,7.6,4.6v1.8c.1,0-23.8-5.3-23.8-5.3v-1.9c1.9.4,3.6.6,5,.5s2.4-.4,3.2-1c.8-.6,1.4-1.4,1.7-2.4.3-1,.4-3.1.2-6.2l-.4-6.2-21.8-5c-2.1-.5-3.7-.7-4.8-.6s-1.5.5-2.1,1.3c-.4.6-.5,1.9-.4,4.1l.3,5.8c.4,6.2,1.8,11.1,4.2,14.7,2.4,3.6,6.4,6.7,12,9.4v1.8c.1,0-18.3-5.1-18.3-5.1l-2.9-50.1,1.8.5c.2,2.5.5,4.2.9,5,.7,1.2,1.5,2.1,2.4,2.7,1.4.8,4.2,1.6,8.4,2.5l39.7,9.1c3.2.7,5.7,1,7.3.9s2.1-.5,2.7-1.4c.6-.9.9-2.5.8-5v-1c0,0,1.8.4,1.8.4l2.7,46.6-15.9-3.1v-1.8c1.4.2,2.6.2,3.6.1,1.7,0,3.1-.6,4.2-1.5,1.4-1.2,2.4-2.8,3.1-4.9.5-1.6.6-5.1.3-10.6l-.5-8.2Z"/>
        <path d="M1028.9,627.2l-16.8-3.2-.2-2.7h.5c1.4.2,2.7.3,3.6.2,1.6,0,2.9-.6,3.9-1.4,1.3-1.1,2.3-2.7,2.9-4.7.5-1.5.6-5,.3-10.5l-.5-7.8-25.2-5.7.3,5.4c.2,4.2,1.1,7.3,2.4,9.1,1.4,1.8,3.9,3.3,7.4,4.4h.3c0,0,.2,2.8.2,2.8l-24.8-5.5-.2-2.9h.6c3.7.9,6.5.9,8-.3.7-.6,1.2-1.3,1.5-2.2.3-.9.4-3,.2-6l-.3-5.8-21.5-4.9c-2.1-.5-3.7-.7-4.7-.6s-1.3.4-1.8,1.1c-.2.3-.5,1.1-.3,3.8l.3,5.8c.4,6.1,1.7,11,4.1,14.5,2.4,3.5,6.3,6.6,11.8,9.2h.2c0,.1.2,2.8.2,2.8l-19.3-5.3-3-51.1,2.8.7v.3c.2,2.4.5,4,.9,4.8.6,1.1,1.4,2,2.2,2.5,1.3.7,4.1,1.6,8.3,2.5l39.8,9.1c3.2.7,5.6,1,7.2.9s1.8-.5,2.4-1.2c.6-.8.8-2.4.7-4.7v-1.6c0,0,2.7.7,2.7.7l2.8,47.5ZM1012.9,623.2l15,2.9-2.7-45.6-.9-.2v.4c.2,2.6-.1,4.3-.8,5.3-.7,1-1.8,1.5-3.1,1.6s-4.2-.2-7.4-.9l-39.8-9.1c-4.3-1-7.1-1.8-8.6-2.6-1-.6-1.8-1.5-2.5-2.8-.5-.9-.8-2.5-1-4.9l-.9-.2,2.9,49.2,17.4,4.8v-.9c-5.6-2.7-9.6-5.8-12-9.4-2.5-3.7-3.9-8.7-4.2-15l-.3-5.8c-.1-2.3,0-3.7.5-4.4.7-.9,1.5-1.5,2.5-1.5s2.7.1,4.9.6l22.1,5.1.4,6.5c.2,3.2.1,5.3-.3,6.4-.4,1.1-1,2-1.9,2.6-1.7,1.3-4.4,1.4-8.2.7v1c0,0,23,5.1,23,5.1v-.9c-3.6-1.2-6.2-2.7-7.6-4.6-1.5-1.9-2.4-5.2-2.6-9.6l-.4-6.7,27,6.1.5,8.5c.3,5.6.2,9.1-.3,10.8-.7,2.2-1.7,3.9-3.2,5.2-1.2,1-2.7,1.5-4.5,1.6s-2,0-3.2,0v.9Z"/>
      </g>
    </g>
  </g>
</svg>