<svg width="308" height="125" viewBox="0 0 308 125" fill="none" xmlns="http://www.w3.org/2000/svg">
<path d="M136.395 1.73744C136.339 1.56393 136.279 1.39822 136.215 1.24344C137.23 1.23978 138.269 1.23147 139.314 1.22313C141.129 1.20862 142.962 1.19398 144.714 1.20333C144.223 2.1119 144 2.92949 143.911 3.67634C143.828 4.36581 143.863 5.00958 143.893 5.55188C143.903 5.73423 143.912 5.90511 143.916 6.0624L143.948 7.34586L144.792 6.3784C149.956 0.459859 155.517 -0.507006 159.785 1.35727C164.092 3.2382 167.249 8.06645 167.436 14.0728C167.623 21.3469 164.708 26.9045 161.352 31.8104C160.512 33.0378 159.647 34.2213 158.796 35.3824L158.675 35.5472C157.867 36.6492 157.072 37.7329 156.334 38.8058C154.786 41.0554 153.459 43.2926 152.74 45.6327C151.31 50.2915 152.116 54.6083 154.162 57.3338C155.187 58.6982 156.53 59.6712 158.061 60.0611C159.598 60.4524 161.283 60.2453 162.958 59.3199L162.965 59.316L162.972 59.3119C166.03 57.4926 167.522 54.7013 167.639 52.1473C167.756 49.6011 166.489 47.2442 164.009 46.4952L162.807 46.1319L163.431 47.2222C165.15 50.226 164.726 53.0647 163.435 54.7836C162.786 55.6469 161.923 56.226 160.994 56.4293C160.072 56.631 159.052 56.4713 158.056 55.7982L158.038 55.7861L158.019 55.7756C156.049 54.679 154.884 51.7851 155.199 48.7332C155.508 45.7277 157.247 42.7218 160.889 41.4423C164.947 40.2132 168.469 42.1484 170.286 45.7416C172.109 49.3473 172.195 54.6268 169.212 59.9236C166.218 64.5663 161.405 66.4443 157.05 65.5541C152.709 64.6667 148.712 61.002 147.417 54.3176C146.744 46.1518 149.335 40.6934 157.125 27.6319C163.549 17.238 162.163 9.77466 157.942 6.87162C155.852 5.43384 153.149 5.20427 150.604 6.29899C148.06 7.39358 145.695 9.79757 144.194 13.5941L144.158 13.6854L144.159 13.7835C144.196 17.0038 144.177 21.2236 144.158 25.579C144.15 27.489 144.142 29.4251 144.138 31.3145C144.125 37.4918 144.159 43.1927 144.405 45.7886C144.483 46.7268 144.865 47.4579 145.285 48.0369C143.493 48.0631 141.879 48.0665 140.218 48.07C139.119 48.0724 138 48.0748 136.796 48.0838C136.835 47.9298 136.872 47.7638 136.908 47.5883C137.011 47.0718 137.108 46.4326 137.197 45.6921C137.377 44.2105 137.53 42.2992 137.655 40.1062C137.905 35.7187 138.04 30.1804 138.027 24.6488C138.014 19.1182 137.853 13.5849 137.509 9.20938C137.337 7.02286 137.119 5.11497 136.848 3.63707C136.713 2.89854 136.563 2.25718 136.395 1.73744Z" fill="black" stroke="black"/>
<path d="M131.855 81.9619H172.041" stroke="black"/>
<path d="M131.855 81.9619H172.041" stroke="black" stroke-width="0.881" stroke-miterlimit="10"/>
<path d="M15.7869 105.708V124.044H14.6735L2.32212 108.131V124.044H1V105.708H2.11337L14.4648 121.62V105.708H15.7869Z" fill="black" stroke="black"/>
<path d="M28.7294 122.956C27.3029 122.148 26.1547 121.024 25.3545 119.619C24.5194 118.214 24.1367 116.633 24.1367 114.877C24.1367 113.12 24.5542 111.54 25.3545 110.135C26.1895 108.729 27.3029 107.605 28.7294 106.797C30.1559 105.989 31.7563 105.568 33.5655 105.568C35.34 105.568 36.9404 105.954 38.4017 106.762C39.8282 107.57 40.9764 108.659 41.7766 110.099C42.6116 111.504 42.9944 113.085 42.9944 114.877C42.9944 116.633 42.5769 118.214 41.7766 119.654C40.9416 121.059 39.8282 122.183 38.4017 122.991C36.9752 123.799 35.3748 124.186 33.5655 124.186C31.7563 124.151 30.1559 123.764 28.7294 122.956ZM37.6711 121.902C38.8888 121.2 39.863 120.251 40.5589 119.022C41.2547 117.792 41.6374 116.422 41.6374 114.912C41.6374 113.401 41.2895 112.031 40.5589 110.802C39.863 109.572 38.8888 108.624 37.6711 107.921C36.4533 107.219 35.0616 106.868 33.5655 106.868C32.0347 106.868 30.6777 107.219 29.4252 107.921C28.1727 108.624 27.2333 109.572 26.5026 110.802C25.8068 112.031 25.424 113.401 25.424 114.912C25.424 116.422 25.772 117.792 26.5026 119.022C27.1985 120.251 28.1727 121.2 29.4252 121.902C30.6777 122.605 32.0347 122.956 33.5655 122.956C35.0616 122.921 36.4533 122.57 37.6711 121.902Z" fill="black" stroke="black"/>
<path d="M54.5469 106.937H48.0059V105.708H62.3753V106.937H55.869V124.044H54.5469V106.937Z" fill="black" stroke="black"/>
<path d="M79.7009 118.881H69.1935L66.8972 124.045H65.4707L73.821 105.743H75.1431L83.4933 124.045H82.0668L79.7009 118.881ZM79.2138 117.757L74.4472 107.183L69.7154 117.757H79.2138Z" fill="black" stroke="black"/>
<path d="M105.274 105.708V124.044H104.195L91.8436 108.131V124.044H90.5215V105.708H91.6349L103.951 121.62V105.708H105.274Z" fill="black" stroke="black"/>
<path d="M115.363 105.708H122.531C124.409 105.708 126.079 106.094 127.541 106.902C129.002 107.675 130.15 108.764 130.95 110.169C131.751 111.539 132.168 113.12 132.168 114.876C132.168 116.632 131.751 118.213 130.95 119.583C130.15 120.953 129.002 122.042 127.541 122.85C126.079 123.623 124.409 124.044 122.531 124.044H115.363V105.708ZM122.426 122.815C124.096 122.815 125.592 122.464 126.845 121.796C128.132 121.129 129.106 120.18 129.802 118.986C130.498 117.792 130.846 116.422 130.846 114.841C130.846 113.295 130.498 111.925 129.802 110.696C129.106 109.501 128.132 108.553 126.845 107.885C125.558 107.218 124.096 106.867 122.426 106.867H116.685V122.815H122.426Z" fill="black" stroke="black"/>
<path d="M151.478 118.881H140.971L138.675 124.045H137.248L145.598 105.743H146.92L155.271 124.045H153.844L151.478 118.881ZM150.991 117.757L146.225 107.183L141.493 117.757H150.991Z" fill="black" stroke="black"/>
<path d="M163.271 123.483C162.054 123.026 161.149 122.429 160.453 121.692L161.045 120.708C161.671 121.375 162.541 121.938 163.619 122.359C164.698 122.781 165.846 122.991 167.029 122.991C168.769 122.991 170.056 122.675 170.926 122.008C171.796 121.34 172.248 120.497 172.248 119.408C172.248 118.6 172.004 117.933 171.552 117.441C171.1 116.949 170.508 116.563 169.812 116.317C169.116 116.071 168.177 115.79 167.029 115.509C165.707 115.193 164.628 114.842 163.828 114.526C163.028 114.209 162.332 113.718 161.775 113.085C161.219 112.418 160.94 111.54 160.94 110.451C160.94 109.572 161.184 108.729 161.636 107.992C162.088 107.254 162.819 106.657 163.758 106.235C164.733 105.814 165.916 105.568 167.342 105.568C168.351 105.568 169.325 105.708 170.299 106.025C171.274 106.306 172.109 106.727 172.805 107.219L172.317 108.308C171.587 107.816 170.787 107.43 169.917 107.149C169.047 106.903 168.177 106.762 167.342 106.762C165.672 106.762 164.385 107.113 163.55 107.781C162.68 108.448 162.262 109.327 162.262 110.416C162.262 111.223 162.506 111.891 162.958 112.383C163.41 112.874 164.002 113.261 164.698 113.507C165.394 113.753 166.333 114.034 167.516 114.35C168.838 114.666 169.917 115.017 170.717 115.333C171.517 115.65 172.178 116.106 172.735 116.774C173.292 117.406 173.57 118.284 173.57 119.338C173.57 120.216 173.326 121.024 172.874 121.762C172.387 122.5 171.656 123.062 170.682 123.518C169.708 123.94 168.49 124.186 167.064 124.186C165.742 124.151 164.454 123.94 163.271 123.483Z" fill="black" stroke="black"/>
<path d="M204.85 124.045L200.501 117.897C199.875 117.968 199.284 118.038 198.727 118.038H193.543V124.045H192.221V105.743H198.762C201.058 105.743 202.832 106.305 204.12 107.394C205.407 108.483 206.068 109.994 206.068 111.926C206.068 113.366 205.685 114.595 204.955 115.579C204.224 116.563 203.18 117.265 201.823 117.652L206.347 124.045H204.85ZM198.762 116.879C200.71 116.879 202.171 116.457 203.18 115.579C204.189 114.701 204.711 113.506 204.711 111.891C204.711 110.31 204.189 109.08 203.18 108.202C202.171 107.324 200.675 106.902 198.762 106.902H193.578V116.844H198.762V116.879Z" fill="black" stroke="black"/>
<path d="M227.153 122.815V124.044H214.662V105.708H226.77V106.937H215.984V114.138H225.657V115.333H215.984V122.815H227.153Z" fill="black" stroke="black"/>
<path d="M246.949 118.881H236.442L234.145 124.045H232.719L241.069 105.743H242.391L250.741 124.045H249.315L246.949 118.881ZM246.462 117.757L241.695 107.183L236.963 117.757H246.462Z" fill="black" stroke="black"/>
<path d="M257.77 105.708H259.092V122.815H269.529V124.044H257.77V105.708Z" fill="black" stroke="black"/>
<path d="M278.471 106.937H271.93V105.708H286.334V106.937H279.793V124.044H278.471V106.937Z" fill="black" stroke="black"/>
<path d="M298.861 117.721V124.044H297.539V117.721L290.232 105.708H291.694L298.235 116.492L304.811 105.708H306.167L298.861 117.721Z" fill="black" stroke="black"/>
</svg>
