<?xml version="1.0" encoding="UTF-8"?>
<svg id="Layer_1" data-name="Layer 1" xmlns="http://www.w3.org/2000/svg" viewBox="0 0 951.22 743.04">
  <defs>
    <style>
      .cls-1 {
        fill: #edf900;
        opacity: .5;
      }
    </style>
  </defs>
  <path class="cls-1" d="M437.74,263.72h213.65v6.65h90.59v-4.89l52.24,1.57,14.09,145.04,7.04,203.48v1.42h-36.78l.05,5.09s-1.37,6.16-5.58,6.21-61.24,0-61.24,0c0,0-4.79-2.01-4.79-4.21s.05-7.63.05-7.63l-55.32.1v5.62s-.44,6.26-5.77,6.14-60.65-.22-60.65-.22c0,0-5.33-1.22-5.38-5.18s-.05-6.55-.05-6.55l-54.98.29-.15,5.82s.59,5.62-5.04,5.62-61.48,0-61.48,0c0,0-4.4-1.81-4.7-4.79s-.15-6.75-.15-6.75h-54.83v6.02s.2,5.48-4.94,5.43-61.34-.15-61.34-.15c0,0-4.94-.73-5.04-4.7l-.1-3.96v-2.4l-59.48-.2v-39.47l170.74.39-.67-313.79Z"/>
</svg>