<?xml version="1.0" encoding="UTF-8"?>
<svg id="Layer_1" data-name="Layer 1" xmlns="http://www.w3.org/2000/svg" viewBox="0 0 1004.04 771.12">
  <defs>
    <style>
      .cls-1 {
        fill: #fff;
      }

      .cls-2 {
        fill: #f3ff00;
        opacity: .5;
      }
    </style>
  </defs>
  <path class="cls-2" d="M277.87,276h179.22v-3.91h220.43v7.04h93.39v-5.48l54.78.78,12.52,145.3,8.61,215.74h-38.09s2.09,10.96-7.83,11.74-60.26,0-60.26,0c0,0-6.52-.26-6.78-12.26s-1.04-62.09-1.04-62.09l-275.22-.78-.78-13.83-25.04-.26v13.57h-14.61v64.7s2.09,12.96-6.26,11.3-61.3.15-61.3.15c0,0-8.09-2.58-6-11.71l-62.35.26v-108.78s-3.39,0-3.39,0v-251.48Z"/>
  <path class="cls-1" d="M425.26,632.48v-52.17h5.74v4.7h25.83v-4.7h269.22v52.17h-300.78Z"/>
</svg>