<?xml version="1.0" encoding="UTF-8"?>
<svg id="Layer_1" data-name="Layer 1" xmlns="http://www.w3.org/2000/svg" viewBox="0 0 996.74 765.45">
  <defs>
    <style>
      .cls-1 {
        fill: #f3ff00;
        opacity: .5;
      }
    </style>
  </defs>
  <path class="cls-1" d="M220.11,261.63l171.2.2v-4.11h98.8l.2,182.15,262.37.39,8.02,162.98h-37.17s3.91,10.76-6.26,10.76h-57.52s-7.24-.59-6.85-10.96.39-60.46.39-60.46l-262.17.39-.2-13.5h-24.46v12.72h-14.48v63.78s1.76,8.41-5.87,8.02-56.35,0-56.35,0c0,0-7.24,1.37-8.41-9.98h-56.93v-103.11h-4.3v-239.28Z"/>
  <polygon class="cls-1" points="493.83 259.74 597.91 259.74 597.91 265.61 688.7 265.61 688.7 180.3 736.04 180.3 737.44 196.57 735.63 196.69 740.77 254.34 734.12 254.34 745.24 384.84 649.76 384.84 649.5 334.76 560.28 334.49 560.28 435.88 493.83 435.88 493.83 259.74"/>
</svg>