<?xml version="1.0" encoding="UTF-8"?>
<svg id="Layer_1" data-name="Layer 1" xmlns="http://www.w3.org/2000/svg" viewBox="0 0 929.72 760.19">
  <defs>
    <style>
      .cls-1 {
        fill: #f3ff00;
        opacity: .5;
      }
    </style>
  </defs>
  <path class="cls-1" d="M488.52,268.74h126.26v6.78h92.87v-6.78h52.7l13.04,147.65,9.91,209.74-38.15,1.43.49,6.46s-1.27,4.3-5.38,4.89-64.08.59-64.08.59c0,0-4.01-3.03-4.21-5.67s-.39-6.65-.39-6.65l-56.05.2-.1,4.99s.1,5.97-4.7,6.26-62.51.1-62.51.1c0,0-4.89-.29-5.28-4.01s-.39-6.95-.39-6.95l-50.28-.1-3.75-358.92Z"/>
  <path class="cls-1" d="M399.11,268.74h88.04l.2,362.05s1.48,8.54-5.36,8.71-61.92,0-61.92,0c0,0-5.58-1.55-5.67-4.78l-.1-3.23-.05-3.42-55.47-.2v5.58s-.98,5.92-5.14,5.82-62.85-.05-62.85-.05c0,0-5.33-2.25-5.43-6.26s0-4.94,0-4.94l-60.51-.1v-40.45l173.85-.55.41-318.18Z"/>
</svg>