<?xml version="1.0" encoding="UTF-8"?>
<svg id="Layer_1" data-name="Layer 1" xmlns="http://www.w3.org/2000/svg" viewBox="0 0 910.44 774.11">
  <defs>
    <style>
      .cls-1 {
        fill: #f3ff00;
        opacity: .5;
      }
    </style>
  </defs>
  <path class="cls-1" d="M382.22,273.24l220.7.2v7.24l94.11-1.17v-4.11l54.59.39,12.52,140.09,9.59,223.43h-38.35l-.59,5.28s.98,5.09-6.07,5.48-62.41,0-62.41,0c0,0-6.65-1.37-6.07-5.48l.59-4.11-57.33-.98s0,10.33-5.87,10.74-3.72.8-5.87.41-56.74.16-56.74.16c0,0-6.26,3.36-6.26-11.12l-52.24-.59.2-235.57-94.5.59v-130.89Z"/>
</svg>