<?xml version="1.0" encoding="UTF-8"?>
<svg xmlns="http://www.w3.org/2000/svg" version="1.1" xmlns:xlink="http://www.w3.org/1999/xlink" viewBox="0 0 1672 941">
  <!-- Generator: Adobe Illustrator 29.8.3, SVG Export Plug-In . SVG Version: 2.1.1 Build 3)  -->
  <defs>
    <style>
      .st0 {
        fill: #ceff00;
      }
    </style>
  </defs>
  <g id="Layer_1">
    <image width="1672" height="941" xlink:href="Notan_space_.png"/>
  </g>
  <g id="Ground_x5F_floor">
    <polyline class="st0" points="676 841.1 676.7 879.8 895.2 896.5 1009 896.5 1012.5 844.7 893 829.6 676 841.1"/>
  </g>
  <g id="terrace">
    <polyline class="st0" points="676.7 206.3 676 194.3 893.1 33 939 123.3 1017.8 302.8 1017.8 324.2 892.1 58.6 676.7 206.3"/>
  </g>
  <g id="floor_x5F_15">
    <polyline class="st0" points="676.7 243.8 892.1 101.9 1012.5 343.8 1012.5 315 892.1 58.6 676.7 206.3 676.7 243.8"/>
  </g>
  <g id="floor_x5F_14">
    <polyline class="st0" points="676.7 281.4 891.6 147.3 1012.5 366.7 1012.5 343.8 892.1 101.9 676.7 243.8 676.7 281.4"/>
  </g>
  <g id="floor_x5F_13">
    <polyline class="st0" points="676.7 317.4 892.6 194.3 1012.5 401.9 1012.5 366.7 891.6 147.3 676.7 281.4 676.7 315 676.7 317.4"/>
  </g>
  <g id="floor_x5F_12">
    <polyline class="st0" points="676.7 366.7 891.6 249.6 1012.5 435.8 1012.5 401.9 892.6 194.3 676.7 317.4 676.7 366.7 676.7 366.7"/>
  </g>
  <g id="floor_x5F_11">
    <polyline class="st0" points="676.7 412 891.6 307 1012.5 483.8 1012.5 435.8 891.6 249.6 676.7 366.7 676.7 412"/>
  </g>
  <g id="floor_x5F_9">
    <polyline class="st0" points="676 503.4 893.7 425.7 1012.5 552 1012.5 517 892.6 359.9 676.7 460.1 676 503.4 676 503.4"/>
  </g>
  <g id="floor_x5F_10">
    <polygon class="st0" points="676.7 460.1 892.6 359.9 1012.5 517 1012.5 483.8 891.6 307 676.7 412 676.7 460.1"/>
  </g>
  <g id="floor_x5F_7">
    <polygon class="st0" points="675.5 590.8 889.9 519.2 1012.5 633.4 1012.5 604.7 889 470.5 675.5 546.3 675.5 590.8"/>
  </g>
  <g id="floor_x5F_6">
    <polyline class="st0" points="675.3 630.8 891.4 575 1012.5 670 1012.5 633.4 889.9 519.2 676 590.7 676 628.7"/>
  </g>
  <g id="floor_x5F_5">
    <polyline class="st0" points="676 675.7 892.5 628.7 1012.5 704 1012.5 670 891.4 575 675.3 630.8 676 675.7"/>
  </g>
  <g id="floor_x5F_4">
    <polyline class="st0" points="1012.5 735.7 1012.5 704 892.5 628.7 676 675.7 676 718 893 680.9 1012.5 735.7"/>
  </g>
  <g id="floor_x5F_3">
    <polyline class="st0" points="676 758.1 889.9 733.1 1012.5 782.7 1012.5 735.7 893 680.9 676 718 676 758.1"/>
  </g>
  <g id="floor_x5F_2">
    <polyline class="st0" points="1012.5 816.6 1012.5 782.7 889.9 733.1 676 758.1 676 801.3 892.5 782.7 1012.5 816.6 1012.5 816.6"/>
  </g>
  <g id="floor_x5F_1">
    <polygon class="st0" points="1012.5 844.7 893 829.6 676 841.1 676 801.3 892.5 782.7 1012.5 816.6 1012.5 844.7"/>
  </g>
  <g id="floor_x5F_8">
    <polygon class="st0" points="675.5 546.3 889 470.5 1012.5 604.7 1012.5 552 893.7 425.7 676 503.4 675.5 546.3"/>
  </g>
</svg>