<?xml version="1.0" encoding="UTF-8"?>
<svg id="Layer_1" data-name="Layer 1" xmlns="http://www.w3.org/2000/svg" viewBox="0 0 2000 2000">
  <g>
    <path d="M613.03,865.11c0-84.93,61.58-145.97,148.64-145.97s148.63,61.04,148.63,145.97-62.11,145.98-148.63,145.98-148.64-61.05-148.64-145.98ZM761.67,955.88c51.47,0,88.63-37.69,88.63-90.77s-37.16-90.77-88.63-90.77-88.66,37.69-88.66,90.77,37.16,90.77,88.66,90.77Z"/>
    <path d="M975.09,915.54v-141.73h-54.68v-49.36h54.68v-64.23l58.92-6.37v70.6h73.25v49.36h-73.25v134.83c0,32.91,15.38,46.18,50.42,46.18,7.95,0,16.98-.53,26.54-2.12v53.08c-12.74,1.59-26.02,2.65-36.64,2.65-65.28,0-99.25-29.19-99.25-92.89Z"/>
    <path d="M1133.29,865.11c0-85.46,58.92-145.97,141.2-145.97,39.28,0,73.25,13.8,97.68,37.69l1.05-32.38h55.73v281.33h-55.73l-1.05-32.91c-24.43,24.42-58.4,38.22-97.68,38.22-83.35,0-141.2-61.58-141.2-145.98ZM1281.92,955.88c52.02,0,89.18-37.16,89.18-90.77s-37.16-90.77-89.18-90.77-88.63,37.16-88.63,90.77,37.14,90.77,88.63,90.77Z"/>
    <path d="M1497.46,724.45h57.87l.52,34.5c23.35-24.95,54.68-39.28,95.01-39.28,73.25,0,114.13,46.18,114.13,127.4v158.71h-58.92v-154.47c0-51.49-23.35-78.03-68.47-78.03-49.37,0-81.23,30.79-81.23,78.03v154.47h-58.92v-281.33Z"/>
  </g>
  <path d="M328.2,736.75l-5.9,37.65c56.15-47.69,118.8-84.45,183.66-25.94,59.73,53.88,53.03,140.5,21.96,208.03-36.49,79.3-182.87,209.25-109.14,298.11,57.52,69.32,157.9-23.86,111.87-78.92-2.31-2.76-17.57-16.13-16.47-7.11,2.61,21.35,11.09,28.09,3.02,52.59-15.53,47.14-72.57,42.74-91.29.42-33.16-74.94,47.41-149.89,119.58-105.46,61.14,37.64,51.84,119.13,18.13,172.64-52.3,83.05-169.66,66-208.34-20.1-55.37-123.26,70.27-245.86,116.14-352.19,19.34-44.84,19.9-98.08-25.75-126.57-52.47-32.75-99.32,17.47-121.66,61.54-2.69,62.55.66,125.44,1.92,187.67.66,32.87-5.64,93.88,5.1,122,2.51,6.59,8.49,11.05,8.92,18.15h-105.92c12.71-28.96,12.27-59.58,11.87-90.72-1.25-97.29.37-197.07-4.78-294.14-1.04-19.59,0-38.08-4.73-57.64h91.79Z"/>
  <g>
    <path d="M710.79,1070.3h33.52v176.66c0,15.6-2.45,28.34-7.33,38.23-4.89,9.9-11,17.69-18.33,23.39-7.34,5.71-15.18,9.66-23.57,11.87-8.38,2.21-16.06,3.32-23.04,3.32-17.47,0-32.18-4.48-44.16-13.44-11.99-8.96-19.62-22.52-22.87-40.68l32.81-7.33c1.87,9.31,5.7,16.64,11.54,21.99,5.81,5.36,13.37,8.03,22.69,8.03,8.38,0,15.06-1.62,20.07-4.88s8.91-7.51,11.71-12.75c2.79-5.24,4.65-11.22,5.58-17.98.93-6.75,1.39-13.62,1.39-20.6v-165.84Z"/>
    <path d="M808.55,1070.3h159.55v31.42h-126.04v73.67h117.32v31.42h-117.32v79.26h132.33v31.42h-165.84v-247.19Z"/>
    <path d="M997.07,1070.3h34.91l54.64,197.61h.7l58.14-197.61h38.41l58.14,197.61h.7l54.64-197.61h34.91l-71.92,247.19h-35.61l-59.71-201.8h-.7l-59.36,201.8h-35.61l-72.27-247.19Z"/>
    <path d="M1371.01,1070.3h159.55v31.42h-126.04v73.67h117.32v31.42h-117.32v79.26h132.33v31.42h-165.84v-247.19Z"/>
    <path d="M1590.97,1070.3h33.51v215.77h113.47v31.42h-146.99v-247.19Z"/>
  </g>
</svg>