<?xml version="1.0" encoding="UTF-8"?>
<svg id="Layer_1" data-name="Layer 1" xmlns="http://www.w3.org/2000/svg" viewBox="0 0 2000 2000">
  <g>
    <path d="M587.97,875.75c0-77.71,56.34-133.57,136-133.57s136,55.85,136,133.57-56.83,133.58-136,133.58-136-55.86-136-133.58ZM723.97,958.81c47.11,0,81.11-34.48,81.11-83.06s-34-83.05-81.11-83.05-81.12,34.48-81.12,83.05,34,83.06,81.12,83.06Z"/>
    <path d="M919.25,921.9v-129.69h-50.03v-45.17h50.03v-58.77l53.91-5.83v64.6h67.02v45.17h-67.02v123.37c0,30.12,14.08,42.26,46.14,42.26,7.29,0,15.54-.49,24.29-1.95v48.58c-11.66,1.46-23.8,2.43-33.51,2.43-59.74,0-90.83-26.72-90.83-85Z"/>
    <path d="M1064.01,875.75c0-78.19,53.91-133.57,129.2-133.57,35.94,0,67.03,12.63,89.37,34.48l.97-29.63h51v257.43h-51l-.97-30.12c-22.34,22.34-53.42,34.97-89.37,34.97-76.26,0-129.2-56.34-129.2-133.58ZM1200.01,958.81c47.6,0,81.6-34,81.6-83.06s-34-83.05-81.6-83.05-81.12,33.99-81.12,83.05,34,83.06,81.12,83.06Z"/>
    <path d="M1397.24,747.04h52.94l.48,31.57c21.37-22.83,50.03-35.94,86.94-35.94,67.03,0,104.43,42.25,104.43,116.56v145.23h-53.91v-141.34c0-47.12-21.37-71.4-62.66-71.4-45.17,0-74.31,28.17-74.31,71.4v141.34h-53.91v-257.43Z"/>
  </g>
  <path d="M327.34,758.31l-5.4,34.45c51.38-43.63,108.7-77.27,168.05-23.74,54.65,49.3,48.53,128.56,20.1,190.35-33.39,72.56-167.33,191.47-99.86,272.78,52.63,63.43,144.48-21.84,102.37-72.21-2.12-2.53-16.08-14.76-15.07-6.5,2.39,19.54,10.14,25.7,2.76,48.12-14.21,43.14-66.4,39.11-83.53.39-30.34-68.57,43.38-137.15,109.42-96.5,55.94,34.44,47.43,109,16.59,157.97-47.86,75.99-155.24,60.39-190.63-18.39-50.66-112.79,64.3-224.96,106.27-322.26,17.7-41.03,18.21-89.74-23.56-115.81-48.01-29.97-90.88,15.99-111.32,56.31-2.46,57.23.61,114.78,1.75,171.72.61,30.08-5.16,85.9,4.67,111.63,2.3,6.03,7.77,10.11,8.16,16.6h-96.92c11.63-26.5,11.22-54.52,10.86-83.01-1.14-89.02.34-180.32-4.37-269.14-.95-17.93,0-34.84-4.33-52.74h83.99Z"/>
  <g>
    <path d="M613.53,1242.41c5.54,8.31,12.62,14.43,21.24,18.37,8.63,3.95,17.52,5.91,26.68,5.91,5.11,0,10.33-.79,15.65-2.39,5.32-1.6,10.17-4,14.54-7.19,4.36-3.2,7.93-7.14,10.7-11.82,2.77-4.68,4.15-10.12,4.15-16.29,0-8.73-2.77-15.38-8.31-19.97-5.54-4.58-12.41-8.41-20.61-11.49-8.2-3.09-17.15-6.08-26.83-8.95-9.7-2.88-18.64-6.87-26.84-11.98-8.2-5.11-15.07-11.97-20.61-20.6-5.54-8.63-8.31-20.29-8.31-34.98,0-6.6,1.44-13.62,4.31-21.09,2.87-7.45,7.4-14.26,13.58-20.44,6.17-6.18,14.1-11.34,23.8-15.49,9.69-4.16,21.35-6.24,34.98-6.24,12.35,0,24.17,1.71,35.46,5.12,11.28,3.41,21.19,10.34,29.71,20.76l-24.92,22.69c-3.83-5.97-9.27-10.75-16.29-14.38-7.03-3.62-15.02-5.43-23.96-5.43s-15.61,1.12-21.24,3.36c-5.65,2.23-10.18,5.11-13.58,8.63-3.41,3.51-5.81,7.3-7.19,11.33-1.39,4.05-2.08,7.78-2.08,11.18,0,9.59,2.76,16.93,8.31,22.04,5.54,5.12,12.4,9.27,20.61,12.46,8.2,3.19,17.14,6.07,26.84,8.63,9.69,2.55,18.63,6.12,26.83,10.69,8.2,4.59,15.07,10.76,20.61,18.53,5.54,7.78,8.31,18.48,8.31,32.1,0,10.86-2.08,20.66-6.23,29.4-4.15,8.74-9.75,16.08-16.77,22.04-7.03,5.97-15.33,10.54-24.92,13.74-9.59,3.19-19.81,4.79-30.67,4.79-14.48,0-28.22-2.56-41.21-7.67-12.99-5.11-23.32-12.98-30.99-23.64l25.24-21.73Z"/>
    <path d="M790.51,1063.51h79.55c14.48,0,26.41,1.97,35.78,5.91,9.37,3.95,16.77,8.95,22.2,15.01,5.43,6.08,9.21,12.89,11.34,20.45,2.12,7.56,3.19,14.85,3.19,21.88s-1.07,14.32-3.19,21.89c-2.13,7.56-5.91,14.37-11.34,20.44-5.43,6.07-12.83,11.07-22.2,15.01-9.38,3.95-21.3,5.92-35.78,5.92h-48.88v99.67h-30.67v-226.18ZM821.18,1163.19h40.25c5.96,0,11.87-.48,17.73-1.44,5.86-.96,11.07-2.72,15.65-5.27,4.58-2.56,8.25-6.24,11.02-11.02,2.76-4.79,4.15-11.02,4.15-18.69s-1.39-13.89-4.15-18.69c-2.77-4.79-6.45-8.47-11.02-11.01-4.58-2.56-9.8-4.32-15.65-5.28-5.86-.96-11.77-1.43-17.73-1.43h-40.25v72.84Z"/>
    <path d="M1033.31,1063.51h27.8l96.79,226.18h-35.78l-22.68-55.91h-107.66l-22.36,55.91h-35.78l99.67-226.18ZM1088.26,1206.96l-42.17-103.83h-.64l-42.81,103.83h85.62Z"/>
    <path d="M1350.86,1112.39c-6.39-8.31-14.48-14.69-24.28-19.17-9.8-4.47-19.92-6.71-30.35-6.71-12.78,0-24.34,2.4-34.66,7.19-10.34,4.8-19.17,11.34-26.52,19.65-7.35,8.31-13.05,18.05-17.09,29.23-4.05,11.18-6.07,23.17-6.07,35.94,0,11.93,1.91,23.22,5.75,33.86,3.83,10.65,9.37,20.02,16.61,28.12,7.24,8.1,16.08,14.48,26.52,19.16,10.43,4.69,22.25,7.03,35.46,7.03s24.38-2.66,34.18-7.99c9.8-5.32,18.1-12.77,24.92-22.36l25.88,19.49c-1.7,2.35-4.69,5.7-8.95,10.07-4.26,4.37-9.9,8.74-16.93,13.09-7.03,4.37-15.49,8.21-25.4,11.5-9.9,3.3-21.35,4.95-34.34,4.95-17.89,0-34.02-3.41-48.4-10.23-14.37-6.81-26.62-15.75-36.74-26.84-10.12-11.06-17.84-23.58-23.16-37.53-5.33-13.94-7.99-28.06-7.99-42.33,0-17.46,2.88-33.59,8.63-48.4,5.75-14.8,13.79-27.58,24.12-38.34,10.33-10.74,22.73-19.11,37.22-25.08,14.48-5.96,30.45-8.95,47.92-8.95,14.91,0,29.55,2.88,43.93,8.63,14.37,5.76,26.14,14.59,35.3,26.52l-25.56,19.49Z"/>
    <path d="M1424.33,1063.51h146v28.75h-115.33v67.41h107.34v28.76h-107.34v72.52h121.08v28.76h-151.75v-226.18Z"/>
    <path d="M1632.3,1242.41c5.54,8.31,12.62,14.43,21.24,18.37,8.63,3.95,17.52,5.91,26.68,5.91,5.11,0,10.33-.79,15.65-2.39,5.32-1.6,10.17-4,14.54-7.19,4.36-3.2,7.93-7.14,10.7-11.82,2.77-4.68,4.15-10.12,4.15-16.29,0-8.73-2.77-15.38-8.31-19.97-5.54-4.58-12.41-8.41-20.61-11.49-8.2-3.09-17.15-6.08-26.83-8.95-9.7-2.88-18.64-6.87-26.84-11.98-8.2-5.11-15.07-11.97-20.61-20.6-5.54-8.63-8.31-20.29-8.31-34.98,0-6.6,1.44-13.62,4.31-21.09,2.87-7.45,7.4-14.26,13.58-20.44,6.17-6.18,14.1-11.34,23.8-15.49,9.69-4.16,21.35-6.24,34.98-6.24,12.35,0,24.17,1.71,35.46,5.12,11.28,3.41,21.19,10.34,29.71,20.76l-24.92,22.69c-3.83-5.97-9.27-10.75-16.29-14.38-7.03-3.62-15.02-5.43-23.96-5.43s-15.61,1.12-21.24,3.36c-5.65,2.23-10.18,5.11-13.58,8.63-3.41,3.51-5.81,7.3-7.19,11.33-1.39,4.05-2.08,7.78-2.08,11.18,0,9.59,2.76,16.93,8.31,22.04,5.54,5.12,12.4,9.27,20.61,12.46,8.2,3.19,17.14,6.07,26.84,8.63,9.69,2.55,18.63,6.12,26.83,10.69,8.2,4.59,15.07,10.76,20.61,18.53,5.54,7.78,8.31,18.48,8.31,32.1,0,10.86-2.08,20.66-6.23,29.4-4.15,8.74-9.75,16.08-16.77,22.04-7.03,5.97-15.33,10.54-24.92,13.74-9.59,3.19-19.81,4.79-30.67,4.79-14.48,0-28.22-2.56-41.21-7.67-12.99-5.11-23.32-12.98-30.99-23.64l25.24-21.73Z"/>
  </g>
</svg>