<?xml version="1.0" encoding="UTF-8"?>
<svg id="Layer_1" data-name="Layer 1" xmlns="http://www.w3.org/2000/svg" viewBox="0 0 2000 2000">
  <g>
    <path d="M656.94,991.28c-23.56-13.16-41.99-31.33-55.35-54.51-13.35-23.17-20.02-49.41-20.02-78.71s6.67-55.53,20.02-78.71c13.36-23.17,31.8-41.35,55.35-54.52,23.54-13.16,50.34-19.74,80.38-19.74s56.36,6.59,80.1,19.74c23.73,13.17,42.27,31.34,55.63,54.52,13.35,23.18,20.02,49.42,20.02,78.71s-6.67,55.54-20.02,78.71c-13.36,23.18-31.9,41.35-55.63,54.51-23.74,13.17-50.44,19.75-80.1,19.75s-56.84-6.58-80.38-19.75ZM656.38,907.01c7.98,14.46,19,25.78,33.1,33.93,14.09,8.16,30.03,12.24,47.84,12.24s33.73-4.07,47.83-12.24c14.09-8.16,25.12-19.47,33.1-33.93,7.97-14.46,11.96-30.78,11.96-48.95s-3.99-34.49-11.96-48.95c-7.98-14.46-19.01-25.77-33.1-33.93-14.1-8.16-30.03-12.24-47.83-12.24s-33.75,4.08-47.84,12.24c-14.1,8.16-25.12,19.47-33.1,33.93-7.98,14.46-11.96,30.78-11.96,48.95s3.98,34.49,11.96,48.95Z"/>
    <path d="M987.64,984.32c-17.44-15.94-26.15-40.41-26.15-73.42v-148.52h-57.29v-51.73h57.29v-67.31l61.75-6.67v73.98h76.77v51.73h-76.77v141.29c0,17.06,4.18,29.39,12.51,36.99,8.34,7.61,21.78,11.41,40.33,11.41,9.64,0,18.91-.74,27.81-2.23v55.63c-14.83,1.85-27.63,2.78-38.38,2.78-34.5,0-60.46-7.97-77.88-23.92Z"/>
    <path d="M1198.74,991.28c-22.45-13.16-39.97-31.33-52.57-54.51-12.61-23.17-18.91-49.41-18.91-78.71s6.3-55.62,18.91-78.99c12.6-23.36,30.13-41.53,52.57-54.51,22.43-12.98,47.92-19.47,76.48-19.47,20.4,0,39.3,3.43,56.74,10.29,17.43,6.87,32.63,16.6,45.61,29.2l1.12-33.93h58.41v294.81h-58.41l-1.12-34.49c-12.98,12.99-28.18,22.9-45.61,29.76s-36.34,10.29-56.74,10.29c-28.56,0-54.05-6.58-76.48-19.75ZM1202.07,907.56c7.98,14.46,19,25.68,33.1,33.66,14.09,7.98,30.03,11.96,47.84,11.96s34.29-3.98,48.39-11.96c14.09-7.97,25.11-19.19,33.09-33.66,7.98-14.46,11.96-30.96,11.96-49.51s-3.98-35.04-11.96-49.5c-7.98-14.46-19-25.68-33.09-33.66-14.1-7.97-30.23-11.96-48.39-11.96s-33.75,3.99-47.84,11.96c-14.1,7.98-25.12,19.19-33.1,33.66s-11.96,30.97-11.96,49.5,3.98,35.05,11.96,49.51Z"/>
    <path d="M1508.85,710.65h60.63l.55,36.16c25.59-27.44,58.77-41.16,99.58-41.16,38.18,0,67.67,11.59,88.44,34.77,20.76,23.18,31.16,56.1,31.16,98.74v166.32h-61.75v-161.87c0-27.06-6.03-47.46-18.07-61.19-12.06-13.71-29.95-20.58-53.68-20.58-25.97,0-46.64,7.42-62.02,22.25-15.39,14.84-23.09,34.68-23.09,59.52v161.87h-61.74v-294.81Z"/>
  </g>
  <path d="M283.1,723.58l-6.18,39.45c58.83-49.97,124.48-88.49,192.44-27.18,62.58,56.45,55.57,147.22,23.01,217.97-38.24,83.09-191.62,219.25-114.36,312.36,60.27,72.63,165.45-25.01,117.22-82.69-2.42-2.9-18.41-16.9-17.26-7.45,2.74,22.37,11.62,29.43,3.16,55.1-16.27,49.4-76.04,44.78-95.66.44-34.75-78.52,49.68-157.06,125.3-110.5,64.06,39.44,54.32,124.82,19,180.9-54.8,87.02-177.77,69.16-218.29-21.06-58.01-129.15,73.63-257.61,121.69-369.02,20.27-46.99,20.85-102.76-26.98-132.62-54.98-34.32-104.06,18.31-127.48,64.48-2.82,65.54.7,131.44,2.01,196.64.69,34.45-5.9,98.36,5.35,127.83,2.63,6.9,8.9,11.58,9.35,19.01h-110.98c13.31-30.34,12.85-62.43,12.43-95.05-1.31-101.94.39-206.49-5.01-308.2-1.09-20.53,0-39.9-4.96-60.4h96.18Z"/>
  <g>
    <path d="M620.34,1079.59h167.22v32.93h-132.1v77.21h122.95v32.93h-122.95v83.06h138.68v32.93h-173.8v-259.06Z"/>
    <path d="M1071.45,1209.12c0,74.28-58.18,129.53-139.78,129.53h-86.71v-259.06h92.21c93.31,0,134.28,65.87,134.28,129.53ZM1034.14,1209.12c0-49.4-31.11-96.6-99.53-96.6h-54.52v193.2h46.1c49.03,0,107.94-26.71,107.94-96.6Z"/>
    <path d="M1344.36,1106.67l-24.88,26.71c-21.22-20.5-46.1-27.45-71.72-27.45-57.08,0-97.7,43.91-97.7,103.18s41.35,103.18,100.63,103.18c24.52,0,47.57-4.38,63.66-13.54v-72.07h-57.45v-32.94h92.57v127.7c-24.52,15.01-64.76,23.78-98.06,23.78-83.43,0-138.68-58.18-138.68-136.11s55.98-136.11,135.38-136.11c42.81,0,74.28,10.61,96.24,33.66Z"/>
    <path d="M1420.4,1079.59h167.22v32.93h-132.1v77.21h122.95v32.93h-122.95v83.06h138.68v32.93h-173.8v-259.06Z"/>
  </g>
</svg>