<?xml version="1.0" encoding="UTF-8"?>
<svg id="Layer_1" data-name="Layer 1" xmlns="http://www.w3.org/2000/svg" viewBox="0 0 2000 2000">
  <g>
    <path d="M609.53,913.99c0-85.81,62.21-147.49,150.16-147.49s150.16,61.68,150.16,147.49-62.74,147.47-150.16,147.47-150.16-61.67-150.16-147.47ZM759.69,1005.69c52.02,0,89.56-38.07,89.56-91.7s-37.53-91.71-89.56-91.71-89.56,38.07-89.56,91.71,37.53,91.7,89.56,91.7Z"/>
    <path d="M975.31,964.94v-143.18h-55.25v-49.88h55.25v-64.89l59.52-6.43v71.33h74.01v49.88h-74.01v136.21c0,33.25,15.56,46.66,50.95,46.66,8.05,0,17.16-.54,26.82-2.14v53.62c-12.88,1.61-26.29,2.68-37,2.68-65.96,0-100.28-29.5-100.28-93.85Z"/>
    <path d="M1135.13,913.99c0-86.35,59.53-147.49,142.65-147.49,39.69,0,74.01,13.95,98.67,38.09l1.08-32.72h56.31v284.23h-56.31l-1.08-33.25c-24.67,24.67-58.99,38.62-98.67,38.62-84.19,0-142.65-62.21-142.65-147.47ZM1285.3,1005.69c52.55,0,90.09-37.53,90.09-91.7s-37.53-91.71-90.09-91.71-89.57,37.54-89.57,91.71,37.54,91.7,89.57,91.7Z"/>
    <path d="M1503.06,771.87h58.46l.54,34.86c23.6-25.21,55.24-39.69,95.99-39.69,74.01,0,115.3,46.66,115.3,128.7v160.35h-59.53v-156.06c0-52.01-23.6-78.83-69.18-78.83-49.87,0-82.05,31.1-82.05,78.83v156.06h-59.53v-284.23Z"/>
  </g>
  <path d="M321.76,784.32l-5.96,38.03c56.73-48.18,120.02-85.32,185.55-26.21,60.34,54.43,53.58,141.95,22.19,210.17-36.87,80.12-184.76,211.4-110.26,301.18,58.12,70.03,159.53-24.11,113.02-79.73-2.34-2.79-17.75-16.3-16.64-7.18,2.64,21.57,11.2,28.38,3.05,53.13-15.69,47.63-73.31,43.18-92.23.43-33.5-75.71,47.9-151.43,120.81-106.54,61.77,38.03,52.37,120.35,18.32,174.42-52.84,83.91-171.41,66.68-210.48-20.31-55.94-124.53,70.99-248.39,117.34-355.81,19.54-45.3,20.1-99.09-26.01-127.87-53.01-33.09-100.34,17.65-122.92,62.17-2.72,63.19.67,126.73,1.94,189.6.67,33.21-5.69,94.84,5.16,123.25,2.54,6.65,8.58,11.16,9.01,18.33h-107.01c12.84-29.25,12.39-60.2,11.99-91.65-1.26-98.29.38-199.09-4.83-297.17-1.05-19.79,0-38.47-4.78-58.23h92.74Z"/>
  <g>
    <path d="M612.7,1127.64h39.16l73.37,203.17h.71l76.19-203.17h37.04l-98.41,249.73h-31.75l-96.3-249.73Z"/>
    <path d="M875.84,1127.64h33.86v249.73h-33.86v-249.73Z"/>
    <path d="M980.6,1127.64h161.2v31.75h-127.33v74.43h118.52v31.74h-118.52v80.07h133.68v31.75h-167.55v-249.73Z"/>
    <path d="M1171.08,1127.64h35.27l55.19,199.64h.71l58.74-199.64h38.79l58.72,199.64h.71l55.21-199.64h35.27l-72.66,249.73h-35.98l-60.32-203.88h-.7l-59.97,203.88h-35.98l-73.01-249.73Z"/>
    <path d="M1556.25,1325.17c6.11,9.17,13.94,15.92,23.46,20.27,9.52,4.36,19.34,6.53,29.46,6.53,5.64,0,11.4-.88,17.28-2.65,5.87-1.77,11.22-4.4,16.05-7.93s8.76-7.88,11.82-13.06c3.06-5.16,4.58-11.16,4.58-17.99,0-9.63-3.06-16.98-9.17-22.04-6.11-5.05-13.7-9.29-22.75-12.7-9.06-3.41-18.94-6.7-29.63-9.88-10.7-3.18-20.58-7.58-29.63-13.23-9.05-5.64-16.63-13.22-22.75-22.75-6.12-9.52-9.17-22.4-9.17-38.63,0-7.28,1.59-15.04,4.76-23.27,3.18-8.23,8.17-15.76,15-22.58,6.81-6.82,15.57-12.53,26.28-17.11,10.69-4.59,23.57-6.88,38.63-6.88,13.63,0,26.69,1.88,39.14,5.64,12.46,3.76,23.4,11.41,32.81,22.93l-27.51,25.04c-4.24-6.58-10.23-11.87-17.99-15.87-7.76-4-16.59-6-26.45-6s-17.24,1.24-23.46,3.71c-6.24,2.47-11.23,5.64-14.99,9.52-3.76,3.87-6.41,8.06-7.93,12.51-1.53,4.47-2.3,8.6-2.3,12.35,0,10.58,3.05,18.7,9.17,24.33,6.11,5.65,13.7,10.23,22.75,13.76,9.05,3.53,18.93,6.7,29.63,9.52,10.69,2.83,20.57,6.77,29.63,11.82,9.05,5.05,16.63,11.87,22.75,20.45,6.11,8.6,9.18,20.41,9.18,35.46,0,11.99-2.3,22.81-6.89,32.45-4.58,9.65-10.76,17.76-18.52,24.35-7.76,6.58-16.93,11.63-27.51,15.16-10.58,3.53-21.86,5.29-33.86,5.29-15.99,0-31.17-2.81-45.5-8.46-14.35-5.64-25.75-14.34-34.22-26.1l27.87-23.98Z"/>
  </g>
</svg>