<?xml version="1.0" encoding="UTF-8"?>
<svg id="Layer_1" data-name="Layer 1" xmlns="http://www.w3.org/2000/svg" viewBox="0 0 2000 2000">
  <g>
    <path d="M656.1,991.02c-23.66-13.22-42.19-31.48-55.6-54.76-13.41-23.28-20.12-49.64-20.12-79.07s6.71-55.79,20.12-79.07c13.41-23.28,31.94-41.53,55.6-54.76,23.65-13.22,50.57-19.84,80.75-19.84s56.63,6.62,80.47,19.84c23.84,13.23,42.47,31.49,55.88,54.76,13.41,23.29,20.12,49.65,20.12,79.07s-6.71,55.79-20.12,79.07c-13.41,23.29-32.04,41.54-55.88,54.76-23.84,13.23-50.67,19.84-80.47,19.84s-57.09-6.61-80.75-19.84ZM655.54,906.36c8.01,14.53,19.09,25.9,33.25,34.09,14.15,8.2,30.17,12.29,48.06,12.29s33.9-4.09,48.06-12.29c14.15-8.19,25.23-19.56,33.25-34.09,8.01-14.53,12.02-30.92,12.02-49.18s-4.01-34.65-12.02-49.18c-8.02-14.53-19.09-25.89-33.25-34.09-14.16-8.19-30.18-12.29-48.06-12.29s-33.91,4.1-48.06,12.29c-14.16,8.2-25.24,19.56-33.25,34.09-8.02,14.53-12.01,30.93-12.01,49.18s4,34.65,12.01,49.18Z"/>
    <path d="M988.32,984.03c-17.51-16.01-26.26-40.6-26.26-73.76v-149.2h-57.56v-51.97h57.56v-67.62l62.03-6.71v74.32h77.12v51.97h-77.12v141.94c0,17.14,4.19,29.53,12.57,37.16,8.38,7.64,21.88,11.45,40.52,11.45,9.68,0,19-.74,27.94-2.23v55.88c-14.9,1.86-27.76,2.8-38.56,2.8-34.65,0-60.73-8.01-78.24-24.03Z"/>
    <path d="M1200.39,991.02c-22.55-13.22-40.15-31.48-52.81-54.76-12.67-23.28-19-49.64-19-79.07s6.33-55.88,19-79.35c12.66-23.47,30.26-41.72,52.81-54.76,22.54-13.04,48.14-19.56,76.84-19.56,20.48,0,39.48,3.45,57,10.34,17.51,6.9,32.78,16.68,45.82,29.34l1.12-34.09h58.68v296.17h-58.68l-1.12-34.65c-13.05,13.04-28.32,23.01-45.82,29.9-17.52,6.89-36.51,10.34-57,10.34-28.69,0-54.3-6.61-76.84-19.84ZM1203.74,906.92c8.01,14.53,19.09,25.8,33.25,33.81,14.15,8.02,30.17,12.01,48.06,12.01s34.46-4,48.62-12.01c14.15-8.01,25.23-19.28,33.25-33.81,8.01-14.53,12.02-31.1,12.02-49.73s-4.01-35.21-12.02-49.73c-8.02-14.53-19.1-25.79-33.25-33.81-14.16-8.01-30.37-12.01-48.62-12.01s-33.91,4.01-48.06,12.01c-14.16,8.02-25.24,19.28-33.25,33.81-8.02,14.53-12.01,31.11-12.01,49.73s4,35.21,12.01,49.73Z"/>
    <path d="M1511.93,709.1h60.91l.56,36.32c25.71-27.57,59.04-41.35,100.03-41.35,38.36,0,67.98,11.65,88.85,34.93,20.86,23.29,31.3,56.35,31.3,99.19v167.09h-62.03v-162.61c0-27.19-6.06-47.68-18.16-61.47-12.11-13.78-30.09-20.68-53.93-20.68-26.08,0-46.85,7.46-62.31,22.35-15.46,14.9-23.19,34.84-23.19,59.79v162.61h-62.03v-296.17Z"/>
  </g>
  <path d="M304.58,722.07l-6.21,39.63c59.11-50.2,125.05-88.9,193.33-27.31,62.87,56.71,55.82,147.9,23.12,218.98-38.41,83.47-192.5,220.26-114.88,313.8,60.55,72.97,166.21-25.12,117.76-83.07-2.43-2.91-18.5-16.98-17.34-7.48,2.75,22.48,11.67,29.57,3.18,55.35-16.34,49.63-76.39,44.99-96.1.44-34.91-78.88,49.91-157.78,125.88-111.01,64.35,39.62,54.57,125.4,19.09,181.73-55.06,87.42-178.59,69.47-219.3-21.16-58.28-129.75,73.97-258.8,122.25-370.72,20.36-47.2,20.94-103.24-27.1-133.23-55.23-34.48-104.54,18.39-128.07,64.78-2.83,65.84.7,132.04,2.02,197.54.7,34.6-5.93,98.82,5.37,128.42,2.65,6.93,8.94,11.63,9.39,19.1h-111.49c13.38-30.48,12.91-62.72,12.49-95.49-1.32-102.41.39-207.44-5.03-309.62-1.09-20.62,0-40.08-4.98-60.68h96.63Z"/>
  <g>
    <path d="M589.93,1076.58h131.49v21.44h-54.31v147.21h-22.87v-147.21h-54.31v-21.44Z"/>
    <path d="M750.24,1076.58h108.86v21.44h-85.99v50.26h80.04v21.44h-80.04v54.07h90.28v21.44h-113.15v-168.65Z"/>
    <path d="M900.31,1245.23v-168.65h60.51c29.3,0,52.88,14.29,52.88,47.16,0,18.58-13.1,40.97-41.21,44.55h-.24l47.88,76.94h-28.59l-42.88-74.32h-25.49v74.32h-22.87ZM923.17,1150.9h30.97c23.58,0,35.25-8.58,35.25-27.16s-11.91-27.16-35.25-27.16h-30.97v54.31Z"/>
    <path d="M1050.38,1245.23v-168.65h60.51c29.3,0,52.88,14.29,52.88,47.16,0,18.58-13.1,40.97-41.21,44.55h-.24l47.88,76.94h-28.59l-42.88-74.32h-25.49v74.32h-22.87ZM1073.24,1150.9h30.97c23.58,0,35.25-8.58,35.25-27.16s-11.91-27.16-35.25-27.16h-30.97v54.31Z"/>
    <path d="M1179,1245.23l74.32-168.65h20.72l72.18,168.65h-26.68l-16.91-41.69h-80.28l-16.68,41.69h-26.68ZM1230.46,1183.53h63.84l-31.44-77.42h-.48l-31.92,77.42Z"/>
    <path d="M1509.16,1098.49l-19.06,14.53c-10.01-12.62-25.01-19.29-40.73-19.29-37.64,0-62.89,30.25-62.89,68.6,0,36.21,24.53,65.75,62.89,65.75,19.53,0,33.83-8.34,44.07-22.63l19.29,14.53c-13.1,17.63-36.68,29.54-63.84,29.54-54.31,0-86.71-45.74-86.71-87.42,0-50.98,34.78-89.8,87.9-89.8,23.82,0,45.97,9.29,59.08,26.2Z"/>
    <path d="M1544.89,1076.58h108.86v21.44h-85.99v50.26h80.04v21.44h-80.04v54.07h90.28v21.44h-113.15v-168.65Z"/>
    <path d="M1791.9,1091.58l-18.58,16.91c-5.72-8.81-16.67-14.77-30.25-14.77-25.97,0-32.63,16.2-32.63,25.96,0,14.29,9.77,21.92,25.25,26.68l21.2,6.91c23.58,7.62,36.68,20.25,36.68,44.07,0,31.2-24.53,52.17-58.6,52.17-23.82,0-42.88-8.58-53.83-23.34l18.82-16.2c7.38,11.43,20.96,18.1,35.73,18.1,16.91,0,33.59-10.72,33.59-28.11,0-11.67-6.91-19.06-27.39-25.49l-15.01-5c-23.11-7.38-40.73-19.53-40.73-49.79,0-22.39,19.06-47.4,57.17-47.4,24.06,0,38.83,7.15,48.59,19.29Z"/>
  </g>
</svg>