<?xml version="1.0" encoding="UTF-8"?>
<svg id="Layer_1" data-name="Layer 1" xmlns="http://www.w3.org/2000/svg" viewBox="0 0 2000 2000">
  <defs>
    <style>
      .cls-1 {
        font-family: CodeNext-Trial-SemiBold, EGECRA+CodeNext-Trial-SemiBold;
        font-size: 463.97px;
        font-weight: 600;
        letter-spacing: -.03em;
      }

      .cls-2 {
        font-family: Avenir-Medium, 'BZQKB G+ Avenir';
        font-size: 226.64px;
        font-weight: 500;
        letter-spacing: .02em;
      }
    </style>
  </defs>
  <text class="cls-1" transform="translate(493.69 982.95)"><tspan x="0" y="0">otan</tspan></text>
  <path d="M264.7,747.82l-5.15,32.9c49.07-41.68,103.83-73.81,160.52-22.67,52.2,47.09,46.35,122.8,19.19,181.81-31.89,69.31-159.83,182.88-95.38,260.54,50.27,60.58,138-20.86,97.77-68.97-2.02-2.42-15.36-14.1-14.39-6.21,2.28,18.66,9.69,24.55,2.64,45.96-13.57,41.2-63.42,37.35-79.79.37-28.98-65.5,41.44-131,104.51-92.17,53.43,32.9,45.3,104.11,15.85,150.89-45.71,72.59-148.28,57.68-182.08-17.57-48.39-107.73,61.41-214.87,101.5-307.8,16.91-39.19,17.39-85.72-22.5-110.62-45.86-28.63-86.8,15.27-106.33,53.78-2.35,54.67.58,109.63,1.67,164.01.58,28.73-4.92,82.05,4.46,106.62,2.2,5.76,7.42,9.66,7.8,15.86h-92.57c11.11-25.31,10.72-52.07,10.37-79.28-1.09-85.03.33-172.23-4.18-257.07-.91-17.12,0-33.28-4.14-50.38h80.23Z"/>
  <text class="cls-2" transform="translate(518.21 1211.91)"><tspan x="0" y="0">LANDS END</tspan></text>
</svg>