<?xml version="1.0" encoding="UTF-8"?>
<svg id="Layer_1" data-name="Layer 1" xmlns="http://www.w3.org/2000/svg" viewBox="0 0 1080 1080">
  <defs>
    <style>
      .cls-1 {
        stroke: #231f20;
        stroke-miterlimit: 10;
        stroke-width: .88px;
      }

      .cls-2 {
        fill: #231f20;
      }

      .cls-3 {
        fill-rule: evenodd;
      }
    </style>
  </defs>
  <path class="cls-3" d="M480.28,356.54c9.55-.03,20.35-.25,29.9-.07-4.55,6.6-3.49,11.34-3.38,15.16,30.29-34.41,66.55-12.29,67.59,22.85,1.13,42.32-34.32,64.46-42.34,90.27-8.02,25.81,9.25,47.19,27.34,37.3,16.78-9.91,16.03-30.08,3.27-33.85,10.4,17.96-4.78,34.76-17.54,26.33-12.73-6.98-13.74-35.67,8.47-43.41,24.86-7.47,43.24,23.81,25.65,54.7-17.8,27.41-57.71,22.6-65.32-16.51-2.04-23.76,5.68-39.7,28.06-76.9,36.74-58.77-17.78-80.84-34.62-38.73.33,26.4-.67,76.41.72,91,.34,3.55,2.44,5.96,4.1,7.89-10.61.19-18.78.05-29.38.25,5.15-10.38,6.47-125.97-1.95-135.96-.18-.21-.74-.31-.55-.32"/>
  <line class="cls-1" x1="470.69" y1="587.66" x2="586.19" y2="587.66"/>
  <g>
    <path class="cls-2" d="M137.05,655.33v52.13h-3.13l-35.52-45.28v45.28h-3.8v-52.13h3.2l35.45,45.28v-45.28h3.8Z"/>
    <path class="cls-2" d="M174.29,704.37c-4.12-2.31-7.36-5.47-9.72-9.49-2.36-4.02-3.54-8.51-3.54-13.48s1.18-9.46,3.54-13.48c2.36-4.02,5.6-7.19,9.72-9.49,4.12-2.31,8.74-3.46,13.85-3.46s9.73,1.14,13.85,3.43c4.12,2.28,7.36,5.44,9.72,9.46,2.36,4.02,3.54,8.54,3.54,13.55s-1.18,9.53-3.54,13.55c-2.36,4.02-5.6,7.17-9.72,9.46-4.12,2.28-8.74,3.43-13.85,3.43s-9.73-1.15-13.85-3.46ZM199.98,701.36c3.52-1.99,6.3-4.73,8.34-8.23,2.04-3.5,3.05-7.41,3.05-11.73s-1.02-8.23-3.05-11.73c-2.04-3.5-4.82-6.24-8.34-8.23-3.53-1.99-7.47-2.98-11.84-2.98s-8.33.99-11.88,2.98c-3.55,1.99-6.34,4.73-8.38,8.23-2.04,3.5-3.05,7.41-3.05,11.73s1.02,8.23,3.05,11.73c2.04,3.5,4.83,6.24,8.38,8.23,3.55,1.99,7.51,2.98,11.88,2.98s8.32-.99,11.84-2.98Z"/>
    <path class="cls-2" d="M248.46,658.76h-18.77v-3.43h41.33v3.43h-18.77v48.7h-3.8v-48.7Z"/>
    <path class="cls-2" d="M320.85,692.79h-30.23l-6.63,14.67h-4.1l23.98-52.13h3.8l23.98,52.13h-4.1l-6.7-14.67ZM319.43,689.59l-13.7-30.09-13.63,30.09h27.33Z"/>
    <path class="cls-2" d="M394.35,655.33v52.13h-3.13l-35.52-45.28v45.28h-3.8v-52.13h3.2l35.45,45.28v-45.28h3.8Z"/>
    <path class="cls-2" d="M423.32,655.33h20.63c5.41,0,10.21,1.12,14.41,3.35,4.19,2.23,7.46,5.32,9.79,9.27,2.33,3.95,3.5,8.43,3.5,13.44s-1.17,9.5-3.5,13.44c-2.33,3.95-5.6,7.04-9.79,9.27-4.2,2.23-9,3.35-14.41,3.35h-20.63v-52.13ZM443.65,704.04c4.81,0,9.06-.96,12.73-2.87,3.67-1.91,6.5-4.58,8.49-8,1.98-3.43,2.98-7.35,2.98-11.77s-.99-8.34-2.98-11.77c-1.99-3.42-4.82-6.09-8.49-8-3.67-1.91-7.92-2.87-12.73-2.87h-16.53v45.28h16.53Z"/>
    <path class="cls-2" d="M527.12,692.79h-30.23l-6.63,14.67h-4.1l23.98-52.13h3.8l23.98,52.13h-4.1l-6.7-14.67ZM525.71,689.59l-13.7-30.09-13.63,30.09h27.33Z"/>
    <path class="cls-2" d="M560.97,705.86c-3.45-1.31-6.14-3.02-8.08-5.1l1.71-2.83c1.84,1.94,4.31,3.51,7.41,4.73,3.1,1.22,6.37,1.83,9.79,1.83,4.96,0,8.71-.94,11.25-2.83,2.53-1.89,3.8-4.34,3.8-7.37,0-2.33-.67-4.19-2.01-5.58-1.34-1.39-3-2.46-4.99-3.2-1.99-.74-4.67-1.51-8.04-2.31-3.82-.94-6.89-1.86-9.2-2.75s-4.27-2.27-5.88-4.13c-1.61-1.86-2.42-4.36-2.42-7.48,0-2.53.67-4.85,2.01-6.96,1.34-2.11,3.39-3.79,6.14-5.03,2.76-1.24,6.19-1.86,10.31-1.86,2.88,0,5.71.42,8.49,1.27,2.78.84,5.19,1.99,7.22,3.43l-1.42,3.05c-2.08-1.44-4.38-2.53-6.89-3.28-2.51-.74-4.98-1.12-7.41-1.12-4.82,0-8.47.97-10.95,2.9-2.48,1.94-3.72,4.44-3.72,7.52,0,2.33.67,4.2,2.01,5.59s3,2.46,4.99,3.2c1.99.74,4.69,1.54,8.12,2.38,3.82.94,6.88,1.86,9.16,2.75,2.28.89,4.23,2.25,5.85,4.06,1.61,1.81,2.42,4.26,2.42,7.34,0,2.53-.68,4.84-2.05,6.93-1.37,2.08-3.46,3.75-6.29,4.99-2.83,1.24-6.31,1.86-10.43,1.86-3.82,0-7.46-.66-10.91-1.97Z"/>
    <path class="cls-2" d="M680.46,707.46l-12.44-17.43c-1.84.25-3.53.37-5.06.37h-14.89v17.05h-3.8v-52.13h18.69c6.55,0,11.69,1.55,15.42,4.65,3.72,3.1,5.58,7.41,5.58,12.92,0,4.12-1.05,7.58-3.16,10.39-2.11,2.8-5.13,4.78-9.05,5.92l13.03,18.25h-4.32ZM662.96,687.06c5.56,0,9.8-1.23,12.73-3.69,2.93-2.46,4.39-5.95,4.39-10.46s-1.46-8.01-4.39-10.46c-2.93-2.46-7.17-3.69-12.73-3.69h-14.89v28.3h14.89Z"/>
    <path class="cls-2" d="M744.65,704.04v3.43h-35.97v-52.13h34.85v3.43h-31.05v20.55h27.78v3.35h-27.78v21.37h32.17Z"/>
    <path class="cls-2" d="M801.54,692.79h-30.24l-6.63,14.67h-4.1l23.98-52.13h3.8l23.98,52.13h-4.1l-6.7-14.67ZM800.13,689.59l-13.7-30.09-13.63,30.09h27.33Z"/>
    <path class="cls-2" d="M832.59,655.33h3.8v48.7h30.01v3.43h-33.81v-52.13Z"/>
    <path class="cls-2" d="M892.1,658.76h-18.77v-3.43h41.33v3.43h-18.77v48.7h-3.8v-48.7Z"/>
    <path class="cls-2" d="M950.71,689.52v17.95h-3.8v-17.95l-21-34.18h4.17l18.84,30.68,18.84-30.68h3.95l-21,34.18Z"/>
  </g>
</svg>