<?xml version="1.0" encoding="UTF-8"?>
<svg id="Layer_1" data-name="Layer 1" xmlns="http://www.w3.org/2000/svg" viewBox="0 0 2000 2000">
  <g>
    <path d="M582.26,851.53c0-91.8,66.56-157.78,160.65-157.78s160.65,65.98,160.65,157.78-67.12,157.78-160.65,157.78-160.65-65.98-160.65-157.78ZM742.91,949.63c55.65,0,95.81-40.73,95.81-98.1s-40.17-98.12-95.81-98.12-95.81,40.75-95.81,98.12,40.16,98.1,95.81,98.1Z"/>
    <path d="M973.59,906.03v-153.18h-59.09v-53.36h59.09v-69.43l63.69-6.88v76.31h79.18v53.36h-79.18v145.73c0,35.56,16.64,49.91,54.5,49.91,8.61,0,18.36-.57,28.69-2.29v57.37c-13.77,1.72-28.11,2.87-39.59,2.87-70.57,0-107.29-31.55-107.29-100.41Z"/>
    <path d="M1144.59,851.53c0-92.38,63.68-157.78,152.61-157.78,42.46,0,79.18,14.91,105.58,40.73l1.15-35h60.24v304.08h-60.24l-1.15-35.57c-26.4,26.4-63.12,41.31-105.58,41.31-90.08,0-152.61-66.56-152.61-157.78ZM1305.24,949.63c56.22,0,96.39-40.16,96.39-98.1s-40.17-98.12-96.39-98.12-95.81,40.17-95.81,98.12,40.16,98.1,95.81,98.1Z"/>
    <path d="M1538.22,699.49h62.54l.57,37.29c25.26-26.97,59.11-42.46,102.71-42.46,79.18,0,123.35,49.92,123.35,137.71v171.54h-63.69v-166.96c0-55.65-25.24-84.34-74.01-84.34-53.36,0-87.79,33.28-87.79,84.34v166.96h-63.69v-304.08Z"/>
  </g>
  <path d="M274.38,712.78l-6.37,40.69c60.69-51.54,128.4-91.28,198.52-28.04,64.56,58.23,57.32,151.87,23.74,224.85-39.44,85.71-197.66,226.17-117.97,322.22,62.18,74.93,170.67-25.79,120.92-85.3-2.5-2.99-18.99-17.44-17.8-7.68,2.82,23.08,11.98,30.36,3.26,56.84-16.78,50.96-78.44,46.2-98.68.46-35.84-81,51.25-162.01,129.25-113.99,66.08,40.68,56.03,128.76,19.6,186.61-56.53,89.77-183.38,71.34-225.18-21.73-59.84-133.23,75.95-265.74,125.53-380.67,20.91-48.47,21.51-106.01-27.83-136.8-56.72-35.4-107.35,18.88-131.5,66.51-2.91,67.61.72,135.59,2.07,202.84.72,35.53-6.09,101.47,5.52,131.86,2.72,7.12,9.18,11.94,9.64,19.61h-114.48c13.73-31.3,13.26-64.4,12.83-98.05-1.35-105.16.4-213-5.17-317.93-1.12-21.17,0-41.15-5.11-62.3h99.22Z"/>
  <g>
    <path d="M856.02,1075.77h93.22c18.87,0,35.41,2.15,49.62,6.42,14.2,4.27,26.54,10,36.98,17.17,10.44,7.17,19.12,15.41,26.03,24.71,6.92,9.32,12.4,18.87,16.42,28.68,4.01,9.81,6.91,19.62,8.68,29.43,1.76,9.81,2.64,18.88,2.64,27.18,0,17.11-3.15,33.65-9.43,49.62-6.29,15.97-15.61,30.19-27.94,42.64-12.33,12.46-27.6,22.46-45.85,30-18.24,7.56-39.32,11.32-63.21,11.32h-87.17v-267.18ZM892.24,1308.99h45.67c15.34,0,29.87-2.08,43.58-6.23,13.72-4.14,25.73-10.38,36.05-18.68,10.31-8.3,18.49-18.68,24.52-31.14,6.05-12.44,9.06-26.98,9.06-43.58,0-8.55-1.38-18.55-4.14-30-2.77-11.45-7.99-22.33-15.67-32.65-7.67-10.31-18.3-19.06-31.88-26.22-13.59-7.18-31.21-10.76-52.84-10.76h-54.35v199.26Z"/>
    <path d="M1166.98,1345.21c-6.8,0-12.65-2.46-17.56-7.36-4.9-4.91-7.36-10.76-7.36-17.55s2.46-12.65,7.36-17.56c4.91-4.9,10.76-7.36,17.56-7.36s12.63,2.46,17.55,7.36c4.9,4.91,7.36,10.76,7.36,17.56s-2.46,12.63-7.36,17.55c-4.91,4.9-10.76,7.36-17.55,7.36Z"/>
    <path d="M1446.99,1133.5c-7.54-9.81-17.12-17.36-28.68-22.63-11.58-5.29-23.53-7.93-35.86-7.93-15.09,0-28.74,2.83-40.95,8.5-12.2,5.66-22.63,13.39-31.31,23.2-8.69,9.81-15.42,21.32-20.19,34.54-4.78,13.2-7.18,27.36-7.18,42.46,0,14.09,2.27,27.42,6.8,39.99,4.52,12.59,11.06,23.66,19.62,33.21,8.55,9.56,18.99,17.11,31.31,22.65,12.33,5.54,26.29,8.3,41.89,8.3s28.81-3.14,40.38-9.43c11.57-6.28,21.38-15.1,29.43-26.41l30.57,23.01c-2.02,2.77-5.54,6.74-10.57,11.89-5.03,5.16-11.7,10.32-20,15.48-8.3,5.16-18.3,9.68-30,13.58-11.7,3.9-25.22,5.86-40.57,5.86-21.13,0-40.19-4.04-57.17-12.08-16.98-8.05-31.45-18.62-43.4-31.7-11.95-13.08-21.06-27.86-27.36-44.35-6.29-16.47-9.43-33.14-9.43-49.99,0-20.63,3.4-39.68,10.19-57.18,6.79-17.47,16.29-32.58,28.49-45.28,12.21-12.7,26.86-22.58,43.97-29.62,17.11-7.04,35.98-10.57,56.6-10.57,17.6,0,34.91,3.4,51.89,10.19,16.98,6.79,30.88,17.24,41.7,31.32l-30.19,23.01Z"/>
    <path d="M1551.9,1345.21c-6.8,0-12.65-2.46-17.56-7.36-4.9-4.91-7.36-10.76-7.36-17.55s2.46-12.65,7.36-17.56c4.91-4.9,10.76-7.36,17.56-7.36s12.63,2.46,17.55,7.36c4.9,4.91,7.36,10.76,7.36,17.56s-2.46,12.63-7.36,17.55c-4.91,4.9-10.76,7.36-17.55,7.36Z"/>
  </g>
</svg>